<svg width="108" height="75" viewBox="0 0 108 75" fill="none" xmlns="http://www.w3.org/2000/svg">
<path d="M54.055 37.4885C54.055 43.8515 53.3648 49.3897 51.9845 54.103C50.6378 58.7827 48.7525 62.6543 46.3285 65.718C43.9382 68.7817 41.0933 71.071 37.794 72.586C34.5283 74.0673 30.9933 74.808 27.189 74.808C23.3847 74.808 19.8497 74.0673 16.584 72.586C13.352 71.071 10.5408 68.7817 8.1505 65.718C5.76017 62.6543 3.89167 58.7827 2.545 54.103C1.19833 49.3897 0.525 43.8515 0.525 37.4885C0.525 31.0918 1.19833 25.5537 2.545 20.874C3.89167 16.1943 5.76017 12.3227 8.1505 9.259C10.5408 6.19533 13.352 3.92283 16.584 2.4415C19.8497 0.926499 23.3847 0.168999 27.189 0.168999C30.9933 0.168999 34.5283 0.926499 37.794 2.4415C41.0933 3.92283 43.9382 6.19533 46.3285 9.259C48.7525 12.3227 50.6378 16.1943 51.9845 20.874C53.3648 25.5537 54.055 31.0918 54.055 37.4885ZM41.1775 37.4885C41.1775 32.2028 40.7903 27.8262 40.016 24.3585C39.2417 20.8908 38.198 18.1302 36.885 16.0765C35.6057 14.0228 34.1243 12.592 32.441 11.784C30.7577 10.9423 29.007 10.5215 27.189 10.5215C25.4047 10.5215 23.6708 10.9423 21.9875 11.784C20.3378 12.592 18.8733 14.0228 17.594 16.0765C16.3147 18.1302 15.2878 20.8908 14.5135 24.3585C13.7728 27.8262 13.4025 32.2028 13.4025 37.4885C13.4025 42.7742 13.7728 47.1508 14.5135 50.6185C15.2878 54.0862 16.3147 56.8468 17.594 58.9005C18.8733 60.9542 20.3378 62.4018 21.9875 63.2435C23.6708 64.0515 25.4047 64.4555 27.189 64.4555C29.007 64.4555 30.7577 64.0515 32.441 63.2435C34.1243 62.4018 35.6057 60.9542 36.885 58.9005C38.198 56.8468 39.2417 54.0862 40.016 50.6185C40.7903 47.1508 41.1775 42.7742 41.1775 37.4885ZM107.355 64.6575V74H66.9554V64.6575H81.7519V22.086C81.7519 20.4027 81.8024 18.6688 81.9034 16.8845L71.3994 25.6715C70.7934 26.1428 70.1874 26.4458 69.5814 26.5805C69.0091 26.6815 68.4536 26.6815 67.9149 26.5805C67.4099 26.4795 66.9554 26.3112 66.5514 26.0755C66.1474 25.8062 65.8444 25.52 65.6424 25.217L61.7034 19.8135L83.9739 0.875996H94.2254V64.6575H107.355Z" fill="#01B9FF"/>
</svg>
