<svg width="110" height="75" viewBox="0 0 110 75" fill="none" xmlns="http://www.w3.org/2000/svg">
<path d="M54.055 37.4885C54.055 43.8515 53.3648 49.3897 51.9845 54.103C50.6378 58.7827 48.7525 62.6543 46.3285 65.718C43.9382 68.7817 41.0933 71.071 37.794 72.586C34.5283 74.0673 30.9933 74.808 27.189 74.808C23.3847 74.808 19.8497 74.0673 16.584 72.586C13.352 71.071 10.5408 68.7817 8.1505 65.718C5.76017 62.6543 3.89167 58.7827 2.545 54.103C1.19833 49.3897 0.525 43.8515 0.525 37.4885C0.525 31.0918 1.19833 25.5537 2.545 20.874C3.89167 16.1943 5.76017 12.3227 8.1505 9.259C10.5408 6.19533 13.352 3.92283 16.584 2.4415C19.8497 0.926499 23.3847 0.168999 27.189 0.168999C30.9933 0.168999 34.5283 0.926499 37.794 2.4415C41.0933 3.92283 43.9382 6.19533 46.3285 9.259C48.7525 12.3227 50.6378 16.1943 51.9845 20.874C53.3648 25.5537 54.055 31.0918 54.055 37.4885ZM41.1775 37.4885C41.1775 32.2028 40.7903 27.8262 40.016 24.3585C39.2417 20.8908 38.198 18.1302 36.885 16.0765C35.6057 14.0228 34.1243 12.592 32.441 11.784C30.7577 10.9423 29.007 10.5215 27.189 10.5215C25.4047 10.5215 23.6708 10.9423 21.9875 11.784C20.3378 12.592 18.8733 14.0228 17.594 16.0765C16.3147 18.1302 15.2878 20.8908 14.5135 24.3585C13.7728 27.8262 13.4025 32.2028 13.4025 37.4885C13.4025 42.7742 13.7728 47.1508 14.5135 50.6185C15.2878 54.0862 16.3147 56.8468 17.594 58.9005C18.8733 60.9542 20.3378 62.4018 21.9875 63.2435C23.6708 64.0515 25.4047 64.4555 27.189 64.4555C29.007 64.4555 30.7577 64.0515 32.441 63.2435C34.1243 62.4018 35.6057 60.9542 36.885 58.9005C38.198 56.8468 39.2417 54.0862 40.016 50.6185C40.7903 47.1508 41.1775 42.7742 41.1775 37.4885ZM104.628 62.385C105.975 62.385 107.036 62.7722 107.81 63.5465C108.618 64.2872 109.022 65.2803 109.022 66.526V74H58.9259V69.859C58.9259 69.0173 59.0942 68.142 59.4309 67.233C59.8012 66.2903 60.3736 65.4487 61.1479 64.708L83.3174 42.488C85.1691 40.6027 86.8187 38.8015 88.2664 37.0845C89.7477 35.3675 90.9766 33.6673 91.9529 31.984C92.9292 30.3007 93.6699 28.6005 94.1749 26.8835C94.7136 25.1328 94.9829 23.298 94.9829 21.379C94.9829 19.6283 94.7304 18.0965 94.2254 16.7835C93.7204 15.4368 92.9966 14.309 92.0539 13.4C91.1449 12.491 90.0339 11.8177 88.7209 11.38C87.4416 10.9087 85.9939 10.673 84.3779 10.673C82.8966 10.673 81.5162 10.8918 80.2369 11.3295C78.9912 11.7335 77.8802 12.3227 76.9039 13.097C75.9276 13.8377 75.1027 14.713 74.4294 15.723C73.7561 16.733 73.2511 17.844 72.9144 19.056C72.3421 20.6047 71.6014 21.6315 70.6924 22.1365C69.7834 22.6415 68.4704 22.7593 66.7534 22.49L60.1884 21.3285C60.6934 17.8272 61.6697 14.7635 63.1174 12.1375C64.5651 9.47783 66.3662 7.27266 68.5209 5.522C70.7092 3.73766 73.2006 2.40783 75.9949 1.5325C78.8229 0.623499 81.8529 0.168999 85.0849 0.168999C88.4516 0.168999 91.5321 0.673999 94.3264 1.684C97.1207 2.66033 99.5111 4.05749 101.497 5.8755C103.484 7.6935 105.032 9.88183 106.143 12.4405C107.254 14.9992 107.81 17.844 107.81 20.975C107.81 23.6683 107.406 26.1597 106.598 28.449C105.824 30.7383 104.763 32.9267 103.416 35.014C102.103 37.1013 100.555 39.1213 98.7704 41.074C96.9861 43.0267 95.1176 45.013 93.1649 47.033L76.7019 63.8495C78.2842 63.3782 79.8497 63.0247 81.3984 62.789C82.9807 62.5197 84.4789 62.385 85.8929 62.385H104.628Z" fill="white"/>
</svg>
