<svg width="109" height="75" viewBox="0 0 109 75" fill="none" xmlns="http://www.w3.org/2000/svg">
<path d="M54.055 37.4885C54.055 43.8515 53.3648 49.3897 51.9845 54.103C50.6378 58.7827 48.7525 62.6543 46.3285 65.718C43.9382 68.7817 41.0933 71.071 37.794 72.586C34.5283 74.0673 30.9933 74.808 27.189 74.808C23.3847 74.808 19.8497 74.0673 16.584 72.586C13.352 71.071 10.5408 68.7817 8.1505 65.718C5.76017 62.6543 3.89167 58.7827 2.545 54.103C1.19833 49.3897 0.525 43.8515 0.525 37.4885C0.525 31.0918 1.19833 25.5537 2.545 20.874C3.89167 16.1943 5.76017 12.3227 8.1505 9.259C10.5408 6.19533 13.352 3.92283 16.584 2.4415C19.8497 0.926499 23.3847 0.168999 27.189 0.168999C30.9933 0.168999 34.5283 0.926499 37.794 2.4415C41.0933 3.92283 43.9382 6.19533 46.3285 9.259C48.7525 12.3227 50.6378 16.1943 51.9845 20.874C53.3648 25.5537 54.055 31.0918 54.055 37.4885ZM41.1775 37.4885C41.1775 32.2028 40.7903 27.8262 40.016 24.3585C39.2417 20.8908 38.198 18.1302 36.885 16.0765C35.6057 14.0228 34.1243 12.592 32.441 11.784C30.7577 10.9423 29.007 10.5215 27.189 10.5215C25.4047 10.5215 23.6708 10.9423 21.9875 11.784C20.3378 12.592 18.8733 14.0228 17.594 16.0765C16.3147 18.1302 15.2878 20.8908 14.5135 24.3585C13.7728 27.8262 13.4025 32.2028 13.4025 37.4885C13.4025 42.7742 13.7728 47.1508 14.5135 50.6185C15.2878 54.0862 16.3147 56.8468 17.594 58.9005C18.8733 60.9542 20.3378 62.4018 21.9875 63.2435C23.6708 64.0515 25.4047 64.4555 27.189 64.4555C29.007 64.4555 30.7577 64.0515 32.441 63.2435C34.1243 62.4018 35.6057 60.9542 36.885 58.9005C38.198 56.8468 39.2417 54.0862 40.016 50.6185C40.7903 47.1508 41.1775 42.7742 41.1775 37.4885ZM60.5419 21.3285C61.0469 17.8272 62.0232 14.7635 63.4709 12.1375C64.9186 9.47783 66.7197 7.27266 68.8744 5.522C71.0627 3.73766 73.5541 2.40783 76.3484 1.5325C79.1764 0.623499 82.2064 0.168999 85.4384 0.168999C88.8051 0.168999 91.8351 0.657165 94.5284 1.6335C97.2554 2.57616 99.5784 3.906 101.497 5.623C103.416 7.30633 104.881 9.29266 105.891 11.582C106.935 13.8713 107.456 16.3458 107.456 19.0055C107.456 21.3285 107.187 23.3822 106.648 25.1665C106.143 26.9172 105.403 28.449 104.426 29.762C103.45 31.075 102.238 32.186 100.79 33.095C99.3427 34.004 97.7099 34.7615 95.8919 35.3675C100.269 36.7478 103.534 38.852 105.689 41.68C107.844 44.508 108.921 48.0598 108.921 52.3355C108.921 55.9715 108.248 59.1867 106.901 61.981C105.554 64.7753 103.736 67.132 101.447 69.051C99.1576 70.9363 96.4979 72.3672 93.4679 73.3435C90.4716 74.3198 87.2901 74.808 83.9234 74.808C80.2537 74.808 77.0554 74.3872 74.3284 73.5455C71.6014 72.7038 69.2279 71.4582 67.2079 69.8085C65.1879 68.1588 63.4709 66.1388 62.0569 63.7485C60.6429 61.3582 59.4309 58.5975 58.4209 55.4665L63.9254 53.194C65.3731 52.588 66.7197 52.4365 67.9654 52.7395C69.2447 53.0088 70.1706 53.6822 70.7429 54.7595C71.3489 55.9378 72.0054 57.0993 72.7124 58.244C73.4531 59.3887 74.3284 60.4155 75.3384 61.3245C76.3484 62.1998 77.5267 62.9237 78.8734 63.496C80.2537 64.0347 81.8866 64.304 83.7719 64.304C85.8929 64.304 87.7446 63.9673 89.3269 63.294C90.9092 62.587 92.2222 61.678 93.2659 60.567C94.3432 59.456 95.1344 58.2272 95.6394 56.8805C96.1781 55.5002 96.4474 54.1198 96.4474 52.7395C96.4474 50.9888 96.2622 49.4065 95.8919 47.9925C95.5216 46.5448 94.7472 45.316 93.5689 44.306C92.3906 43.296 90.6904 42.5048 88.4684 41.9325C86.2801 41.3602 83.3342 41.074 79.6309 41.074V32.186C82.6946 32.1523 85.2364 31.8662 87.2564 31.3275C89.2764 30.7888 90.8756 30.0482 92.0539 29.1055C93.2659 28.1292 94.1076 26.9677 94.5789 25.621C95.0502 24.2743 95.2859 22.793 95.2859 21.177C95.2859 17.743 94.3264 15.1338 92.4074 13.3495C90.4884 11.5652 87.9297 10.673 84.7314 10.673C83.2501 10.673 81.8866 10.8918 80.6409 11.3295C79.3952 11.7335 78.2674 12.3227 77.2574 13.097C76.2811 13.8377 75.4562 14.713 74.7829 15.723C74.1096 16.733 73.6046 17.844 73.2679 19.056C72.6956 20.6047 71.9381 21.6315 70.9954 22.1365C70.0864 22.6415 68.7902 22.7593 67.1069 22.49L60.5419 21.3285Z" fill="#01B9FF"/>
</svg>
