<svg width="847" height="653" viewBox="0 0 847 653" fill="none" xmlns="http://www.w3.org/2000/svg">
<path d="M154.72 429.547C148.379 434.337 143.765 441.057 141.571 448.694C139.792 439.493 136.921 430.536 133.018 422.015C152.869 409.25 172.655 421.249 182.421 409.25C187.846 402.484 167.166 378.039 146.677 392.209C138.468 398.685 132.925 407.953 131.103 418.249C127.656 410.909 123.699 403.378 119.423 395.464C134.039 380.082 153.188 386.911 159.571 374.656C162.953 367.827 140.741 350.722 125.869 366.678C120.304 373.401 117.317 381.887 117.444 390.613C114.38 384.911 111.253 378.975 108.061 372.806C111.189 353.211 128.869 344.722 124.976 331.255C122.614 323.213 91.9126 325.83 91.6573 349.828C91.9984 359.806 95.9704 369.315 102.827 376.571C105.955 382.571 109.21 388.379 112.019 393.868C108.158 390.023 103.362 387.252 98.104 385.826C76.913 380.592 67.6579 407.016 74.1684 410.909C85.9128 417.866 98.2955 401.719 118.848 406.186C123.177 414.185 127.076 422.409 130.529 430.823C123.564 422.704 113.825 417.47 103.21 416.143C78.3172 414.675 73.4025 446.269 81.5725 449.269C96.5083 454.758 107.104 433.057 131.997 434.78C136.29 445.775 137.93 457.627 136.784 469.374C132.414 459.553 124.44 451.784 114.508 447.673C92.0403 440.269 79.7853 468.033 86.5511 472.757C99.3167 481.437 114.061 464.076 136.465 471.799C135.732 476.51 134.578 481.145 133.018 485.649C130.314 493.463 128.181 501.462 126.635 509.584C123.333 502.423 117.584 496.674 110.423 493.372C92.1041 486.096 80.615 508.627 86.0404 512.903C95.6147 520.434 108.444 507.797 125.805 513.796C123.795 524.834 122.728 536.023 122.614 547.241C120.2 543.621 116.785 540.782 112.784 539.071C98.6146 533.455 89.7425 550.815 93.636 554.134C100.657 559.687 109.912 551.198 122.359 554.134C122.359 560.517 122.997 564.219 123.061 564.729C123.141 565.457 123.497 566.127 124.054 566.601C124.612 567.076 125.329 567.319 126.061 567.282H126.38C126.767 567.235 127.14 567.112 127.479 566.918C127.818 566.725 128.114 566.467 128.352 566.158C128.59 565.849 128.764 565.496 128.863 565.119C128.963 564.742 128.987 564.349 128.933 563.963C128.287 557.304 128.095 550.608 128.359 543.922C142.018 537.54 152.677 547.688 160.273 541.369C164.294 537.859 154.592 520.945 140.741 527.136C135.212 530.003 130.921 534.793 128.678 540.603C129.275 527.688 131.135 514.861 134.231 502.308C152.103 494.01 166.145 507.095 175.655 498.861C180.825 494.33 168.315 472.374 150.124 480.416C144.124 483.404 139.262 488.266 136.273 494.266C136.912 491.968 137.677 489.734 138.507 487.373C141.945 477.809 143.4 467.646 142.784 457.502C161.294 446.077 179.613 457.502 188.74 445.822C193.719 439.312 174.187 416.079 154.72 429.547Z" fill="url(#paint0_linear_2_930)"/>
<path d="M119.103 532.689C116.662 537.219 115.959 542.484 117.125 547.496C111.536 538.425 106.854 528.826 103.146 518.838C111.444 504.861 127.082 507.286 129.763 497.202C131.231 491.713 112.465 482.522 104.231 496.436C101.527 501.242 100.452 506.796 101.168 512.264C100.593 510.413 100.019 508.499 99.5082 506.584C97.4286 498.409 93.6678 490.758 88.4659 484.117C95.6785 467.203 113.678 466.31 114.572 454.247C115.082 447.417 90.9552 440.716 83.9979 458.906C81.7511 465.42 81.7511 472.498 83.9979 479.011C78.396 473.362 72.114 468.431 65.2963 464.331C72.7642 446.205 91.9765 445.184 92.9339 432.418C93.4445 425.27 68.0409 418.185 60.6368 437.397C58.0769 445.617 58.5988 454.489 62.1049 462.353C56.3603 458.97 50.1052 455.97 43.5309 452.268C46.5946 435.354 62.6793 431.078 61.2751 419.909C60.4453 413.526 37.3395 412.313 34.5949 430.121C33.8774 437.291 35.7821 444.479 39.9565 450.353C35.2332 447.928 30.3184 445.375 25.276 442.631C18.3187 427.759 26.4249 413.781 17.489 406.378C12.0636 402.101 -7.72318 418.122 3.25527 434.652C8.18366 441.239 15.3627 445.782 23.425 447.417C28.3398 450.098 33.1269 452.651 37.7225 455.013C33.3108 454.164 28.7533 454.494 24.5101 455.97C7.65942 462.353 13.5316 484.564 19.8506 484.181C31.0844 483.479 32.0418 466.757 47.935 460.374C54.5169 463.792 60.9091 467.563 67.0835 471.671C58.5288 469.367 49.4217 470.346 41.5522 474.416C23.8718 484.947 35.1694 508.818 42.1266 507.094C54.8923 503.839 52.0838 484.053 69.8281 473.714C77.8133 479.252 84.3749 486.6 88.9765 495.159C81.374 490.398 72.2127 488.795 63.4453 490.691C44.6798 496.053 49.2116 520.689 56.0412 520.753C68.8068 520.753 70.7855 502.052 89.6148 496.946C91.3302 500.464 92.6983 504.141 93.6998 507.924C95.3887 514.445 97.5213 520.842 100.083 527.072C94.5249 523.68 87.9284 522.41 81.5086 523.498C65.6154 527.072 68.2962 547.751 73.9131 548.198C83.9979 548.9 86.6787 534.284 101.487 530.327C105.278 538.788 109.762 546.921 114.891 554.645C111.558 553.276 107.901 552.899 104.359 553.56C92.1041 556.368 94.1466 572.324 98.4869 572.707C105.891 573.218 108.253 563.07 118.146 559.432C121.21 563.644 123.316 565.814 123.571 566.325C123.968 566.784 124.522 567.078 125.125 567.149C125.727 567.22 126.335 567.063 126.827 566.708C127.054 566.482 127.235 566.214 127.359 565.918C127.482 565.622 127.545 565.305 127.545 564.984C127.545 564.664 127.482 564.347 127.359 564.051C127.235 563.755 127.054 563.487 126.827 563.261C123.287 559.023 120.045 554.544 117.125 549.858C123.508 539.326 135.507 541.114 137.55 533.391C140.422 529.114 125.678 522.03 119.103 532.689Z" fill="#F0EFF4"/>
<path d="M128.039 567.282C128.039 567.282 126.827 502.946 97.5295 482.905C68.2323 462.863 29.2971 464.268 29.2971 464.268C29.2971 464.268 50.4881 507.095 65.2962 513.669C80.1044 520.243 125.742 554.389 128.039 567.282Z" fill="url(#paint1_linear_2_930)"/>
<path d="M126.061 568.048C122.422 560.581 118.401 553.241 114.252 546.028C110.104 538.816 105.572 531.668 100.785 524.838C96.0685 517.957 90.9087 511.39 85.3383 505.18C79.8413 498.938 73.5295 493.464 66.5728 488.904C66.5049 488.844 66.4505 488.771 66.4132 488.688C66.376 488.606 66.3567 488.516 66.3567 488.426C66.3567 488.335 66.376 488.246 66.4132 488.163C66.4505 488.081 66.5049 488.007 66.5728 487.947C66.7028 487.826 66.8738 487.759 67.0515 487.759C67.2292 487.759 67.4002 487.826 67.5302 487.947C74.6746 492.484 81.1791 497.958 86.8701 504.223C92.714 510.237 98.1514 516.634 103.146 523.37C108.189 530.136 112.848 537.157 117.316 544.305C121.784 551.453 126.061 558.73 130.082 566.325C130.253 566.579 130.369 566.866 130.421 567.168C130.474 567.47 130.462 567.779 130.386 568.076C130.31 568.373 130.172 568.65 129.982 568.89C129.791 569.13 129.552 569.326 129.279 569.467C129.007 569.608 128.708 569.689 128.402 569.706C128.097 569.723 127.791 569.675 127.505 569.565C127.219 569.455 126.959 569.286 126.743 569.068C126.527 568.851 126.36 568.59 126.252 568.303L126.061 568.048Z" fill="white"/>
<path d="M131.55 570.984C131.55 570.984 101.678 534.54 75.7004 536.135C58.1885 538.343 41.6473 545.419 27.9569 556.56C27.9569 556.56 59.871 571.559 71.1048 568.623C82.3385 565.687 124.401 564.665 131.55 570.984Z" fill="url(#paint2_linear_2_930)"/>
<path d="M130.848 572.452C125.423 569.771 119.742 567.41 114.061 565.112C108.38 562.814 102.572 560.836 96.6998 558.73C90.8602 556.929 84.9122 555.501 78.8918 554.453C72.8726 553.35 66.7313 553.071 60.6369 553.624C60.507 553.616 60.3824 553.57 60.2797 553.49C60.1771 553.41 60.1013 553.301 60.0624 553.177C60.0535 553.11 60.058 553.041 60.0757 552.976C60.0934 552.911 60.124 552.849 60.1655 552.796C60.2071 552.743 60.2589 552.698 60.3179 552.665C60.3769 552.631 60.442 552.61 60.5092 552.602C66.6854 551.846 72.9367 551.953 79.0832 552.921C85.2271 553.752 91.3056 555.01 97.2743 556.687C103.274 558.283 109.146 560.198 114.955 562.304C120.763 564.41 126.571 566.708 132.252 569.261C132.585 569.466 132.83 569.787 132.942 570.161C133.054 570.536 133.025 570.939 132.859 571.293C132.694 571.647 132.404 571.929 132.045 572.083C131.686 572.238 131.283 572.256 130.912 572.133L130.848 572.452Z" fill="white"/>
<path d="M670.579 592.685C581.219 565.495 413.415 628.491 325.907 647.128C238.398 665.765 65.1687 640.362 111.636 566.069C111.636 566.069 210.952 518.519 239.292 467.012C242.893 461.393 245.246 455.066 246.193 448.46C247.14 441.854 246.658 435.121 244.781 428.717C223.399 366.04 110.104 282.556 111.572 189.434C111.572 188.668 111.572 187.903 111.572 187.137C115.657 73.3994 231.76 10.9779 337.843 1.27643C404.543 -4.72317 467.286 10.0844 496.009 45.9544C570.241 139.14 596.091 125.992 632.793 109.78C669.494 93.5683 740.726 83.3562 770.279 133.906C773.747 139.821 776.674 146.037 779.023 152.479C795.746 198.115 777.938 248.218 720.556 302.278C678.94 341.595 674.536 396.931 690.557 443.333C695.043 456.553 701.245 469.128 709.004 480.735C716.141 491.446 724.734 501.112 734.535 509.456C787.385 553.815 760.194 619.938 670.579 592.685Z" fill="url(#paint3_linear_2_930)"/>
<path style="mix-blend-mode:overlay" opacity="0.5" d="M670.579 592.685C581.219 565.495 413.415 628.491 325.907 647.128C238.398 665.765 65.1687 640.362 111.636 566.069C111.636 566.069 265.717 492.415 244.59 428.972C223.463 365.529 108.508 281.152 111.636 187.137C115.657 73.3993 231.76 10.9779 337.843 1.27637C285.248 120.184 287.929 254.154 396.501 262.961C505.072 271.769 670.196 47.4861 779.023 152.479C795.746 198.115 777.938 248.218 720.556 302.278C655.196 364.125 681.621 465.225 734.535 509.456C787.448 553.687 760.194 619.938 670.579 592.685Z" fill="url(#paint4_linear_2_930)"/>
<path style="mix-blend-mode:overlay" opacity="0.5" d="M668.983 591.983C580.007 564.793 413.67 627.789 326.545 646.426C239.42 665.063 67.5302 639.66 113.614 565.367C113.614 565.367 266.802 491.713 245.739 428.27C224.675 364.827 112.21 281.854 113.614 188.732C223.399 109.078 322.013 65.485 417.436 189.243C517.647 319.128 547.646 429.866 688.834 442.631C697.208 468.181 712.285 491.016 732.492 508.754C785.087 553.113 757.96 619.109 668.983 591.983Z" fill="url(#paint5_linear_2_930)"/>
<path style="mix-blend-mode:overlay" opacity="0.5" d="M664.962 591.344C577.517 564.155 413.798 627.151 328.332 645.788C242.866 664.425 73.6577 639.022 119.04 564.729C119.04 564.729 216.058 517.179 243.568 465.672C352.523 459.289 393.628 552.092 614.219 494.457C643.146 486.861 672.684 481.82 702.493 479.394C709.431 490.086 717.831 499.754 727.45 508.116C779.023 552.475 752.471 618.598 664.962 591.344Z" fill="url(#paint6_linear_2_930)"/>
<path d="M717.429 595.748C717.429 595.748 745.641 555.921 736.577 530.519C729.638 513.65 718.092 499.074 703.259 488.458C703.259 488.458 696.876 524.072 703.259 534.795C709.642 545.518 721.833 587.196 717.429 595.748Z" fill="#ECF2EF"/>
<path d="M715.833 595.429C716.982 589.047 717.812 582.664 718.514 576.665C719.216 570.665 719.663 563.899 719.791 557.517C720.056 551.129 719.864 544.73 719.216 538.369C718.677 532.082 717.281 525.897 715.067 519.987C714.99 519.887 714.948 519.763 714.948 519.636C714.948 519.509 714.99 519.386 715.067 519.285C715.162 519.196 715.288 519.146 715.418 519.146C715.549 519.146 715.675 519.196 715.769 519.285C718.199 525.249 719.788 531.521 720.493 537.922C721.312 544.272 721.717 550.668 721.705 557.07C721.705 563.453 721.705 569.835 720.94 576.218C720.174 582.6 719.727 588.983 718.769 595.366C718.691 595.8 718.449 596.189 718.092 596.45C717.736 596.711 717.293 596.826 716.855 596.77C716.637 596.74 716.429 596.665 716.242 596.55C716.054 596.436 715.893 596.284 715.767 596.104C715.641 595.925 715.554 595.721 715.511 595.506C715.467 595.291 715.468 595.069 715.514 594.855L715.833 595.429Z" fill="white"/>
<path d="M763.258 616.683C750.045 611.386 745.577 605.003 745.003 598.238C744.428 591.472 747.109 588.792 746.088 583.047C745.067 577.303 738.62 573.665 741.045 561.857C743.471 550.049 760.194 545.582 760.641 547.496C761.087 549.411 751.705 555.858 753.492 561.602C755.279 567.346 753.109 569.133 756.492 567.282C759.875 565.431 756.492 562.815 759.619 557.326C762.253 554.498 765.494 552.305 769.099 550.912C772.703 549.519 776.577 548.962 780.427 549.283C784.193 550.879 775.002 552.794 774.045 559.496C773.087 566.197 774.045 569.325 777.172 567.665C780.3 566.006 782.151 548.518 789.938 551.326C797.725 554.134 803.086 558.602 799.193 560.006C795.299 561.41 788.597 563.197 789.938 566.389C791.278 569.58 793.959 569.197 797.278 565.623C800.597 562.049 801.682 557.836 804.81 558.794C807.937 559.751 828.682 571.048 825.618 576.601C822.554 582.154 812.405 596.387 809.214 596.77C806.023 597.153 805.065 588.153 800.916 588.281C796.767 588.409 793.257 590.898 800.406 595.685C807.554 600.472 811.193 604.812 801.81 606.727C798.449 607.337 794.982 606.892 791.884 605.452C788.787 604.012 786.211 601.648 784.512 598.685C781.513 594.983 775.64 595.812 778.704 599.068C781.768 602.323 794.087 609.343 791.917 611.833C789.746 614.322 772.64 620.449 763.258 616.683Z" fill="url(#paint7_linear_2_930)"/>
<path d="M715.769 597.089C715.688 596.959 715.634 596.815 715.609 596.664C715.584 596.513 715.59 596.359 715.626 596.211C715.661 596.062 715.726 595.922 715.817 595.799C715.907 595.676 716.021 595.572 716.152 595.493C748.066 576.346 784.895 575.197 813.49 576.346C813.789 576.377 814.066 576.519 814.267 576.743C814.467 576.967 814.577 577.258 814.576 577.558C814.559 577.869 814.424 578.161 814.199 578.375C813.973 578.589 813.674 578.708 813.363 578.707C785.151 577.367 748.705 578.26 717.62 597.28C717.508 597.43 717.359 597.549 717.187 597.624C717.015 597.699 716.827 597.728 716.641 597.709C716.454 597.689 716.276 597.622 716.123 597.514C715.971 597.405 715.849 597.259 715.769 597.089Z" fill="white"/>
<path d="M222.25 204.242V172.329C222.25 171.923 222.088 171.533 221.801 171.246C221.514 170.959 221.124 170.797 220.718 170.797H219.76C219.354 170.797 218.965 170.959 218.677 171.246C218.39 171.533 218.229 171.923 218.229 172.329V204.242C217.25 204.53 216.39 205.127 215.778 205.943C215.167 206.76 214.837 207.753 214.837 208.774C214.837 209.794 215.167 210.787 215.778 211.604C216.39 212.421 217.25 213.018 218.229 213.305V219.688C218.229 220.094 218.39 220.484 218.677 220.771C218.965 221.058 219.354 221.22 219.76 221.22H220.718C221.124 221.22 221.514 221.058 221.801 220.771C222.088 220.484 222.25 220.094 222.25 219.688V213.305C223.229 213.018 224.088 212.421 224.7 211.604C225.311 210.787 225.642 209.794 225.642 208.774C225.642 207.753 225.311 206.76 224.7 205.943C224.088 205.127 223.229 204.53 222.25 204.242Z" fill="#01B9FF"/>
<path d="M241.781 185.094V172.776C241.781 172.37 241.62 171.98 241.333 171.693C241.045 171.406 240.656 171.244 240.249 171.244H239.292C238.886 171.244 238.496 171.406 238.209 171.693C237.921 171.98 237.76 172.37 237.76 172.776V185.094C236.812 185.432 235.986 186.043 235.384 186.849C234.782 187.655 234.432 188.621 234.377 189.626C234.44 190.628 234.793 191.59 235.394 192.395C235.995 193.2 236.817 193.812 237.76 194.158V219.688C237.76 220.094 237.921 220.484 238.209 220.771C238.496 221.058 238.886 221.22 239.292 221.22H240.249C240.656 221.22 241.045 221.058 241.333 220.771C241.62 220.484 241.781 220.094 241.781 219.688V194.158C242.717 193.809 243.53 193.195 244.12 192.389C244.71 191.584 245.051 190.623 245.1 189.626C245.059 188.627 244.721 187.662 244.13 186.855C243.539 186.048 242.722 185.435 241.781 185.094Z" fill="#01B9FF"/>
<path d="M264.632 200.221C264.577 199.216 264.227 198.25 263.625 197.444C263.023 196.638 262.196 196.027 261.249 195.689V172.776C261.249 172.575 261.209 172.376 261.132 172.19C261.055 172.004 260.942 171.835 260.8 171.693C260.658 171.551 260.489 171.438 260.303 171.361C260.117 171.284 259.918 171.244 259.717 171.244H258.76C258.353 171.244 257.964 171.406 257.676 171.693C257.389 171.98 257.228 172.37 257.228 172.776V195.689C256.283 196.023 255.46 196.634 254.868 197.442C254.276 198.251 253.941 199.219 253.909 200.221C253.958 201.218 254.299 202.179 254.889 202.984C255.479 203.79 256.292 204.404 257.228 204.753V219.688C257.228 220.094 257.389 220.484 257.676 220.771C257.964 221.058 258.353 221.22 258.76 221.22H259.717C259.918 221.22 260.117 221.18 260.303 221.103C260.489 221.026 260.658 220.913 260.8 220.771C260.942 220.629 261.055 220.46 261.132 220.274C261.209 220.088 261.249 219.889 261.249 219.688V204.753C262.192 204.407 263.014 203.795 263.615 202.99C264.216 202.186 264.569 201.223 264.632 200.221Z" fill="#01B9FF"/>
<path d="M494.924 25.5303V36.8274C494.89 38.9322 494.026 40.9385 492.52 42.409C491.013 43.8795 488.987 44.6951 486.882 44.6779H427.968C425.846 44.678 423.81 43.8395 422.304 42.3451C420.797 40.8507 419.943 38.8215 419.926 36.6997V25.5303C419.863 24.9789 419.863 24.4222 419.926 23.8708C420.295 22.0633 421.279 20.4396 422.71 19.2759C424.141 18.1122 425.932 17.4805 427.777 17.4882H486.69C487.764 17.4538 488.835 17.6368 489.837 18.0263C490.839 18.4159 491.752 19.0038 492.521 19.7549C493.29 20.506 493.899 21.4048 494.312 22.3972C494.725 23.3897 494.933 24.4554 494.924 25.5303Z" fill="#01B9FF"/>
<path d="M443.606 23.9983H427.84V26.9981H443.606V23.9983Z" fill="white"/>
<path d="M485.541 31.2107H427.84V34.9126H485.541V31.2107Z" fill="white"/>
<path d="M485.541 37.0188H427.84V40.7207H485.541V37.0188Z" fill="white"/>
<path style="mix-blend-mode:overlay" opacity="0.5" d="M494.924 25.5301V36.8273C494.89 38.9321 494.026 40.9384 492.52 42.4089C491.013 43.8794 488.987 44.6949 486.881 44.6778H427.968C425.846 44.6779 423.81 43.8394 422.304 42.345C420.797 40.8506 419.943 38.8214 419.926 36.6996V25.5301C419.863 24.9787 419.863 24.422 419.926 23.8707H422.16C423.996 23.8689 425.83 23.9969 427.649 24.2536C430.71 24.7569 433.693 25.6581 436.521 26.9343C437.478 27.3172 438.372 27.8278 439.266 28.2746L444.053 31.1468C445.619 32.0962 447.319 32.8061 449.095 33.253C451.023 33.5087 452.976 33.5087 454.904 33.253C457.286 33.253 459.648 32.9977 461.988 32.4871C464.164 32.2389 466.306 31.7465 468.371 31.0191C468.993 30.8301 469.593 30.5732 470.159 30.2532C471.416 29.6581 472.54 28.8138 473.461 27.7716C474.383 26.7293 475.083 25.5108 475.52 24.1898C475.776 22.7543 475.776 21.2851 475.52 19.8496C475.346 19.0209 475.045 18.2242 474.626 17.4881H486.626C487.706 17.4448 488.783 17.6213 489.793 18.0069C490.802 18.3924 491.723 18.979 492.498 19.731C493.274 20.483 493.889 21.3848 494.306 22.3816C494.723 23.3785 494.933 24.4496 494.924 25.5301Z" fill="url(#paint8_linear_2_930)"/>
<path d="M141.826 114.248H190.463C192.156 114.248 193.78 114.92 194.977 116.117C196.174 117.314 196.846 118.938 196.846 120.63V129.821C196.846 131.514 196.174 133.137 194.977 134.334C193.78 135.531 192.156 136.204 190.463 136.204H141.826C140.133 136.204 138.51 135.531 137.313 134.334C136.116 133.137 135.443 131.514 135.443 129.821V120.822C135.418 119.968 135.564 119.117 135.873 118.321C136.182 117.524 136.649 116.798 137.244 116.184C137.839 115.571 138.551 115.084 139.339 114.751C140.126 114.419 140.972 114.247 141.826 114.248Z" fill="#1084FF"/>
<path d="M154.783 119.418H141.762V121.907H154.783V119.418Z" fill="white"/>
<path d="M189.378 125.417H141.762V131.481H189.378V125.417Z" fill="white"/>
<path style="mix-blend-mode:overlay" opacity="0.5" d="M197.102 120.822V130.013C197.102 131.706 196.429 133.329 195.232 134.526C194.035 135.723 192.412 136.395 190.719 136.395H141.826C140.133 136.395 138.51 135.723 137.313 134.526C136.116 133.329 135.443 131.706 135.443 130.013V122.098C136.357 122.035 137.274 122.035 138.188 122.098C143.344 121.808 148.515 122.195 153.571 123.247C156.251 123.949 158.805 124.971 161.549 125.545C164.823 126.214 168.168 126.472 171.506 126.311C173.661 126.305 175.805 126.026 177.889 125.481C178.648 125.278 179.377 124.978 180.059 124.588C181.504 123.786 182.733 122.648 183.645 121.271C184.556 119.893 185.121 118.316 185.293 116.673C185.39 115.889 185.39 115.096 185.293 114.312H190.272C191.158 114.249 192.047 114.372 192.882 114.673C193.718 114.974 194.482 115.446 195.124 116.059C195.767 116.671 196.275 117.412 196.615 118.232C196.956 119.052 197.121 119.934 197.102 120.822Z" fill="url(#paint9_linear_2_930)"/>
<path d="M372.501 182.094V184.201L370.204 204.689C369.91 207.154 368.962 209.495 367.458 211.471C365.954 213.446 363.949 214.983 361.651 215.922C361.492 217.05 360.907 218.075 360.017 218.787C359.128 219.499 357.999 219.844 356.863 219.752H351.374C350.238 219.844 349.11 219.499 348.22 218.787C347.33 218.075 346.746 217.05 346.587 215.922V215.156C344.612 214.105 342.919 212.593 341.652 210.749C340.386 208.905 339.582 206.782 339.311 204.561V202.008L337.524 181.967L372.501 182.094Z" fill="#1084FF"/>
<path style="mix-blend-mode:overlay" opacity="0.5" d="M372.501 184.201L370.65 204.689C370.356 207.145 369.415 209.479 367.923 211.452C366.432 213.426 364.444 214.968 362.161 215.922C362.017 217.045 361.446 218.07 360.566 218.783C359.687 219.496 358.566 219.843 357.438 219.752H351.949C350.806 219.846 349.669 219.503 348.769 218.792C347.869 218.081 347.272 217.056 347.098 215.922V215.156C345.105 214.127 343.398 212.621 342.128 210.773C340.859 208.924 340.066 206.79 339.821 204.561V202.008C340.535 202.094 341.228 202.31 341.864 202.646C345.468 204.482 349.255 205.937 353.161 206.986C355.138 207.473 357.221 207.27 359.067 206.411C360.912 205.552 362.409 204.089 363.31 202.263C363.714 200.572 363.865 198.829 363.757 197.093C363.859 193.553 365.165 190.154 367.459 187.456C368.827 185.95 370.566 184.828 372.501 184.201Z" fill="url(#paint10_linear_2_930)"/>
<path d="M385.522 165.947C385.529 171.02 384.265 176.015 381.846 180.474C379.426 184.934 375.929 188.716 371.672 191.477C369.155 193.14 366.4 194.41 363.502 195.243C360.743 196.043 357.885 196.451 355.012 196.455C348.38 196.454 341.926 194.309 336.612 190.341C331.298 186.373 327.409 180.794 325.524 174.435C324.871 172.365 324.485 170.221 324.375 168.053C324.375 167.287 324.375 166.393 324.375 165.564C324.335 161.144 325.318 156.775 327.247 152.799C329.688 147.528 333.589 143.067 338.487 139.945C343.385 136.822 349.076 135.17 354.885 135.183C358.983 135.145 363.046 135.948 366.821 137.544C372.395 139.902 377.146 143.858 380.474 148.913C383.803 153.967 385.559 159.895 385.522 165.947Z" fill="#01B9FF"/>
<path d="M332.353 158.862H331.907C331.766 158.82 331.637 158.749 331.526 158.653C331.416 158.557 331.328 158.439 331.267 158.306C331.207 158.172 331.175 158.028 331.176 157.882C331.176 157.735 331.207 157.591 331.268 157.458C332.686 153.468 335.104 149.908 338.289 147.118C338.504 146.911 338.79 146.796 339.087 146.796C339.385 146.796 339.671 146.911 339.885 147.118C339.994 147.214 340.081 147.332 340.14 147.464C340.2 147.596 340.231 147.739 340.231 147.884C340.231 148.029 340.2 148.172 340.14 148.304C340.081 148.436 339.994 148.554 339.885 148.65C337.009 151.171 334.814 154.376 333.502 157.968C333.443 158.227 333.297 158.457 333.087 158.62C332.878 158.783 332.619 158.869 332.353 158.862Z" fill="white"/>
<path d="M342.63 146.288C342.44 146.289 342.254 146.242 342.087 146.153C341.92 146.064 341.778 145.935 341.672 145.778C341.591 145.648 341.537 145.504 341.512 145.353C341.487 145.202 341.493 145.048 341.529 144.899C341.564 144.751 341.629 144.611 341.72 144.488C341.81 144.364 341.924 144.261 342.055 144.182C343.613 143.271 345.26 142.523 346.97 141.948C347.249 141.855 347.554 141.877 347.818 142.008C348.081 142.14 348.281 142.371 348.374 142.65C348.467 142.929 348.446 143.234 348.314 143.498C348.182 143.761 347.952 143.961 347.672 144.054C346.098 144.561 344.596 145.269 343.204 146.161L342.63 146.288Z" fill="white"/>
<path style="mix-blend-mode:overlay" opacity="0.5" d="M385.522 165.947C385.529 171.02 384.265 176.015 381.846 180.474C379.426 184.934 375.928 188.716 371.672 191.477C369.155 193.14 366.4 194.41 363.502 195.243C360.743 196.043 357.885 196.451 355.012 196.455C348.38 196.454 341.926 194.309 336.612 190.341C331.298 186.373 327.409 180.794 325.524 174.435C324.871 172.365 324.485 170.221 324.375 168.053C325.651 168.755 326.8 169.585 328.013 170.351C333.302 173.73 339.365 175.707 345.63 176.095C347.762 176.249 349.906 176.142 352.012 175.776C356.194 175.157 360.118 173.375 363.335 170.632C366.551 167.89 368.932 164.297 370.204 160.266C371.034 156.202 371.034 152.012 370.204 147.948C369.848 145.091 369.163 142.285 368.161 139.587C367.856 138.93 367.515 138.291 367.14 137.672C372.634 140.07 377.304 144.026 380.572 149.052C383.839 154.078 385.561 159.952 385.522 165.947Z" fill="url(#paint11_linear_2_930)"/>
<path d="M836.149 496.691H599.985C595.593 496.61 591.37 494.987 588.055 492.104C584.741 489.221 582.547 485.264 581.858 480.926L580.326 469.693L574.773 428.461L568.965 384.741L557.348 298.257L555.305 284.535L552.369 262.898L551.22 254.217L540.88 175.329C540.88 174.627 540.88 173.925 540.88 173.223C540.862 171.402 541.212 169.597 541.908 167.915C542.604 166.233 543.633 164.709 544.932 163.434C546.231 162.158 547.774 161.158 549.469 160.493C551.163 159.829 552.975 159.512 554.795 159.564H790.959C795.355 159.72 799.564 161.386 802.877 164.28C806.19 167.174 808.405 171.121 809.15 175.457L813.554 208.072L850.064 481.054C850.365 483.03 850.228 485.048 849.66 486.964C849.093 488.881 848.109 490.648 846.781 492.142C845.452 493.635 843.811 494.817 841.973 495.603C840.135 496.389 838.147 496.761 836.149 496.691Z" fill="#01B9FF"/>
<path d="M803.342 183.116L798.618 204.689L747.237 437.205L745.705 444.864L744.109 452.141L738.811 476.075L735.109 492.734C734.786 494.079 734.315 495.385 733.705 496.627C732.048 500.106 729.484 503.074 726.283 505.219C723.082 507.364 719.362 508.607 715.514 508.818H479.35C477.354 508.887 475.369 508.486 473.556 507.649C471.743 506.811 470.151 505.56 468.91 503.996C467.668 502.431 466.811 500.597 466.407 498.641C466.003 496.685 466.064 494.662 466.584 492.734L495.562 360.359L501.945 333.106L510.37 294.81L515.859 269.918L535.008 183.626C535.787 179.828 537.702 176.356 540.497 173.669C542.332 171.778 544.523 170.269 546.944 169.228C549.365 168.188 551.968 167.636 554.603 167.606H790.767C792.686 167.59 794.583 168.006 796.319 168.825C798.054 169.643 799.583 170.841 800.791 172.332C801.999 173.822 802.856 175.565 803.298 177.432C803.739 179.299 803.754 181.242 803.342 183.116Z" fill="#F0EFF4"/>
<path d="M589.134 264.238H556.582C555.679 264.271 554.782 264.091 553.962 263.712C553.142 263.333 552.424 262.766 551.864 262.057C551.304 261.348 550.92 260.517 550.741 259.632C550.563 258.747 550.596 257.832 550.837 256.962L558.05 224.347C558.535 222.317 559.671 220.501 561.284 219.176C562.898 217.851 564.9 217.089 566.986 217.007H599.538C600.44 216.971 601.337 217.149 602.156 217.528C602.974 217.908 603.691 218.476 604.246 219.187C604.801 219.898 605.179 220.732 605.348 221.618C605.518 222.504 605.473 223.418 605.219 224.283L598.07 256.962C597.563 258.975 596.42 260.771 594.81 262.082C593.199 263.394 591.209 264.15 589.134 264.238Z" fill="#08194F"/>
<path d="M708.493 234.495H639.558C638.657 234.532 637.76 234.353 636.941 233.974C636.122 233.595 635.406 233.026 634.851 232.315C634.295 231.604 633.918 230.771 633.748 229.885C633.579 228.999 633.624 228.085 633.878 227.219C634.373 225.194 635.511 223.384 637.123 222.06C638.734 220.737 640.731 219.972 642.814 219.879H711.684C712.589 219.854 713.486 220.042 714.304 220.429C715.122 220.816 715.837 221.39 716.39 222.106C716.944 222.821 717.321 223.657 717.49 224.546C717.66 225.434 717.617 226.35 717.365 227.219C716.88 229.233 715.751 231.033 714.15 232.346C712.549 233.659 710.562 234.414 708.493 234.495Z" fill="#01B9FF"/>
<path d="M756.173 260.025H633.942C633.037 260.051 632.14 259.863 631.322 259.476C630.504 259.089 629.789 258.515 629.236 257.799C628.682 257.084 628.305 256.248 628.136 255.359C627.966 254.471 628.009 253.554 628.261 252.686C628.756 250.66 629.895 248.85 631.506 247.527C633.117 246.203 635.114 245.438 637.197 245.346H759.556C760.46 245.32 761.357 245.508 762.175 245.895C762.993 246.282 763.708 246.856 764.261 247.572C764.815 248.287 765.192 249.123 765.361 250.012C765.531 250.901 765.488 251.817 765.236 252.686C764.726 254.726 763.565 256.546 761.931 257.869C760.296 259.193 758.275 259.95 756.173 260.025Z" fill="#08194F"/>
<path d="M652.26 384.741H529.774C528.865 384.777 527.959 384.596 527.133 384.214C526.307 383.831 525.584 383.258 525.023 382.541C524.462 381.825 524.079 380.985 523.907 380.091C523.734 379.197 523.776 378.275 524.03 377.401L539.923 305.533C540.423 303.505 541.574 301.695 543.199 300.382C544.824 299.068 546.834 298.322 548.923 298.257H671.09C671.996 298.21 672.901 298.381 673.728 298.756C674.555 299.13 675.281 299.698 675.843 300.41C676.406 301.123 676.789 301.96 676.962 302.851C677.134 303.743 677.091 304.662 676.834 305.533L661.005 377.401C660.519 379.396 659.409 381.185 657.836 382.505C656.263 383.825 654.31 384.609 652.26 384.741Z" fill="#08194F"/>
<path d="M707.472 469.693H511.328C510.418 469.729 509.513 469.548 508.687 469.166C507.861 468.783 507.138 468.21 506.576 467.493C506.015 466.776 505.633 465.936 505.46 465.043C505.287 464.149 505.33 463.227 505.583 462.353L511.455 435.801C511.95 433.776 513.089 431.966 514.7 430.642C516.311 429.319 518.308 428.554 520.391 428.461H716.535C717.444 428.421 718.349 428.6 719.174 428.983C719.999 429.365 720.721 429.94 721.277 430.66C721.834 431.379 722.21 432.221 722.373 433.116C722.537 434.011 722.483 434.932 722.216 435.801L716.408 462.353C715.903 464.373 714.762 466.178 713.153 467.5C711.544 468.821 709.552 469.59 707.472 469.693Z" fill="#08194F"/>
<path d="M739.769 323.085H698.408C697.494 323.136 696.582 322.965 695.748 322.587C694.914 322.209 694.184 321.635 693.62 320.914C693.056 320.194 692.675 319.347 692.508 318.447C692.341 317.547 692.395 316.62 692.664 315.745L694.961 305.533C695.459 303.515 696.6 301.713 698.212 300.4C699.824 299.088 701.82 298.335 703.897 298.257H745.258C746.16 298.221 747.057 298.399 747.875 298.778C748.694 299.158 749.411 299.726 749.966 300.437C750.521 301.148 750.899 301.982 751.068 302.868C751.237 303.754 751.193 304.668 750.939 305.533L748.705 315.745C748.21 317.771 747.071 319.581 745.46 320.904C743.849 322.228 741.852 322.993 739.769 323.085Z" fill="#08194F"/>
<path d="M726.173 384.741H684.813C683.903 384.777 682.998 384.596 682.172 384.214C681.346 383.831 680.623 383.258 680.062 382.541C679.501 381.824 679.118 380.984 678.945 380.091C678.772 379.197 678.815 378.275 679.068 377.401L688.132 336.361C688.639 334.347 689.782 332.551 691.393 331.24C693.003 329.929 694.993 329.173 697.068 329.085H738.428C739.335 329.038 740.24 329.209 741.067 329.583C741.894 329.958 742.619 330.525 743.182 331.238C743.745 331.95 744.128 332.787 744.301 333.679C744.473 334.57 744.429 335.49 744.173 336.361L735.109 377.401C734.614 379.426 733.476 381.236 731.865 382.56C730.253 383.883 728.256 384.648 726.173 384.741Z" fill="#01B9FF"/>
<path style="mix-blend-mode:overlay" opacity="0.5" d="M849.809 480.926C850.139 482.888 850.031 484.9 849.492 486.815C848.953 488.731 847.995 490.503 846.689 492.004C845.383 493.506 843.76 494.699 841.938 495.498C840.116 496.298 838.139 496.683 836.149 496.627H734.024C732.367 500.106 729.803 503.074 726.602 505.219C723.401 507.365 719.681 508.608 715.833 508.818H479.669C477.673 508.887 475.688 508.487 473.875 507.649C472.062 506.812 470.47 505.56 469.229 503.996C467.987 502.432 467.13 500.598 466.726 498.642C466.322 496.686 466.383 494.662 466.903 492.734L495.881 360.36L502.264 333.106L510.689 294.811L516.179 269.919C528.306 274.067 538.518 277.961 547.327 281.471C550.071 282.492 552.816 283.641 555.369 284.662C585.305 296.47 598.07 299.981 628.069 275.471C634.133 270.748 640.388 265.515 647.218 260.026C654.048 254.537 659.537 250.197 666.366 245.282C671.409 241.772 676.706 238.07 682.004 234.495C690.229 229.121 698.753 224.22 707.536 219.816C735.558 205.275 767.465 199.98 798.682 204.689C803.405 205.519 808.32 206.667 813.363 208.072L849.809 480.926Z" fill="url(#paint12_linear_2_930)"/>
<path d="M759.813 504.219C775.966 488.067 775.966 461.88 759.813 445.729C743.661 429.577 717.473 429.577 701.32 445.729C685.168 461.88 685.168 488.067 701.32 504.219C717.473 520.371 743.661 520.371 759.813 504.219Z" fill="#4A1E8E"/>
<path d="M723.365 520.945C746.208 520.945 764.726 502.428 764.726 479.586C764.726 456.744 746.208 438.227 723.365 438.227C700.522 438.227 682.004 456.744 682.004 479.586C682.004 502.428 700.522 520.945 723.365 520.945Z" fill="white"/>
<path d="M715.386 504.924C714.53 504.917 713.686 504.712 712.922 504.324C712.158 503.936 711.494 503.377 710.982 502.691L696.174 482.905C695.633 482.338 695.219 481.662 694.961 480.923C694.703 480.183 694.606 479.397 694.676 478.616C694.747 477.836 694.984 477.08 695.372 476.399C695.759 475.718 696.288 475.128 696.922 474.668C697.557 474.208 698.282 473.89 699.05 473.734C699.818 473.578 700.61 473.588 701.374 473.763C702.137 473.939 702.854 474.276 703.477 474.752C704.099 475.228 704.613 475.831 704.982 476.522L715.323 490.245L740.854 454.311C741.712 453.121 743.005 452.319 744.452 452.08C745.899 451.841 747.382 452.184 748.577 453.034C749.171 453.448 749.676 453.976 750.063 454.587C750.45 455.198 750.71 455.881 750.829 456.595C750.948 457.308 750.923 458.039 750.755 458.743C750.588 459.446 750.281 460.11 749.854 460.693L719.982 502.754C719.474 503.47 718.805 504.056 718.029 504.466C717.253 504.876 716.392 505.099 715.514 505.116L715.386 504.924Z" fill="#1084FF"/>
<path d="M423.755 146.799C423.401 146.804 423.05 146.739 422.721 146.607C422.393 146.476 422.093 146.281 421.841 146.033C421.586 145.783 421.383 145.485 421.245 145.157C421.107 144.828 421.036 144.475 421.036 144.118C421.036 143.761 421.107 143.408 421.245 143.08C421.383 142.751 421.586 142.453 421.841 142.203L441.5 122.545C442.001 122.05 442.678 121.772 443.383 121.772C444.087 121.772 444.764 122.05 445.265 122.545L458.031 135.629L488.924 104.738C489.426 104.243 490.102 103.965 490.807 103.965C491.512 103.965 492.188 104.243 492.69 104.738C492.945 104.987 493.147 105.285 493.285 105.614C493.423 105.943 493.494 106.296 493.494 106.652C493.494 107.009 493.423 107.362 493.285 107.691C493.147 108.02 492.945 108.318 492.69 108.567L460.201 141.374C459.957 141.626 459.665 141.828 459.341 141.965C459.018 142.102 458.67 142.173 458.318 142.173C457.967 142.173 457.619 142.102 457.296 141.965C456.972 141.828 456.68 141.626 456.435 141.374L443.351 128.608L425.606 146.352C425.065 146.722 424.406 146.881 423.755 146.799Z" fill="#1084FF"/>
<path d="M294.439 69.3145V88.4622C294.439 89.8503 293.888 91.1815 292.906 92.163C291.925 93.1445 290.594 93.6959 289.205 93.6959C287.828 93.6791 286.514 93.1203 285.546 92.1406C284.578 91.1609 284.035 89.8393 284.035 88.4622V69.3145C284.035 67.9374 284.578 66.6158 285.546 65.6361C286.514 64.6564 287.828 64.0976 289.205 64.0808C290.594 64.0808 291.925 64.6322 292.906 65.6137C293.888 66.5952 294.439 67.9264 294.439 69.3145Z" fill="#1084FF"/>
<path d="M311.609 82.2074V93.696C311.609 94.3833 311.474 95.0639 311.211 95.6988C310.948 96.3338 310.562 96.9108 310.076 97.3968C309.59 97.8828 309.013 98.2683 308.378 98.5313C307.743 98.7943 307.063 98.9297 306.375 98.9297C305.688 98.9297 305.007 98.7943 304.372 98.5313C303.737 98.2683 303.16 97.8828 302.674 97.3968C302.188 96.9108 301.803 96.3338 301.54 95.6988C301.277 95.0639 301.141 94.3833 301.141 93.696V82.2074C301.075 81.7203 301.075 81.2265 301.141 80.7394C301.521 79.5644 302.304 78.5614 303.352 77.9078C304.399 77.2542 305.644 76.9921 306.867 77.1678C308.089 77.3435 309.21 77.9457 310.031 78.8679C310.852 79.7901 311.321 80.973 311.354 82.2074H311.609Z" fill="#01B9FF"/>
<path d="M328.715 59.1025V88.207C328.715 89.5781 328.17 90.8931 327.201 91.8626C326.231 92.8322 324.916 93.3769 323.545 93.3769C322.174 93.3769 320.859 92.8322 319.889 91.8626C318.92 90.8931 318.375 89.5781 318.375 88.207V59.1025C318.375 57.7314 318.92 56.4164 319.889 55.4468C320.859 54.4773 322.174 53.9326 323.545 53.9326C324.916 53.9326 326.231 54.4773 327.201 55.4468C328.17 56.4164 328.715 57.7314 328.715 59.1025Z" fill="#1084FF"/>
<path d="M345.885 68.1018V93.632C345.893 94.311 345.768 94.9849 345.516 95.6154C345.264 96.2458 344.89 96.8205 344.416 97.3065C343.942 97.7925 343.376 98.1803 342.752 98.4479C342.128 98.7154 341.458 98.8574 340.779 98.8657C339.391 98.8657 338.059 98.3143 337.078 97.3328C336.096 96.3513 335.545 95.0201 335.545 93.632V68.1018C335.562 66.7248 336.12 65.4099 337.1 64.4422C338.08 63.4744 339.402 62.9318 340.779 62.9319C341.455 62.9318 342.124 63.066 342.748 63.3266C343.371 63.5872 343.937 63.969 344.412 64.4499C344.887 64.9308 345.262 65.5013 345.515 66.1282C345.768 66.755 345.893 67.4259 345.885 68.1018Z" fill="#01B9FF"/>
<path style="mix-blend-mode:overlay" opacity="0.5" d="M294.439 75.6971V88.4622C294.439 89.8503 293.888 91.1815 292.906 92.163C291.925 93.1445 290.594 93.6959 289.205 93.6959C287.828 93.6791 286.514 93.1203 285.546 92.1406C284.578 91.1609 284.035 89.8393 284.035 88.4622V73.5908C287.644 73.0248 291.335 73.7722 294.439 75.6971Z" fill="url(#paint13_linear_2_930)"/>
<path style="mix-blend-mode:overlay" opacity="0.5" d="M311.609 85.0156V93.6959C311.609 94.3832 311.474 95.0637 311.211 95.6987C310.948 96.3337 310.562 96.9107 310.076 97.3967C309.59 97.8826 309.013 98.2682 308.378 98.5312C307.743 98.7942 307.063 98.9296 306.375 98.9296C305.688 98.9296 305.007 98.7942 304.372 98.5312C303.737 98.2682 303.16 97.8826 302.674 97.3967C302.188 96.9107 301.803 96.3337 301.54 95.6987C301.277 95.0637 301.141 94.3832 301.141 93.6959V82.2073C301.075 81.7202 301.075 81.2263 301.141 80.7393C305.546 84.2497 308.801 87.2495 311.609 85.0156Z" fill="url(#paint14_linear_2_930)"/>
<path style="mix-blend-mode:overlay" opacity="0.5" d="M328.715 70.2081V88.3346C328.715 89.7057 328.17 91.0207 327.201 91.9902C326.231 92.9598 324.916 93.5044 323.545 93.5044C322.174 93.5044 320.859 92.9598 319.889 91.9902C318.92 91.0207 318.375 89.7057 318.375 88.3346V72.5058C319.793 71.3306 321.47 70.5094 323.268 70.1099C325.066 69.7104 326.933 69.744 328.715 70.2081Z" fill="url(#paint15_linear_2_930)"/>
<path style="mix-blend-mode:overlay" opacity="0.5" d="M345.885 70.5911V93.6959C345.893 94.3749 345.768 95.0488 345.516 95.6793C345.264 96.3097 344.89 96.8844 344.416 97.3704C343.942 97.8564 343.376 98.2442 342.752 98.5118C342.128 98.7793 341.458 98.9213 340.779 98.9296C339.391 98.9296 338.059 98.3782 337.078 97.3967C336.096 96.4152 335.545 95.084 335.545 93.6959V70.974C338.984 71.5142 342.495 71.3841 345.885 70.5911Z" fill="url(#paint16_linear_2_930)"/>
<path d="M441.627 251.345L436.393 270.493L421.266 325.511C420.78 327.14 419.729 328.542 418.302 329.466C416.874 330.391 415.165 330.776 413.479 330.553L301.141 313.511C300.329 313.433 299.545 313.17 298.849 312.743C298.153 312.316 297.565 311.735 297.127 311.045C296.69 310.356 296.416 309.576 296.327 308.764C296.237 307.953 296.334 307.131 296.61 306.363L304.907 275.854L316.843 232.006C317.342 230.389 318.398 229.001 319.824 228.089C321.25 227.178 322.953 226.802 324.63 227.028L437.096 244.452C437.883 244.529 438.643 244.781 439.321 245.189C439.998 245.598 440.576 246.154 441.01 246.815C441.445 247.476 441.726 248.226 441.833 249.01C441.94 249.794 441.869 250.592 441.627 251.345Z" fill="#1084FF"/>
<path d="M371.927 274.45L332.417 268.45L340.077 240.367L379.586 246.367L371.927 274.45Z" fill="white"/>
<path d="M430.457 258.685L390.948 252.686L392.16 248.282L431.67 254.281L430.457 258.685Z" fill="white"/>
<path d="M427.457 269.663L387.948 263.664L389.161 259.323L428.67 265.323L427.457 269.663Z" fill="white"/>
<path d="M424.458 280.705L384.948 274.706L386.161 270.302L425.67 276.365L424.458 280.705Z" fill="white"/>
<path d="M420.372 297.3L328.396 283.258L330.056 277.131L422.032 291.172L420.372 297.3Z" fill="white"/>
<path d="M418.139 305.406L326.162 291.428L327.822 285.301L419.798 299.278L418.139 305.406Z" fill="white"/>
<path d="M383.99 312.299L323.035 303.044L324.694 296.853L385.65 306.172L383.99 312.299Z" fill="white"/>
<path d="M381.756 320.468L320.801 311.15L322.46 305.022L383.416 314.277L381.756 320.468Z" fill="white"/>
<path style="mix-blend-mode:overlay" opacity="0.5" d="M436.393 270.557L421.266 325.511C420.78 327.14 419.729 328.542 418.302 329.466C416.874 330.39 415.165 330.776 413.479 330.553L301.141 313.511C300.329 313.433 299.545 313.17 298.849 312.743C298.153 312.315 297.565 311.735 297.127 311.045C296.69 310.356 296.416 309.576 296.327 308.764C296.237 307.953 296.334 307.131 296.61 306.363L304.907 275.854L306.95 274.705C316.233 269.214 327.079 266.969 337.779 268.323C351.949 271.004 362.672 283.45 376.714 286.705C380.347 287.448 384.048 287.811 387.756 287.79C396.787 288.203 405.82 287.015 414.437 284.279C422.504 281.029 429.937 276.384 436.393 270.557Z" fill="url(#paint17_linear_2_930)"/>
<path d="M365.48 288.492C364.97 289.768 364.395 290.981 363.821 292.194C357.362 306.919 349.563 321.02 340.523 334.318C336.819 339.657 332.27 344.356 327.056 348.232C323.29 350.403 309.439 346.701 296.929 342.233C290.091 339.918 283.416 337.146 276.951 333.936L277.908 322.766L289.269 307.129L320.545 328.255L357.183 283.577L365.48 288.492Z" fill="#F0EFF4"/>
<path d="M357.438 283.258C358.178 280.197 359.293 277.239 360.757 274.45L373.012 268.961C375.948 267.749 377.225 270.748 374.225 271.961L368.225 275.535C369.664 278.264 369.985 281.446 369.118 284.407L365.48 288.492L357.438 283.258Z" fill="#FBD783"/>
<path opacity="0.1" d="M363.821 292.194C357.361 306.919 349.563 321.02 340.523 334.319C336.819 339.657 332.27 344.356 327.056 348.232C323.29 350.403 309.439 346.701 296.929 342.233C301.222 340.58 305.669 339.361 310.205 338.595C343.459 332.595 349.395 309.554 363.821 292.194Z" fill="black"/>
<path opacity="0.1" d="M266.993 612.662C279.649 612.662 289.908 611.062 289.908 609.088C289.908 607.114 279.649 605.514 266.993 605.514C254.338 605.514 244.079 607.114 244.079 609.088C244.079 611.062 254.338 612.662 266.993 612.662Z" fill="black"/>
<path d="M330.822 590.961C330.329 593.091 330.508 595.32 331.332 597.344C332.609 600.982 313.524 602.259 313.524 602.259C312.97 598.904 313.699 595.463 315.567 592.621C317.285 590.357 318.345 587.662 318.63 584.834L330.822 590.961Z" fill="#FBD783"/>
<path d="M301.78 405.931C304.907 453.226 320.928 470.842 320.928 488.904C320.928 506.967 314.545 586.94 314.545 586.94C320.427 590.476 327.45 591.597 334.141 590.068C343.332 545.39 352.076 493.883 351.693 478.628C350.677 452.56 345.948 426.771 337.651 402.038L301.78 405.931Z" fill="#01B9FF"/>
<path d="M312.248 598.685C310.937 600.516 310.135 602.662 309.922 604.904C309.709 607.146 310.093 609.404 311.035 611.45C325.843 611.45 340.268 612.216 354.119 611.45C354.119 606.088 340.013 599.067 332.162 596.897C329.18 598.646 325.848 599.713 322.405 600.022C318.962 600.331 315.493 599.874 312.248 598.685Z" fill="white"/>
<path d="M271.206 583.686C270.3 585.684 270.032 587.912 270.44 590.068C270.951 593.898 251.994 591.281 251.994 591.281C252.138 587.891 253.55 584.679 255.951 582.281C258.109 580.417 259.701 577.984 260.547 575.26L271.206 583.686Z" fill="#FBD783"/>
<path d="M280.844 396.676C274.461 443.652 286.589 464.14 282.887 482.075C279.185 500.01 256.653 576.728 256.653 576.728C261.687 581.367 268.319 583.882 275.163 583.749C293.354 541.88 312.375 493.244 315.12 478.245C319.412 452.592 320.014 426.457 316.907 400.633L280.844 396.676Z" fill="#01B9FF"/>
<path d="M251.483 587.196C249.852 588.713 248.646 590.63 247.985 592.758C247.325 594.885 247.232 597.149 247.717 599.323C262.206 602.514 276.185 605.705 289.908 608.195C290.993 602.961 278.61 593.195 271.334 589.494C268.065 590.63 264.583 591.013 261.146 590.615C257.708 590.218 254.405 589.049 251.483 587.196Z" fill="white"/>
<path d="M343.14 420.164C336.591 423.017 329.539 424.536 322.396 424.632C304.014 425.781 281.163 422.717 275.036 416.526C278.674 368.657 267.568 319.256 281.802 308.022C293.546 301.64 323.928 302.789 341.545 310.639C342.106 310.799 342.643 311.035 343.14 311.341C343.587 317.724 344.034 323.66 344.289 329.659C344.289 332.595 344.672 335.467 344.8 338.403C346.587 371.082 347.034 400.569 343.14 420.164Z" fill="#F0EFF4"/>
<path d="M301.716 304.895C304.038 300.383 305.159 295.349 304.971 290.279H316.588C316.216 295.692 316.756 301.128 318.183 306.363C316.971 308.788 302.865 307.895 301.716 304.895Z" fill="#FBD783"/>
<path d="M302.865 294.938C309.822 298.066 316.779 301.321 321.056 298.449C325.907 292.96 330.375 275.79 330.694 266.089L302.865 264.11V294.938Z" fill="#FBD783"/>
<path d="M298.461 291.109C301.652 293.981 297.503 297.491 307.843 298.831C309.247 298.865 310.641 298.592 311.928 298.03C313.215 297.469 314.364 296.633 315.294 295.581C316.224 294.53 316.913 293.287 317.313 291.941C317.713 290.596 317.814 289.179 317.609 287.79C314.609 285.62 311.226 283.449 311.226 281.024C311.226 278.599 312.311 277.641 314.29 276.875C315.796 278.109 317.016 279.655 317.864 281.407L320.226 278.663L318.439 271.067C324.822 271.833 331.205 272.152 332.481 268.387C333.999 266.304 334.96 263.869 335.273 261.311C335.586 258.753 335.24 256.157 334.268 253.771C331.192 255.173 327.851 255.899 324.471 255.899C321.09 255.899 317.749 255.173 314.673 253.771C308.29 251.92 301.205 259.323 296.865 262.387C289.397 268.068 287.865 281.343 298.461 291.109Z" fill="#2A195B"/>
<path opacity="0.1" d="M352.459 607.939C341.998 609.473 331.332 607.209 322.396 601.556C322.049 601.243 321.786 600.848 321.63 600.407C320.993 597.101 321.258 593.684 322.396 590.514C322.396 589.557 322.843 588.536 323.098 587.387C329.613 566.657 334.983 545.584 339.183 524.264C346.396 482.33 337.651 444.035 322.46 425.015H323.226C326.898 424.903 330.551 424.454 334.141 423.674C337.28 422.941 340.338 421.893 343.268 420.547C348.246 439.56 351.156 459.054 351.949 478.692C352.395 493.946 343.651 545.454 334.332 590.195C333.204 590.589 332.016 590.784 330.822 590.77C330.341 592.895 330.497 595.115 331.268 597.152L332.098 596.706C339.689 598.76 346.673 602.614 352.459 607.939Z" fill="black"/>
<path opacity="0.1" d="M315.886 471.352C315.503 473.778 315.12 476.139 314.737 478.182C312.056 493.181 292.971 542.007 274.844 583.749C273.614 583.878 272.373 583.878 271.142 583.749C270.32 585.77 270.056 587.974 270.376 590.132H271.334C278.203 593.661 284.183 598.702 288.823 604.875C278.802 603.025 264.823 597.855 261.887 592.493C261.657 592.147 261.504 591.755 261.44 591.344C261.183 590.6 261.183 589.791 261.44 589.047C261.887 588.089 262.972 585.664 264.376 582.281C264.799 581.435 265.161 580.561 265.461 579.664C275.355 556.559 299.354 499.882 303.758 484.437C308.801 466.821 309.248 457.949 303.758 444.801C309.051 453.025 313.136 461.967 315.886 471.352Z" fill="black"/>
<path d="M353.927 367.253C346.523 367.253 322.396 332.914 316.779 323.404L324.758 320.086L342.566 312.746L358.523 346.956L413.032 327.17L417.436 335.914C403.392 346.103 388.435 354.97 372.757 362.402C366.782 365.021 360.424 366.659 353.927 367.253Z" fill="#F0EFF4"/>
<path d="M417.564 335.659C417.564 335.659 425.032 332.148 426.117 327.298C427.585 320.915 427.84 315.618 424.394 314.533C420.947 313.448 420.309 324.936 418.841 324.043C417.373 323.149 418.841 320.787 417.245 320.341C415.649 319.894 413.224 326.723 413.224 326.723L417.564 335.659Z" fill="#FBD783"/>
<path opacity="0.1" d="M408.501 341.914C397.146 349.693 385.145 356.483 372.629 362.21C366.751 364.883 360.478 366.586 354.055 367.253C350.825 366.253 347.975 364.294 345.885 361.636C347.087 381.181 346.231 400.798 343.332 420.164C336.768 423.04 329.69 424.56 322.524 424.632C326.664 417.364 331.269 410.371 336.311 403.697C344.736 391.889 341.417 367.38 338.672 353.594C337.524 347.977 336.502 344.148 336.375 343.637C338.563 347.898 341.763 351.558 345.694 354.296C359.48 363.359 380.033 353.849 408.501 341.914Z" fill="black"/>
<path d="M426.628 293.598L429.564 296.406C440.915 307.795 453.31 318.095 466.584 327.17C471.948 330.806 477.88 333.524 484.137 335.212C488.477 335.85 499.966 327.362 510.051 318.681C515.549 313.987 520.75 308.956 525.625 303.618L482.796 314.15L432.372 285.62L426.628 293.598Z" fill="#1084FF"/>
<path d="M432.372 285.556C430.577 282.971 428.428 280.651 425.989 278.663L412.586 277.96C409.394 277.96 409.33 281.216 412.586 281.279L419.415 282.364C419.1 285.45 419.992 288.538 421.904 290.981L426.755 293.47L432.372 285.556Z" fill="#FBD783"/>
<path opacity="0.1" d="M429.564 296.279C440.915 307.667 453.31 317.967 466.584 327.043C471.948 330.678 477.88 333.396 484.137 335.085C488.477 335.723 499.966 327.234 510.051 318.554C505.441 318.546 500.842 319.016 496.328 319.958C463.201 326.468 449.287 307.193 429.564 296.279Z" fill="black"/>
<path opacity="0.1" d="M547.008 606.663C559.663 606.663 569.922 605.062 569.922 603.088C569.922 601.114 559.663 599.514 547.008 599.514C534.353 599.514 524.093 601.114 524.093 603.088C524.093 605.062 534.353 606.663 547.008 606.663Z" fill="black"/>
<path d="M483.179 584.962C483.672 587.091 483.493 589.321 482.669 591.345C481.392 595.046 500.477 596.323 500.477 596.323C501.031 592.968 500.302 589.527 498.434 586.685C496.716 584.421 495.656 581.726 495.371 578.898L483.179 584.962Z" fill="#FBD783"/>
<path d="M512.221 399.995C509.094 447.29 493.073 464.842 493.073 482.969C493.073 501.095 499.456 581.005 499.456 581.005C493.574 584.54 486.551 585.661 479.86 584.132C470.669 539.454 461.925 487.947 462.308 472.693C463.31 446.623 468.039 420.831 476.35 396.102L512.221 399.995Z" fill="white"/>
<path d="M501.753 592.685C503.064 594.516 503.866 596.662 504.079 598.904C504.292 601.146 503.908 603.404 502.966 605.45C488.158 605.45 473.733 606.152 459.882 605.45C459.882 600.152 473.988 593.068 481.839 590.898C484.811 592.672 488.145 593.754 491.592 594.064C495.04 594.373 498.513 593.902 501.753 592.685Z" fill="white"/>
<path d="M542.54 577.75C543.446 579.748 543.713 581.977 543.306 584.132C542.795 587.962 561.752 585.345 561.752 585.345C561.599 581.938 560.189 578.709 557.795 576.282C555.637 574.417 554.045 571.985 553.199 569.261L542.54 577.75Z" fill="#FBD783"/>
<path d="M533.476 390.74C539.859 437.652 527.731 458.204 531.434 476.075C535.136 493.946 557.667 570.729 557.667 570.729C552.643 575.391 546.01 577.929 539.157 577.813C520.966 536.135 501.945 487.309 499.2 472.31C494.911 446.656 494.309 420.521 497.413 394.698L533.476 390.74Z" fill="white"/>
<path d="M562.518 581.515C564.149 583.032 565.355 584.95 566.016 587.077C566.676 589.205 566.769 591.468 566.284 593.642C551.795 596.833 537.816 600.025 524.093 602.514C523.008 597.28 535.391 587.515 542.667 583.749C545.931 584.895 549.411 585.289 552.848 584.902C556.285 584.515 559.591 583.358 562.518 581.515Z" fill="white"/>
<path d="M538.965 410.59C532.583 416.973 509.987 419.845 491.669 418.696C484.508 418.575 477.44 417.057 470.861 414.228C467.988 399.931 470.861 350.02 473.286 323.787C474.116 314.022 474.754 307.512 474.946 307.384C492.498 299.534 520.391 295.959 532.391 302.278C546.433 313.32 535.327 362.721 538.965 410.59Z" fill="#1084FF"/>
<path d="M512.285 298.895C509.963 294.406 508.841 289.393 509.03 284.343H497.413C497.795 289.798 497.256 295.279 495.817 300.555C497.03 302.789 511.136 301.895 512.285 298.895Z" fill="#FBD783"/>
<path d="M511.136 289.002C504.179 292.13 497.222 295.385 492.945 292.449C488.094 287.024 483.626 269.791 483.307 260.153L511.136 258.175V289.002Z" fill="#FBD783"/>
<path d="M517.583 288.428C514.455 291.3 516.498 291.619 506.158 292.832C504.757 292.875 503.364 292.611 502.077 292.057C500.79 291.503 499.64 290.673 498.708 289.626C497.777 288.579 497.087 287.34 496.686 285.997C496.286 284.654 496.186 283.24 496.392 281.854C499.392 279.684 502.775 277.45 502.775 275.025C502.775 272.599 501.69 271.706 499.711 270.94C498.219 272.161 497.001 273.684 496.137 275.408L493.775 272.727L495.562 265.068C489.179 265.898 481.584 267.493 480.18 263.727C478.839 261.307 478.1 258.601 478.022 255.836C477.944 253.07 478.531 250.327 479.733 247.835C489.371 239.155 500.477 244.388 506.541 247.835C512.923 245.984 516.434 251.601 520.774 254.664C528.242 260.6 528.178 278.663 517.583 288.428Z" fill="#2A195B"/>
<path opacity="0.1" d="M461.542 602.003C472.009 603.428 482.639 601.025 491.477 595.238C491.836 594.962 492.104 594.584 492.243 594.153C492.892 590.825 492.627 587.385 491.477 584.196C491.477 583.239 491.03 582.153 490.775 581.068C484.268 560.336 478.899 539.263 474.69 517.945C467.478 476.011 476.222 437.716 491.413 418.696H490.839C487.167 418.584 483.514 418.135 479.924 417.356C476.785 416.622 473.727 415.574 470.797 414.228C465.761 433.405 462.829 453.073 462.052 472.884C461.605 488.138 470.35 539.709 479.669 584.387C480.792 584.806 481.981 585.022 483.179 585.026C483.671 587.15 483.516 589.373 482.733 591.408L481.903 590.961C474.321 592.937 467.333 596.726 461.542 602.003Z" fill="black"/>
<path opacity="0.1" d="M497.86 465.353C498.243 467.82 498.626 470.118 499.009 472.246C501.69 487.245 520.774 536.071 538.901 577.75C540.128 577.942 541.377 577.942 542.603 577.75C543.399 579.777 543.663 581.974 543.369 584.132L542.54 583.749C535.67 587.278 529.69 592.319 525.051 598.493C535.072 596.642 549.05 591.472 551.986 585.728C552.215 585.405 552.368 585.034 552.433 584.643C552.686 583.876 552.686 583.048 552.433 582.281C551.986 581.324 550.901 578.962 549.497 575.899C549.086 575.048 548.723 574.174 548.412 573.282C538.518 550.177 514.519 493.5 510.115 477.99C505.072 460.438 504.626 451.502 510.115 438.354C504.766 446.725 500.64 455.816 497.86 465.353Z" fill="black"/>
<path opacity="0.1" d="M491.477 418.696C484.316 418.575 477.248 417.058 470.669 414.228C467.797 399.931 470.669 350.02 473.095 323.787C479.477 322.192 487.009 327.298 497.094 338.467C517.008 360.743 504.243 371.21 491.477 418.696Z" fill="black"/>
<path d="M503.477 354.487C503.477 347.084 484.328 312.937 474.882 307.32C472.245 311.215 470.427 315.606 469.538 320.225C468.649 324.844 468.708 329.595 469.712 334.191L482.988 359.274L463.329 413.845L472.073 418.185C482.265 404.156 491.112 389.197 498.498 373.508C501.217 367.493 502.9 361.063 503.477 354.487Z" fill="#1084FF"/>
<path d="M472.329 418.185C472.329 418.185 468.818 425.653 463.967 426.802C457.584 428.206 454.393 426.802 453.372 423.674C452.35 420.547 460.52 420.419 459.755 418.951C458.989 417.483 457.521 419.59 457.074 417.866C456.627 416.143 463.457 413.845 463.457 413.845L472.329 418.185Z" fill="#FBD783"/>
<defs>
<linearGradient id="paint0_linear_2_930" x1="72.1259" y1="447.162" x2="189.442" y2="447.162" gradientUnits="userSpaceOnUse">
<stop stop-color="#01B9FF"/>
<stop offset="0.41" stop-color="#08A1FF"/>
<stop offset="1" stop-color="#1084FF"/>
</linearGradient>
<linearGradient id="paint1_linear_2_930" x1="29.2971" y1="515.775" x2="128.039" y2="515.775" gradientUnits="userSpaceOnUse">
<stop stop-color="#01B9FF"/>
<stop offset="0.41" stop-color="#08A1FF"/>
<stop offset="1" stop-color="#1084FF"/>
</linearGradient>
<linearGradient id="paint2_linear_2_930" x1="27.9569" y1="553.624" x2="131.55" y2="553.624" gradientUnits="userSpaceOnUse">
<stop stop-color="#01B9FF"/>
<stop offset="0.41" stop-color="#08A1FF"/>
<stop offset="1" stop-color="#1084FF"/>
</linearGradient>
<linearGradient id="paint3_linear_2_930" x1="316.779" y1="32.6148" x2="554.714" y2="684.217" gradientUnits="userSpaceOnUse">
<stop stop-color="#01B9FF"/>
<stop offset="0.41" stop-color="#08A1FF"/>
<stop offset="1" stop-color="#1084FF"/>
</linearGradient>
<linearGradient id="paint4_linear_2_930" x1="461.159" y1="167.032" x2="400.527" y2="669.34" gradientUnits="userSpaceOnUse">
<stop stop-color="white"/>
<stop offset="0.09" stop-color="#F5F5F5"/>
<stop offset="0.23" stop-color="#DBDBDB"/>
<stop offset="0.41" stop-color="#B0B0B0"/>
<stop offset="0.63" stop-color="#747474"/>
<stop offset="0.88" stop-color="#292929"/>
<stop offset="1"/>
</linearGradient>
<linearGradient id="paint5_linear_2_930" x1="470.414" y1="157.585" x2="384.891" y2="703.359" gradientUnits="userSpaceOnUse">
<stop stop-color="white"/>
<stop offset="0.09" stop-color="#F5F5F5"/>
<stop offset="0.23" stop-color="#DBDBDB"/>
<stop offset="0.41" stop-color="#B0B0B0"/>
<stop offset="0.63" stop-color="#747474"/>
<stop offset="0.88" stop-color="#292929"/>
<stop offset="1"/>
</linearGradient>
<linearGradient id="paint6_linear_2_930" x1="449.223" y1="459.034" x2="411.057" y2="719.571" gradientUnits="userSpaceOnUse">
<stop stop-color="white"/>
<stop offset="0.09" stop-color="#F5F5F5"/>
<stop offset="0.23" stop-color="#DBDBDB"/>
<stop offset="0.41" stop-color="#B0B0B0"/>
<stop offset="0.63" stop-color="#747474"/>
<stop offset="0.88" stop-color="#292929"/>
<stop offset="1"/>
</linearGradient>
<linearGradient id="paint7_linear_2_930" x1="740.471" y1="582.473" x2="826.001" y2="582.473" gradientUnits="userSpaceOnUse">
<stop stop-color="#01B9FF"/>
<stop offset="0.41" stop-color="#08A1FF"/>
<stop offset="1" stop-color="#1084FF"/>
</linearGradient>
<linearGradient id="paint8_linear_2_930" x1="419.926" y1="31.2744" x2="494.924" y2="31.2744" gradientUnits="userSpaceOnUse">
<stop stop-color="white"/>
<stop offset="0.19" stop-color="#FCFCFC"/>
<stop offset="0.32" stop-color="#F3F3F3"/>
<stop offset="0.44" stop-color="#E3E3E3"/>
<stop offset="0.55" stop-color="#CDCDCD"/>
<stop offset="0.65" stop-color="#B1B1B1"/>
<stop offset="0.74" stop-color="#8E8E8E"/>
<stop offset="0.83" stop-color="#646464"/>
<stop offset="0.92" stop-color="#363636"/>
<stop offset="1"/>
</linearGradient>
<linearGradient id="paint9_linear_2_930" x1="135.252" y1="125.417" x2="197.102" y2="125.417" gradientUnits="userSpaceOnUse">
<stop stop-color="white"/>
<stop offset="0.19" stop-color="#FCFCFC"/>
<stop offset="0.32" stop-color="#F3F3F3"/>
<stop offset="0.44" stop-color="#E3E3E3"/>
<stop offset="0.55" stop-color="#CDCDCD"/>
<stop offset="0.65" stop-color="#B1B1B1"/>
<stop offset="0.74" stop-color="#8E8E8E"/>
<stop offset="0.83" stop-color="#646464"/>
<stop offset="0.92" stop-color="#363636"/>
<stop offset="1"/>
</linearGradient>
<linearGradient id="paint10_linear_2_930" x1="339.502" y1="202.008" x2="372.501" y2="202.008" gradientUnits="userSpaceOnUse">
<stop stop-color="white"/>
<stop offset="0.19" stop-color="#FCFCFC"/>
<stop offset="0.32" stop-color="#F3F3F3"/>
<stop offset="0.44" stop-color="#E3E3E3"/>
<stop offset="0.55" stop-color="#CDCDCD"/>
<stop offset="0.65" stop-color="#B1B1B1"/>
<stop offset="0.74" stop-color="#8E8E8E"/>
<stop offset="0.83" stop-color="#646464"/>
<stop offset="0.92" stop-color="#363636"/>
<stop offset="1"/>
</linearGradient>
<linearGradient id="paint11_linear_2_930" x1="355.459" y1="166.84" x2="365.862" y2="193.264" gradientUnits="userSpaceOnUse">
<stop stop-color="white"/>
<stop offset="0.09" stop-color="#F5F5F5"/>
<stop offset="0.23" stop-color="#DBDBDB"/>
<stop offset="0.41" stop-color="#B0B0B0"/>
<stop offset="0.63" stop-color="#747474"/>
<stop offset="0.88" stop-color="#292929"/>
<stop offset="1"/>
</linearGradient>
<linearGradient id="paint12_linear_2_930" x1="597.24" y1="240.623" x2="712.378" y2="544.436" gradientUnits="userSpaceOnUse">
<stop stop-color="white"/>
<stop offset="0.09" stop-color="#E0E0E0"/>
<stop offset="0.35" stop-color="#919191"/>
<stop offset="0.58" stop-color="#535353"/>
<stop offset="0.77" stop-color="#262626"/>
<stop offset="0.91" stop-color="#0A0A0A"/>
<stop offset="1"/>
</linearGradient>
<linearGradient id="paint13_linear_2_930" x1="284.035" y1="83.42" x2="294.439" y2="83.42" gradientUnits="userSpaceOnUse">
<stop stop-color="white"/>
<stop offset="0.09" stop-color="#F5F5F5"/>
<stop offset="0.23" stop-color="#DBDBDB"/>
<stop offset="0.41" stop-color="#B0B0B0"/>
<stop offset="0.63" stop-color="#747474"/>
<stop offset="0.88" stop-color="#292929"/>
<stop offset="1"/>
</linearGradient>
<linearGradient id="paint14_linear_2_930" x1="301.141" y1="89.8663" x2="311.609" y2="89.8663" gradientUnits="userSpaceOnUse">
<stop stop-color="white"/>
<stop offset="0.09" stop-color="#F5F5F5"/>
<stop offset="0.23" stop-color="#DBDBDB"/>
<stop offset="0.41" stop-color="#B0B0B0"/>
<stop offset="0.63" stop-color="#747474"/>
<stop offset="0.88" stop-color="#292929"/>
<stop offset="1"/>
</linearGradient>
<linearGradient id="paint15_linear_2_930" x1="318.375" y1="81.6329" x2="328.715" y2="81.6329" gradientUnits="userSpaceOnUse">
<stop stop-color="white"/>
<stop offset="0.09" stop-color="#F5F5F5"/>
<stop offset="0.23" stop-color="#DBDBDB"/>
<stop offset="0.41" stop-color="#B0B0B0"/>
<stop offset="0.63" stop-color="#747474"/>
<stop offset="0.88" stop-color="#292929"/>
<stop offset="1"/>
</linearGradient>
<linearGradient id="paint16_linear_2_930" x1="335.545" y1="84.7603" x2="345.885" y2="84.7603" gradientUnits="userSpaceOnUse">
<stop stop-color="white"/>
<stop offset="0.09" stop-color="#F5F5F5"/>
<stop offset="0.23" stop-color="#DBDBDB"/>
<stop offset="0.41" stop-color="#B0B0B0"/>
<stop offset="0.63" stop-color="#747474"/>
<stop offset="0.88" stop-color="#292929"/>
<stop offset="1"/>
</linearGradient>
<linearGradient id="paint17_linear_2_930" x1="296.354" y1="299.214" x2="436.393" y2="299.214" gradientUnits="userSpaceOnUse">
<stop stop-color="white"/>
<stop offset="0.12" stop-color="#E8E8E8"/>
<stop offset="0.37" stop-color="#ABABAB"/>
<stop offset="0.73" stop-color="#4B4B4B"/>
<stop offset="1"/>
</linearGradient>
</defs>
</svg>
