<svg width="803" height="634" viewBox="0 0 803 634" fill="none" xmlns="http://www.w3.org/2000/svg">
<g clip-path="url(#clip0_2_717)">
<path d="M150.411 417.048C144.247 421.7 139.762 428.223 137.629 435.639C135.899 426.705 133.108 418.009 129.314 409.736C148.612 397.342 167.848 408.992 177.341 397.342C182.616 390.773 162.511 367.04 142.593 380.797C134.612 387.085 129.224 396.083 127.452 406.08C124.102 398.953 120.255 391.641 116.097 383.957C130.307 369.023 148.922 375.653 155.127 363.755C158.416 357.125 136.822 340.517 122.364 356.009C116.954 362.536 114.05 370.775 114.174 379.247C111.195 373.711 108.155 367.948 105.052 361.958C108.093 342.934 125.281 334.692 121.496 321.617C119.2 313.809 89.3532 316.349 89.105 339.649C89.4366 349.336 93.298 358.569 99.9639 365.614C103.004 371.439 106.169 377.078 108.899 382.408C105.146 378.675 100.484 375.984 95.3722 374.6C74.7713 369.518 65.7739 395.173 72.1031 398.953C83.5204 405.708 95.5583 390.03 115.539 394.368C119.747 402.134 123.537 410.118 126.894 418.288C120.124 410.404 110.655 405.323 100.336 404.035C76.1364 402.609 71.3585 433.284 79.301 436.196C93.8209 441.526 104.121 420.456 128.321 422.13C132.495 432.804 134.09 444.311 132.975 455.717C128.727 446.181 120.975 438.639 111.319 434.647C89.4773 427.459 77.5636 454.415 84.141 459.001C96.5511 467.429 110.885 450.573 132.665 458.071C131.952 462.645 130.831 467.145 129.314 471.518C126.686 479.105 124.612 486.871 123.109 494.757C119.899 487.804 114.31 482.223 107.348 479.017C89.5394 471.952 78.3702 493.827 83.6445 497.979C92.9522 505.291 105.424 493.022 122.302 498.847C120.348 509.563 119.31 520.426 119.2 531.318C116.853 527.804 113.533 525.047 109.644 523.386C95.8686 517.933 87.2435 534.788 91.0286 538.011C97.8542 543.402 106.852 535.16 118.951 538.011C118.951 544.208 119.572 547.802 119.634 548.298C119.712 549.004 120.058 549.654 120.6 550.115C121.142 550.576 121.84 550.812 122.55 550.776H122.861C123.237 550.73 123.6 550.61 123.929 550.423C124.258 550.236 124.547 549.985 124.778 549.685C125.009 549.385 125.178 549.042 125.275 548.676C125.372 548.31 125.395 547.929 125.343 547.554C124.715 541.088 124.528 534.587 124.784 528.096C138.063 521.899 148.426 531.752 155.81 525.617C159.719 522.209 150.287 505.787 136.822 511.798C131.447 514.582 127.276 519.232 125.095 524.873C125.676 512.334 127.484 499.881 130.493 487.692C147.867 479.636 161.518 492.34 170.764 484.346C175.79 479.946 163.628 458.629 145.944 466.437C140.111 469.338 135.384 474.059 132.479 479.884C133.099 477.653 133.844 475.484 134.65 473.192C137.993 463.907 139.407 454.039 138.808 444.19C156.803 433.098 174.611 444.19 183.484 432.85C188.324 426.529 169.337 403.973 150.411 417.048Z" fill="url(#paint0_linear_2_717)"/>
<path d="M115.787 517.189C113.414 521.588 112.73 526.7 113.863 531.566C108.431 522.759 103.879 513.439 100.274 503.742C108.341 490.171 123.543 492.526 126.149 482.735C127.577 477.405 109.334 468.482 101.329 481.991C98.7001 486.658 97.6552 492.05 98.3506 497.359C97.7922 495.562 97.2337 493.703 96.7373 491.844C94.7156 483.907 91.0596 476.478 86.0025 470.031C93.0143 453.61 110.513 452.742 111.381 441.03C111.878 434.399 88.4225 427.893 81.659 445.554C79.4747 451.878 79.4747 458.75 81.659 465.074C76.213 459.589 70.106 454.802 63.4781 450.821C70.738 433.222 89.4153 432.23 90.3461 419.837C90.8425 412.896 66.1462 406.018 58.9483 424.67C56.4597 432.652 56.9671 441.265 60.3755 448.9C54.7909 445.616 48.7099 442.703 42.3187 439.109C45.2972 422.687 60.934 418.535 59.5689 407.691C58.7622 401.494 36.2998 400.317 33.6316 417.606C32.934 424.568 34.7857 431.546 38.8439 437.25C34.2521 434.895 29.4742 432.416 24.5722 429.752C17.8086 415.313 25.6891 401.742 17.002 394.554C11.7276 390.402 -7.50812 405.956 3.16462 422.006C7.95577 428.4 14.9349 432.812 22.7727 434.399C27.5506 437.002 32.2044 439.481 36.6721 441.774C32.3833 440.949 27.9526 441.27 23.8276 442.703C7.44613 448.9 13.1548 470.465 19.2978 470.093C30.2188 469.412 31.1496 453.176 46.6002 446.979C52.9989 450.297 59.213 453.959 65.2155 457.947C56.899 455.71 48.0455 456.661 40.3951 460.612C23.207 470.837 34.19 494.013 40.9536 492.34C53.3638 489.179 50.6335 469.969 67.8837 459.93C75.6466 465.307 82.0254 472.442 86.4989 480.752C79.1081 476.13 70.2019 474.573 61.6786 476.414C43.4356 481.619 47.8412 505.539 54.4807 505.601C66.8908 505.601 68.8144 487.444 87.1194 482.487C88.787 485.902 90.1171 489.472 91.0907 493.145C92.7325 499.476 94.8057 505.688 97.2958 511.736C91.8927 508.443 85.48 507.21 79.239 508.266C63.7883 511.736 66.3944 531.814 71.8549 532.248C81.659 532.929 84.2651 518.738 98.6609 514.896C102.347 523.111 106.705 531.008 111.692 538.506C108.452 537.178 104.896 536.812 101.453 537.453C89.5394 540.18 91.525 555.672 95.7445 556.044C102.942 556.539 105.238 546.686 114.856 543.154C117.835 547.244 119.882 549.351 120.13 549.847C120.516 550.293 121.055 550.578 121.64 550.647C122.226 550.716 122.817 550.563 123.295 550.219V550.219C123.516 550 123.692 549.739 123.812 549.452C123.932 549.165 123.994 548.856 123.994 548.545C123.994 548.234 123.932 547.926 123.812 547.639C123.692 547.352 123.516 547.091 123.295 546.872C119.854 542.757 116.703 538.409 113.863 533.859C120.068 523.634 131.734 525.369 133.72 517.871C136.512 513.719 122.178 506.841 115.787 517.189Z" fill="#F0EFF4"/>
<path d="M124.474 550.776C124.474 550.776 123.295 488.312 94.8137 468.854C66.3323 449.396 28.4813 450.759 28.4813 450.759C28.4813 450.759 49.0822 492.34 63.478 498.723C77.8738 505.106 122.24 538.259 124.474 550.776Z" fill="url(#paint1_linear_2_717)"/>
<path d="M122.55 551.52C119.013 544.27 115.104 537.143 111.071 530.141C107.038 523.138 102.632 516.198 97.9782 509.567C93.3933 502.886 88.3773 496.51 82.9619 490.481C77.618 484.42 71.482 479.105 64.719 474.679C64.653 474.621 64.6001 474.549 64.5639 474.469C64.5276 474.389 64.5089 474.302 64.5089 474.214C64.5089 474.126 64.5276 474.039 64.5639 473.959C64.6001 473.879 64.653 473.808 64.719 473.749C64.8453 473.632 65.0116 473.566 65.1844 473.566C65.3571 473.566 65.5234 473.632 65.6498 473.749C72.5952 478.155 78.9186 483.469 84.4512 489.551C90.1322 495.391 95.4182 501.602 100.274 508.142C105.176 514.711 109.706 521.527 114.049 528.468C118.393 535.408 122.55 542.473 126.46 549.847C126.626 550.093 126.739 550.372 126.79 550.665C126.841 550.958 126.829 551.259 126.755 551.547C126.682 551.835 126.548 552.105 126.362 552.337C126.177 552.57 125.944 552.761 125.68 552.898C125.415 553.034 125.124 553.113 124.827 553.129C124.53 553.146 124.232 553.099 123.954 552.992C123.676 552.886 123.424 552.721 123.214 552.51C123.004 552.299 122.841 552.046 122.737 551.768V551.768L122.55 551.52Z" fill="white"/>
<path d="M127.887 554.371C127.887 554.371 98.8469 518.987 73.5922 520.536C56.568 522.679 40.4874 529.55 27.1782 540.366C27.1782 540.366 58.2036 554.928 69.1246 552.078C80.0455 549.227 120.937 548.236 127.887 554.371Z" fill="url(#paint2_linear_2_717)"/>
<path d="M127.204 555.796C121.93 553.193 116.407 550.9 110.885 548.669C105.362 546.438 99.7157 544.517 94.007 542.472C88.33 540.724 82.5477 539.338 76.6948 538.321C70.8433 537.25 64.873 536.979 58.9483 537.515C58.822 537.508 58.7009 537.463 58.6011 537.385C58.5013 537.308 58.4276 537.202 58.3898 537.081C58.3812 537.016 58.3855 536.95 58.4028 536.886C58.42 536.823 58.4496 536.763 58.4901 536.712C58.5305 536.66 58.5808 536.616 58.6382 536.584C58.6956 536.552 58.7588 536.531 58.8242 536.524C64.8283 535.789 70.9056 535.893 76.881 536.833C82.8538 537.64 88.763 538.861 94.5655 540.489C100.398 542.039 106.107 543.898 111.754 545.943C117.4 547.988 123.047 550.219 128.569 552.697C128.893 552.897 129.131 553.208 129.24 553.572C129.349 553.935 129.32 554.326 129.16 554.67C128.999 555.014 128.717 555.287 128.368 555.438C128.019 555.588 127.627 555.605 127.266 555.486V555.486L127.204 555.796Z" fill="white"/>
<path d="M651.906 575.44C565.035 549.041 401.903 610.204 316.832 628.299C231.76 646.394 63.354 621.73 108.527 549.599C108.527 549.599 205.078 503.432 232.629 453.424C236.129 447.968 238.417 441.826 239.338 435.412C240.258 428.998 239.79 422.461 237.965 416.243C217.178 355.39 107.038 274.335 108.465 183.923C108.465 183.179 108.465 182.435 108.465 181.692C112.436 71.2639 225.307 10.6587 328.435 1.23944C393.278 -4.5856 454.274 9.79109 482.197 44.6174C554.362 135.091 579.493 122.326 615.172 106.586C650.851 90.8459 720.1 80.931 748.83 130.01C752.201 135.753 755.047 141.788 757.331 148.043C773.588 192.35 756.276 240.996 700.492 293.483C660.035 331.656 655.753 385.382 671.328 430.434C675.689 443.269 681.718 455.478 689.261 466.747C696.2 477.147 704.553 486.532 714.081 494.633C765.459 537.701 739.026 601.9 651.906 575.44Z" fill="url(#paint3_linear_2_717)"/>
<path style="mix-blend-mode:overlay" opacity="0.5" d="M651.906 575.44C565.035 549.041 401.903 610.204 316.832 628.299C231.76 646.394 63.354 621.73 108.527 549.599C108.527 549.599 258.318 478.087 237.779 416.491C217.24 354.894 105.486 272.972 108.527 181.692C112.436 71.2639 225.307 10.6587 328.435 1.2395C277.305 116.687 279.911 246.759 385.46 255.31C491.008 263.862 651.534 46.1047 757.331 148.043C773.588 192.35 756.276 240.996 700.492 293.483C636.952 353.531 662.641 451.689 714.081 494.633C765.521 537.577 739.026 601.901 651.906 575.44Z" fill="url(#paint4_linear_2_717)"/>
<path style="mix-blend-mode:overlay" opacity="0.5" d="M650.355 574.758C563.856 548.36 402.152 609.523 317.452 627.617C232.753 645.712 65.6498 621.049 110.451 548.917C110.451 548.917 259.373 477.406 238.896 415.809C218.419 354.212 109.085 273.653 110.451 183.241C217.178 105.904 313.047 63.5798 405.813 183.737C503.232 309.843 532.396 417.358 669.653 429.752C677.793 454.559 692.451 476.73 712.096 493.951C763.225 537.019 736.854 601.095 650.355 574.758Z" fill="url(#paint5_linear_2_717)"/>
<path style="mix-blend-mode:overlay" opacity="0.5" d="M646.446 574.138C561.436 547.74 402.276 608.903 319.19 626.998C236.103 645.092 71.6066 620.429 115.725 548.298C115.725 548.298 210.042 502.131 236.786 452.122C342.707 445.926 382.668 536.028 597.115 480.07C625.237 472.695 653.952 467.801 682.932 465.446C689.676 475.826 697.842 485.213 707.193 493.331C757.33 536.4 731.517 600.599 646.446 574.138Z" fill="url(#paint6_linear_2_717)"/>
<path d="M697.452 578.414C697.452 578.414 724.878 539.746 716.067 515.082C709.32 498.705 698.096 484.553 683.676 474.245C683.676 474.245 677.471 508.824 683.676 519.234C689.881 529.645 701.733 570.11 697.452 578.414Z" fill="#ECF2EF"/>
<path d="M695.9 578.105C697.017 571.908 697.824 565.711 698.506 559.886C699.189 554.061 699.623 547.492 699.747 541.295C700.005 535.093 699.819 528.88 699.189 522.705C698.665 516.6 697.308 510.595 695.156 504.858C695.08 504.76 695.039 504.64 695.039 504.517C695.039 504.394 695.08 504.274 695.156 504.176C695.248 504.089 695.37 504.04 695.497 504.04C695.624 504.04 695.746 504.089 695.838 504.176C698.2 509.966 699.745 516.056 700.43 522.271C701.226 528.436 701.62 534.646 701.609 540.861C701.609 547.058 701.609 553.255 700.864 559.452C700.12 565.649 699.685 571.846 698.755 578.043C698.679 578.465 698.443 578.842 698.096 579.095C697.75 579.349 697.319 579.46 696.893 579.406C696.682 579.376 696.479 579.304 696.297 579.193C696.115 579.082 695.958 578.934 695.836 578.76C695.714 578.585 695.629 578.388 695.586 578.179C695.544 577.97 695.545 577.755 695.59 577.547V577.547L695.9 578.105Z" fill="white"/>
<path d="M742.004 598.74C729.16 593.597 724.816 587.4 724.257 580.831C723.699 574.262 726.305 571.66 725.312 566.083C724.32 560.505 718.052 556.973 720.41 545.509C722.768 534.045 739.026 529.707 739.46 531.566C739.894 533.425 730.773 539.684 732.51 545.261C734.248 550.838 732.138 552.573 735.427 550.776C738.715 548.979 735.427 546.439 738.467 541.109C741.027 538.364 744.178 536.235 747.682 534.882C751.186 533.53 754.952 532.989 758.696 533.301C762.357 534.85 753.421 536.709 752.491 543.216C751.56 549.723 752.491 552.759 755.531 551.148C758.572 549.537 760.371 532.558 767.941 535.284C775.512 538.011 780.724 542.349 776.939 543.712C773.154 545.075 766.638 546.81 767.941 549.909C769.244 553.007 771.851 552.635 775.077 549.165C778.304 545.695 779.359 541.605 782.399 542.535C785.44 543.464 805.606 554.432 802.628 559.824C799.649 565.215 789.783 579.034 786.681 579.406C783.578 579.778 782.647 571.04 778.614 571.164C774.581 571.288 771.168 573.705 778.118 578.352C785.067 583 788.604 587.214 779.483 589.073C776.216 589.666 772.845 589.234 769.833 587.835C766.822 586.437 764.319 584.142 762.667 581.265C759.751 577.671 754.042 578.476 757.02 581.637C759.999 584.797 771.975 591.614 769.865 594.03C767.755 596.447 751.126 602.396 742.004 598.74Z" fill="url(#paint7_linear_2_717)"/>
<path d="M695.838 579.716C695.759 579.59 695.706 579.45 695.682 579.304C695.658 579.157 695.664 579.007 695.698 578.863C695.733 578.719 695.796 578.583 695.884 578.463C695.972 578.344 696.083 578.243 696.21 578.167C727.236 559.576 763.039 558.461 790.838 559.576C791.129 559.607 791.398 559.744 791.593 559.962C791.787 560.179 791.894 560.462 791.893 560.753C791.877 561.055 791.746 561.339 791.526 561.546C791.307 561.754 791.016 561.869 790.714 561.869C763.287 560.568 727.856 561.435 697.638 579.902C697.528 580.047 697.383 580.162 697.216 580.235C697.049 580.308 696.866 580.336 696.685 580.318C696.504 580.299 696.331 580.234 696.182 580.128C696.034 580.023 695.915 579.881 695.838 579.716V579.716Z" fill="white"/>
<path d="M551.942 67.5457H464.575C461.765 67.5457 459.487 69.8207 459.487 72.6271V96.485C459.487 99.2913 461.765 101.566 464.575 101.566H551.942C554.752 101.566 557.03 99.2913 557.03 96.485V72.6271C557.03 69.8207 554.752 67.5457 551.942 67.5457Z" fill="url(#paint8_linear_2_717)"/>
<path d="M489.519 75.2917H467.925C467.411 75.2917 466.995 75.7079 466.995 76.2213V80.0633C466.995 80.5767 467.411 80.9929 467.925 80.9929H489.519C490.033 80.9929 490.45 80.5767 490.45 80.0633V76.2213C490.45 75.7079 490.033 75.2917 489.519 75.2917Z" fill="#1084FF"/>
<path d="M545.737 85.4546H468.794C467.8 85.4546 466.995 86.2592 466.995 87.2517V94.502C466.995 95.4945 467.8 96.2991 468.794 96.2991H545.737C546.731 96.2991 547.537 95.4945 547.537 94.502V87.2517C547.537 86.2592 546.731 85.4546 545.737 85.4546Z" fill="white"/>
<path style="mix-blend-mode:overlay" opacity="0.5" d="M556.968 76.6552V96.4851C556.968 97.8328 556.432 99.1253 555.478 100.078C554.524 101.031 553.23 101.567 551.88 101.567H464.575C463.225 101.567 461.931 101.031 460.977 100.078C460.023 99.1253 459.487 97.8328 459.487 96.4851V86.756C460.396 86.351 461.328 85.9993 462.279 85.7026C475.868 81.3648 490.884 85.7026 504.66 82.4182C511.485 80.6212 517.69 76.903 524.454 74.7961C535.178 71.615 546.678 72.2725 556.968 76.6552V76.6552Z" fill="url(#paint9_linear_2_717)"/>
<path opacity="0.1" d="M739.088 611.32C739.088 612.807 729.966 613.984 718.673 613.984C707.38 613.984 698.258 612.807 698.258 611.32C698.258 609.832 707.38 608.717 718.673 608.717C729.966 608.717 739.088 609.894 739.088 611.32Z" fill="black"/>
<path d="M652.092 584.549C652.337 586.596 652.154 588.671 651.556 590.644C650.958 592.617 649.958 594.445 648.617 596.013C651.791 597.494 655.326 598.025 658.795 597.541C662.264 597.057 665.518 595.579 668.164 593.287C665.398 590.383 663.883 586.511 663.944 582.504L652.092 584.549Z" fill="#FBD783"/>
<path d="M650.727 585.851C653.419 587.062 656.338 587.688 659.29 587.688C662.243 587.688 665.161 587.062 667.853 585.851C669.342 559.514 668.66 525.803 670.521 501.883C674.865 478.707 691.619 444.686 691.619 414.57L652.899 418.536C643.93 446.8 640.929 476.615 644.088 506.097L650.727 585.851Z" fill="white"/>
<path d="M648.618 596.013C640.427 600.723 627.955 605.928 632.919 609.027C645.77 609.038 658.535 606.945 670.708 602.83C672.383 599.112 670.708 593.535 668.164 593.411C662.093 596.339 655.244 597.251 648.618 596.013V596.013Z" fill="white"/>
<path d="M712.158 584.363C712.767 586.267 712.988 588.274 712.807 590.264C712.626 592.255 712.046 594.189 711.103 595.951C714.381 596.779 717.829 596.634 721.025 595.533C724.222 594.432 727.027 592.424 729.097 589.755C727.506 588.699 726.138 587.34 725.073 585.755C724.009 584.171 723.267 582.392 722.892 580.521L712.158 584.363Z" fill="#FBD783"/>
<path d="M710.048 584.487C712.931 585.12 715.917 585.133 718.806 584.524C721.695 583.915 724.42 582.698 726.802 580.955C722.83 554.928 715.26 522.085 712.22 498.227C711.723 474.679 721.155 437.932 714.95 408.435L677.719 420.271C674.439 450.066 677.268 480.217 686.034 508.886L710.048 584.487Z" fill="white"/>
<path d="M711.103 595.951C704.215 602.148 693.418 609.461 698.693 611.444C710.926 608.865 722.647 604.28 733.379 597.872C734.248 594.03 731.579 589.073 729.035 589.445C723.91 593.475 717.624 595.756 711.103 595.951V595.951Z" fill="white"/>
<path d="M718.735 422.749C714.753 424.386 710.585 425.53 706.325 426.158C694.224 427.499 681.983 426.723 670.149 423.865C664.751 422.873 659.166 421.51 653.582 420.023C648.431 395.855 651.782 357.001 655.939 317.155C659.166 316.659 662.641 316.163 666.302 315.915C684.917 314.056 706.573 314.552 718.487 320.315C719.914 330.478 720.907 340.331 721.527 349.688C723.614 374.064 722.676 398.604 718.735 422.749V422.749Z" fill="url(#paint10_linear_2_717)"/>
<path d="M681.629 312.755C686.531 311.392 686.841 307.364 689.571 300.362H701.112C699.465 305.944 699.465 311.883 701.112 317.465C698.817 328.433 675.486 323.29 681.629 312.755Z" fill="#FBD783"/>
<path d="M679.953 300.362C679.953 305.753 693.294 306.001 701.299 305.691L716.191 281.275L690.626 268.51C684.26 277.973 680.572 288.978 679.953 300.362Z" fill="#FBD783"/>
<path d="M674.865 315.172L662.455 333.143L656.622 341.571H653.147C645.639 341.571 627.955 341.075 622.122 335.374C614.924 327.504 609.712 309.967 602.948 290.508L601.893 287.038C600.652 283.444 599.225 279.664 597.86 275.946L607.105 271.856C617.468 291.624 626.279 311.95 634.16 320.067C639.124 322.236 666.674 312.569 674.865 315.172Z" fill="url(#paint11_linear_2_717)"/>
<path d="M598.294 275.326C596.371 272.6 594.881 274.893 590.29 269.563C587.311 264.978 589.049 259.462 589.669 253.389C589.817 253.111 590.049 252.886 590.332 252.748C590.616 252.61 590.936 252.565 591.246 252.62C591.557 252.676 591.842 252.828 592.06 253.055C592.279 253.282 592.419 253.573 592.462 253.885L594.075 263.119C598.489 265.365 602.462 268.387 605.802 272.042L598.294 275.326Z" fill="#FBD783"/>
<path d="M698.382 239.199L676.354 245.829L653.52 252.646L649.424 253.885L642.288 256.178L639.31 257.046L634.594 258.409H634.222L604.748 267.084C603.391 267.504 601.965 267.65 600.551 267.515C599.137 267.38 597.765 266.966 596.512 266.298C595.26 265.629 594.153 264.719 593.255 263.62C592.357 262.521 591.687 261.256 591.283 259.896L585.077 239.818C584.624 238.255 584.522 236.611 584.779 235.004C585.037 233.397 585.647 231.867 586.567 230.523C588.159 228.536 590.326 227.086 592.772 226.371L669.591 203.505L686.282 198.485C687.002 198.241 687.756 198.116 688.516 198.113C688.516 198.113 688.516 198.113 688.516 198.113C690.552 197.988 692.58 198.462 694.349 199.477C696.799 200.806 698.643 203.024 699.499 205.674L701.361 211.87L705.456 225.813C706.29 228.525 706.014 231.457 704.688 233.966C703.362 236.474 701.095 238.356 698.382 239.199V239.199Z" fill="url(#paint12_linear_2_717)"/>
<path d="M620.324 228.544L597.139 235.469C596.318 235.714 595.852 236.577 596.097 237.397L598.444 245.234C598.69 246.053 599.554 246.519 600.375 246.274L623.56 239.349C624.381 239.104 624.847 238.241 624.602 237.421L622.255 229.584C622.009 228.765 621.145 228.299 620.324 228.544Z" fill="white"/>
<path d="M696.154 224.145L600.619 252.679C599.995 252.865 599.64 253.521 599.827 254.144L601.587 260.022C601.774 260.645 602.431 260.999 603.055 260.812L698.59 232.279C699.213 232.093 699.568 231.437 699.381 230.814L697.621 224.936C697.435 224.313 696.778 223.959 696.154 224.145Z" fill="white"/>
<path style="mix-blend-mode:overlay" opacity="0.5" d="M698.382 239.198L676.354 245.829L653.52 252.646L649.424 253.885L642.288 256.178L639.31 257.045L634.594 258.409H634.222L604.748 267.084C603.391 267.504 601.965 267.65 600.551 267.515C599.137 267.38 597.765 266.966 596.512 266.298C595.26 265.629 594.153 264.719 593.255 263.62C592.357 262.521 591.687 261.255 591.283 259.896L585.077 239.818C584.624 238.255 584.522 236.611 584.779 235.004C585.037 233.397 585.647 231.867 586.567 230.523C596.929 235.852 608.657 241.987 625.224 229.779C651.038 210.817 667.233 207.966 701.299 211.808L705.394 225.751C705.818 227.094 705.973 228.507 705.849 229.909C705.726 231.312 705.328 232.676 704.677 233.925C704.026 235.174 703.135 236.282 702.055 237.187C700.975 238.092 699.727 238.775 698.382 239.198V239.198Z" fill="url(#paint13_linear_2_717)"/>
<path d="M684.359 277.123C684.645 278.584 685.223 279.972 686.058 281.205C686.893 282.438 687.967 283.49 689.218 284.3C690.468 285.109 691.869 285.659 693.337 285.917C694.805 286.174 696.31 286.134 697.762 285.799C702.54 285.179 696.397 293.421 693.542 294.227L695.28 296.086L700.12 292.863C702.043 293.483 702.788 294.784 700.926 297.821L695.776 300.423C695.394 301.271 695.197 302.19 695.197 303.119C695.197 304.048 695.394 304.967 695.776 305.815H704.96C710.723 300.818 715.683 294.966 719.666 288.463C720.003 283.352 719.478 278.22 718.114 273.281C713.208 268.656 707.457 265.016 701.175 262.561C696.564 262.55 692.124 264.302 688.764 267.456C687.397 268.672 686.298 270.161 685.54 271.825C684.781 273.49 684.379 275.294 684.359 277.123V277.123Z" fill="#1084FF"/>
<path opacity="0.1" d="M733.379 597.872C722.659 604.303 710.934 608.891 698.693 611.443C694.969 609.956 699.437 605.68 704.898 601.219C709.489 600.847 714.64 601.219 718.611 600.475C722.582 599.731 725.188 598.492 724.816 593.101C724.876 592.815 724.876 592.519 724.816 592.233C724.578 589.081 723.995 585.964 723.078 582.938C723.078 582.194 722.582 581.327 722.334 580.397C720.1 573.333 716.501 563.728 710.979 550.528C692.922 507.15 696.024 476.972 705.89 426.591C709.541 425.997 713.133 425.085 716.625 423.865C718.114 450.015 711.599 478.893 711.971 498.537C715.136 522.333 722.582 555.238 726.615 581.203C725.677 581.855 724.704 582.455 723.699 583C724.685 585.775 726.533 588.164 728.973 589.816C731.642 589.011 734.248 593.968 733.379 597.872Z" fill="black"/>
<path opacity="0.1" d="M667.791 585.788C666.826 586.303 665.774 586.639 664.689 586.78C665.181 589.153 666.394 591.318 668.164 592.977C670.77 592.977 672.383 598.74 670.646 602.458C658.468 606.554 645.706 608.646 632.857 608.655C629.754 606.61 633.477 603.883 639.062 600.909L643.157 601.652C651.782 604.007 658.484 601.652 661.4 596.447C661.653 596.103 661.862 595.728 662.02 595.332C662.02 595.332 662.02 595.332 662.02 595.332C663.057 592.71 663.273 589.836 662.641 587.09V587.09C662.641 586.098 662.269 584.611 662.02 582.876C660.534 554.156 661.177 525.365 663.944 496.74C667.295 471.952 676.354 462.223 676.354 462.223L678.464 473.811C675.207 482.928 672.534 492.242 670.459 501.697C668.66 525.741 669.28 559.514 667.791 585.788Z" fill="black"/>
<path d="M718.735 320.315C712.53 314.118 686.655 311.702 683.242 306.868C680.077 296.024 681.877 273.963 682.063 251.654L672.135 250.849C665.93 277.247 662.207 301.973 665.495 314.924C668.846 325.149 697.327 340.083 697.327 340.083L718.735 320.315Z" fill="url(#paint14_linear_2_717)"/>
<path d="M680.636 251.53C682.718 249.976 684.259 247.809 685.041 245.333C685.913 242.73 685.757 239.894 684.607 237.401C684.607 237.401 676.727 238.393 675.486 240.686C674.6 242.554 673.974 244.535 673.624 246.573L668.908 247.998C670.078 249.245 671.494 250.236 673.066 250.911L680.636 251.53Z" fill="#FBD783"/>
<path opacity="0.1" d="M718.735 422.749C714.753 424.386 710.585 425.53 706.325 426.158C711.661 376.087 698.941 349.317 698.941 349.317C686.921 339.4 675.981 328.246 666.302 316.04C666.077 315.823 665.889 315.572 665.744 315.296C666.083 315.454 666.365 315.714 666.55 316.04C671.266 320.563 691.371 339.092 711.661 345.413C715.199 346.463 718.596 347.94 721.775 349.812C723.77 374.157 722.749 398.654 718.735 422.749Z" fill="black"/>
<path opacity="0.1" d="M601.893 287.038C602.141 287.658 602.514 288.773 603.01 290.385L601.893 287.038Z" fill="black"/>
<path opacity="0.1" d="M662.517 333.143C662.517 333.143 658.918 334.01 653.209 341.571C645.701 341.571 628.017 341.075 622.184 335.374C614.986 327.504 609.774 309.967 603.01 290.509C606.609 300.857 617.468 328.867 630.933 331.842C641.306 334.099 651.993 334.539 662.517 333.143V333.143Z" fill="black"/>
<path d="M447.387 315.296H438.575C438.638 315.582 438.638 315.878 438.575 316.163C438.636 316.47 438.636 316.786 438.575 317.093C438.64 317.711 438.64 318.334 438.575 318.952C438.175 321.591 436.84 323.998 434.813 325.738C432.787 327.477 430.203 328.434 427.53 328.433C425.456 328.416 423.426 327.829 421.664 326.736C419.902 325.643 418.475 324.086 417.54 322.236C416.744 320.659 416.32 318.921 416.299 317.155C416.373 314.916 417.13 312.754 418.471 310.958C419.172 309.958 420.031 309.079 421.015 308.355V308.355L416.051 303.398L415.058 302.344C414.476 302.813 413.936 303.331 413.445 303.894L412.452 304.947C409.521 308.417 407.896 312.801 407.86 317.341C407.828 317.815 407.828 318.292 407.86 318.766C408.197 323.761 410.408 328.446 414.051 331.885C417.695 335.325 422.503 337.265 427.516 337.32C432.529 337.375 437.378 335.54 441.096 332.181C444.814 328.822 447.127 324.187 447.573 319.2C447.573 318.58 447.573 317.961 447.573 317.341C447.573 316.721 447.449 316.04 447.387 315.296Z" fill="#1084FF"/>
<path d="M447.387 315.296H438.575C438.48 314.439 438.25 313.602 437.893 312.817C437.037 310.778 435.596 309.038 433.753 307.814C431.909 306.59 429.744 305.938 427.53 305.939H425.731C424.043 306.247 422.437 306.901 421.015 307.86V307.86L416.051 302.902L415.058 301.849C417.497 299.882 420.368 298.521 423.435 297.875C426.503 297.23 429.679 297.318 432.706 298.135C435.732 298.951 438.522 300.471 440.847 302.57C443.172 304.67 444.967 307.289 446.084 310.214C446.773 311.833 447.213 313.546 447.387 315.296Z" fill="white"/>
<path d="M451.606 317.155C451.615 317.402 451.573 317.647 451.482 317.877C451.392 318.106 451.255 318.315 451.08 318.489C450.905 318.663 450.697 318.8 450.467 318.89C450.237 318.981 449.991 319.023 449.745 319.014H438.575C438.115 318.968 437.688 318.752 437.378 318.408C437.068 318.064 436.898 317.618 436.9 317.155C436.801 316.874 436.801 316.568 436.9 316.288C437.033 316.019 437.235 315.792 437.486 315.628C437.737 315.465 438.028 315.371 438.327 315.358H449.496C449.757 315.312 450.025 315.325 450.281 315.394C450.536 315.464 450.773 315.589 450.975 315.761C451.176 315.933 451.337 316.146 451.446 316.387C451.556 316.628 451.61 316.891 451.606 317.155V317.155Z" fill="#F0EFF4"/>
<path d="M420.891 310.462C420.54 310.802 420.076 311.001 419.588 311.02C419.184 311.03 418.789 310.898 418.471 310.648V310.648L411.521 303.646L410.404 302.53C410.077 302.176 409.896 301.711 409.896 301.229C409.896 300.747 410.077 300.282 410.404 299.928C410.78 299.596 411.268 299.419 411.769 299.432C412.009 299.424 412.247 299.464 412.471 299.549C412.695 299.634 412.899 299.763 413.073 299.928L414.81 301.725L415.803 302.778L420.767 307.736C420.963 307.901 421.123 308.105 421.236 308.335C421.349 308.565 421.414 308.816 421.426 309.072C421.437 309.328 421.396 309.584 421.304 309.823C421.212 310.062 421.071 310.28 420.891 310.462V310.462Z" fill="#F0EFF4"/>
<path style="mix-blend-mode:overlay" opacity="0.5" d="M451.606 317.155C451.615 317.401 451.573 317.647 451.482 317.877C451.392 318.106 451.255 318.314 451.08 318.489C450.906 318.663 450.697 318.8 450.467 318.89C450.237 318.981 449.991 319.023 449.745 319.014H447.387C446.94 324.001 444.628 328.636 440.91 331.995C437.192 335.354 432.343 337.189 427.33 337.134C422.317 337.079 417.509 335.139 413.865 331.7C410.222 328.26 408.011 323.576 407.674 318.58C407.642 318.106 407.642 317.63 407.674 317.155C407.71 312.615 409.334 308.231 412.266 304.761L411.521 303.646L413.197 303.274L415.865 302.778C417.638 302.4 419.481 302.499 421.203 303.065C422.926 303.632 424.467 304.645 425.669 306.001C423.981 306.309 422.375 306.963 420.953 307.922C421.241 308.258 421.4 308.687 421.4 309.13C421.4 309.573 421.241 310.002 420.953 310.338C420.602 310.678 420.138 310.877 419.65 310.896C419.246 310.906 418.851 310.774 418.533 310.524C417.192 312.32 416.435 314.483 416.361 316.721C416.382 318.487 416.806 320.225 417.602 321.803C418.537 323.652 419.964 325.209 421.726 326.302C423.488 327.395 425.518 327.983 427.592 328C430.247 328.005 432.816 327.066 434.84 325.351C436.863 323.637 438.21 321.258 438.637 318.642C438.177 318.596 437.75 318.38 437.44 318.036C437.13 317.692 436.96 317.246 436.962 316.783C436.863 316.503 436.863 316.196 436.962 315.916H438.451C439.542 315.841 440.602 315.523 441.554 314.986C443.283 313.519 444.788 311.807 446.021 309.905C446.669 311.529 447.066 313.243 447.2 314.986H449.558C449.849 314.938 450.147 314.963 450.427 315.057C450.706 315.151 450.958 315.312 451.16 315.527C451.362 315.741 451.509 316.001 451.586 316.285C451.664 316.569 451.671 316.868 451.606 317.155V317.155Z" fill="url(#paint15_linear_2_717)"/>
<path d="M508.258 302.902C508.258 303.79 507.905 304.641 507.277 305.268C506.649 305.896 505.796 306.249 504.908 306.249H472.269C471.829 306.249 471.393 306.162 470.987 305.994C470.58 305.826 470.211 305.579 469.9 305.268C469.588 304.958 469.342 304.589 469.173 304.183C469.005 303.777 468.918 303.342 468.918 302.902C468.918 302.463 469.005 302.028 469.173 301.622C469.342 301.216 469.588 300.847 469.9 300.536C470.211 300.225 470.58 299.979 470.987 299.811C471.393 299.642 471.829 299.556 472.269 299.556H505.404C506.199 299.688 506.921 300.096 507.444 300.708C507.966 301.321 508.255 302.098 508.258 302.902V302.902Z" fill="url(#paint16_linear_2_717)"/>
<path d="M495.91 302.902C495.939 303.024 495.939 303.152 495.91 303.274C495.833 304.09 495.452 304.848 494.844 305.399C494.235 305.949 493.443 306.252 492.622 306.249H472.269C471.829 306.249 471.393 306.162 470.987 305.994C470.58 305.826 470.211 305.579 469.9 305.268C469.588 304.958 469.342 304.589 469.173 304.183C469.005 303.777 468.918 303.342 468.918 302.902C468.918 302.463 469.005 302.028 469.173 301.622C469.342 301.216 469.588 300.847 469.9 300.536C470.211 300.225 470.58 299.979 470.987 299.811C471.393 299.642 471.829 299.556 472.269 299.556H492.56C493 299.556 493.435 299.642 493.842 299.811C494.248 299.979 494.618 300.225 494.929 300.536C495.24 300.847 495.487 301.216 495.655 301.622C495.824 302.028 495.91 302.463 495.91 302.902Z" fill="#1084FF"/>
<path style="mix-blend-mode:overlay" opacity="0.5" d="M508.258 302.902C508.258 303.79 507.905 304.641 507.277 305.268C506.649 305.896 505.796 306.249 504.908 306.249H472.269C471.829 306.249 471.393 306.162 470.987 305.994C470.58 305.826 470.211 305.579 469.9 305.268C469.588 304.958 469.342 304.589 469.173 304.183C469.005 303.777 468.918 303.342 468.918 302.902C468.918 302.463 469.005 302.028 469.173 301.622C469.342 301.216 469.588 300.847 469.9 300.536C470.211 300.225 470.58 299.979 470.987 299.811C471.393 299.642 471.829 299.556 472.269 299.556H475.061C477.667 300.176 480.274 301.291 482.88 302.035C487.07 303.34 491.486 303.762 495.848 303.274H497.462C499.647 302.979 501.754 302.263 503.667 301.167C504.307 300.772 504.874 300.269 505.342 299.68C506.128 299.794 506.849 300.179 507.381 300.767C507.913 301.355 508.224 302.11 508.258 302.902V302.902Z" fill="url(#paint17_linear_2_717)"/>
<path d="M508.259 314.304C508.259 315.198 507.908 316.055 507.281 316.693C506.654 317.33 505.802 317.696 504.908 317.713H472.269C471.451 317.602 470.701 317.198 470.158 316.577C469.615 315.956 469.315 315.16 469.315 314.335C469.315 313.511 469.615 312.714 470.158 312.093C470.701 311.472 471.451 311.069 472.269 310.958H505.404C506.21 311.065 506.947 311.466 507.475 312.084C508.002 312.702 508.281 313.493 508.259 314.304V314.304Z" fill="url(#paint18_linear_2_717)"/>
<path d="M489.209 314.304C489.239 314.447 489.239 314.595 489.209 314.738C489.131 315.554 488.751 316.312 488.142 316.863C487.534 317.413 486.741 317.716 485.92 317.713H472.269C471.451 317.602 470.701 317.198 470.158 316.577C469.615 315.956 469.315 315.16 469.315 314.335C469.315 313.511 469.615 312.714 470.158 312.093C470.701 311.472 471.451 311.069 472.269 310.958H485.858C486.298 310.958 486.734 311.045 487.14 311.213C487.547 311.381 487.916 311.627 488.227 311.938C488.539 312.249 488.785 312.618 488.954 313.024C489.122 313.43 489.209 313.865 489.209 314.304V314.304Z" fill="#1084FF"/>
<path style="mix-blend-mode:overlay" opacity="0.5" d="M508.258 314.304C508.258 315.192 507.905 316.043 507.277 316.671C506.649 317.298 505.796 317.651 504.908 317.651H472.269C471.38 317.651 470.528 317.298 469.9 316.671C469.271 316.043 468.918 315.192 468.918 314.304C468.918 313.417 469.271 312.566 469.9 311.938C470.528 311.311 471.38 310.958 472.269 310.958H475.061C477.667 311.578 480.274 312.693 482.88 313.499C487.082 314.743 491.486 315.164 495.848 314.738H497.462C499.654 314.472 501.767 313.755 503.667 312.631C504.29 312.238 504.854 311.758 505.342 311.206C506.112 311.305 506.824 311.668 507.356 312.233C507.888 312.798 508.207 313.53 508.258 314.304V314.304Z" fill="url(#paint19_linear_2_717)"/>
<path d="M508.258 325.769C508.258 326.656 507.905 327.507 507.277 328.135C506.649 328.762 505.796 329.115 504.908 329.115H472.269C471.829 329.115 471.393 329.028 470.987 328.86C470.58 328.692 470.211 328.446 469.9 328.135C469.588 327.824 469.342 327.455 469.173 327.049C469.005 326.643 468.918 326.208 468.918 325.769C468.918 325.329 469.005 324.894 469.173 324.488C469.342 324.082 469.588 323.713 469.9 323.402C470.211 323.092 470.58 322.845 470.987 322.677C471.393 322.509 471.829 322.422 472.269 322.422H505.404C506.199 322.554 506.921 322.962 507.444 323.575C507.966 324.187 508.255 324.964 508.258 325.769Z" fill="url(#paint20_linear_2_717)"/>
<path d="M492.56 325.769C492.589 325.891 492.589 326.018 492.56 326.14C492.481 326.967 492.092 327.734 491.47 328.286C490.849 328.838 490.04 329.134 489.209 329.115H472.269C471.829 329.115 471.393 329.028 470.987 328.86C470.58 328.692 470.211 328.445 469.9 328.135C469.588 327.824 469.342 327.455 469.173 327.049C469.005 326.643 468.918 326.208 468.918 325.769C468.918 325.329 469.005 324.894 469.173 324.488C469.342 324.082 469.588 323.713 469.9 323.402C470.211 323.092 470.58 322.845 470.987 322.677C471.393 322.509 471.829 322.422 472.269 322.422H489.147C489.592 322.414 490.034 322.494 490.448 322.659C490.862 322.823 491.239 323.069 491.556 323.38C491.874 323.692 492.126 324.063 492.299 324.473C492.471 324.884 492.56 325.324 492.56 325.769V325.769Z" fill="#1084FF"/>
<path style="mix-blend-mode:overlay" opacity="0.5" d="M508.258 325.707C508.267 326.151 508.186 326.593 508.021 327.006C507.857 327.419 507.611 327.796 507.299 328.113C506.987 328.43 506.615 328.682 506.205 328.854C505.794 329.026 505.353 329.115 504.908 329.115H472.269C471.829 329.115 471.393 329.028 470.987 328.86C470.58 328.692 470.211 328.446 469.9 328.135C469.588 327.824 469.342 327.455 469.173 327.049C469.005 326.643 468.918 326.208 468.918 325.769C468.918 325.329 469.005 324.894 469.173 324.488C469.342 324.082 469.588 323.713 469.9 323.402C470.211 323.092 470.58 322.845 470.987 322.677C471.393 322.509 471.829 322.422 472.269 322.422H475.061C477.667 323.042 480.274 324.157 482.88 324.901C487.07 326.206 491.486 326.628 495.848 326.14H497.462C499.658 325.852 501.77 325.114 503.667 323.972C504.317 323.616 504.888 323.131 505.342 322.546C506.118 322.659 506.831 323.034 507.362 323.61C507.893 324.185 508.21 324.926 508.258 325.707V325.707Z" fill="url(#paint21_linear_2_717)"/>
<path d="M555.851 569.119V591.8C555.851 603.636 508.134 613.303 449.248 613.303C390.362 613.303 342.645 603.636 342.645 591.8V570.111H416.733C421.449 570.111 426.289 570.111 430.943 570.111H449.558C491.567 570.111 552.563 569.057 556.038 568.995L555.851 569.119Z" fill="#F0EFF4"/>
<path d="M555.852 570.111C555.852 582.009 508.134 591.676 449.248 591.676C390.362 591.676 342.645 582.133 342.645 570.111C342.645 566.517 347.112 563.046 355.055 560.072C372.926 553.255 408.419 548.608 449.31 548.608C471.867 548.453 494.4 550.09 516.697 553.503V553.503C539.284 557.221 553.928 562.798 555.727 568.995C555.796 569.364 555.837 569.736 555.852 570.111V570.111Z" fill="url(#paint22_linear_2_717)"/>
<path d="M543.317 391.331C542.001 411.105 533.661 429.761 519.8 443.943C520.227 446.627 520.435 449.342 520.42 452.061C520.421 460.087 518.835 468.034 515.756 475.448C512.677 482.862 508.164 489.596 502.475 495.266C496.786 500.935 490.034 505.429 482.604 508.489C475.174 511.549 467.213 513.116 459.176 513.1C453.53 513.1 451.916 442.703 454.274 402.548C454.274 398.396 454.833 394.554 455.205 391.207C456.198 381.478 457.501 375.281 459.176 375.281H542.945C542.945 376.645 542.945 377.884 543.317 379.247C543.69 380.611 543.317 383.213 543.317 385.444C543.317 387.675 543.441 389.41 543.317 391.331Z" fill="url(#paint23_linear_2_717)"/>
<path d="M439.258 513.1C423.096 513.116 407.588 506.733 396.131 495.349C384.674 483.966 378.203 468.51 378.138 452.37C378.024 449.556 378.149 446.736 378.51 443.943C373.738 439.069 369.571 433.638 366.1 427.769C358.566 414.959 354.623 400.362 354.683 385.506C354.683 383.585 354.683 381.664 354.683 379.743C354.592 378.278 354.592 376.809 354.683 375.344H439.258C441.368 375.344 442.919 385.444 443.912 400.131C443.912 400.875 443.912 401.618 443.912 402.424C446.766 442.703 444.842 513.1 439.258 513.1Z" fill="url(#paint24_linear_2_717)"/>
<path d="M543.503 378.008C543.564 378.46 543.564 378.919 543.503 379.371C542.945 381.622 541.658 383.626 539.842 385.072C539.261 385.596 538.638 386.073 537.981 386.498C525.571 395.483 493.056 401.928 454.585 402.424H441.554C402.338 401.556 369.947 394.616 359.088 385.072C357.297 383.709 356.01 381.791 355.427 379.619C355.309 379.089 355.309 378.539 355.427 378.008C355.461 377.048 355.671 376.103 356.048 375.219V375.219C361.57 362.826 401.407 353.469 449.745 353.469C498.082 353.469 537.981 363.012 543.379 375.219C543.646 376.125 543.689 377.082 543.503 378.008V378.008Z" fill="url(#paint25_linear_2_717)"/>
<path d="M539.842 385.196C539.261 385.72 538.638 386.197 537.981 386.622C525.571 395.607 493.056 402.052 454.585 402.548H441.554C402.338 401.68 369.947 394.74 359.088 385.196C365.711 380.405 373.252 377.03 381.24 375.282C403.585 369.912 426.517 367.372 449.496 367.721C472.476 367.376 495.407 369.916 517.752 375.282C525.725 377.021 533.247 380.397 539.842 385.196V385.196Z" fill="#F0EFF4"/>
<path style="mix-blend-mode:overlay" opacity="0.5" d="M519.8 443.943C520.227 446.627 520.435 449.342 520.42 452.06C520.42 460.087 518.835 468.034 515.756 475.448C512.677 482.861 508.164 489.596 502.475 495.265C496.786 500.935 490.034 505.429 482.604 508.489C475.174 511.549 467.213 513.116 459.176 513.099C453.53 513.099 451.916 442.703 454.274 402.548H444.036C446.456 442.703 444.843 513.099 439.258 513.099C423.097 513.116 407.588 506.733 396.131 495.349C384.674 483.966 378.204 468.51 378.138 452.37C378.024 449.556 378.149 446.736 378.51 443.943C373.738 439.068 369.572 433.638 366.1 427.769C373.602 427.812 381.095 427.232 388.5 426.034C405.216 424.134 421.149 417.919 434.728 408.001C436.9 406.266 439.01 404.407 440.933 402.548L443.477 400.255L445.401 398.582C448.441 395.979 451.606 393.5 454.895 391.207C465.955 383.326 478.702 378.128 492.125 376.025C507.944 373.726 524.046 377.514 537.174 386.622C538.601 387.675 539.966 388.729 541.27 389.906L542.697 391.331C541.549 411.024 533.434 429.67 519.8 443.943V443.943Z" fill="url(#paint26_linear_2_717)"/>
<path d="M236.476 302.283C236.476 309.471 205.078 335.002 196.205 341.075L192.358 333.515L183.981 316.783L216.247 299.122L193.599 247.254L201.789 242.483C212.642 255.524 222.221 269.572 230.395 284.436V284.436C233.407 290.003 235.462 296.036 236.476 302.283V302.283Z" fill="#F0EFF4"/>
<path d="M201.789 242.483C201.789 242.483 197.942 235.48 193.102 234.675C186.897 233.683 181.623 233.745 180.692 237.154C179.761 240.562 191.055 240.5 190.31 241.987C189.565 243.474 187.083 241.987 186.773 243.722C186.463 245.457 193.412 247.254 193.412 247.254L201.789 242.483Z" fill="#FBD783"/>
<path d="M347.795 197.803H192.792C188.2 197.803 184.477 201.521 184.477 206.107V276.38C184.477 280.966 188.2 284.683 192.792 284.683H347.795C352.387 284.683 356.11 280.966 356.11 276.38V206.107C356.11 201.521 352.387 197.803 347.795 197.803Z" fill="url(#paint27_linear_2_717)"/>
<path d="M233.621 225.751C233.621 229.747 232.435 233.653 230.212 236.975C227.99 240.297 224.83 242.886 221.134 244.415C217.438 245.944 213.37 246.344 209.446 245.565C205.523 244.785 201.918 242.861 199.089 240.036C196.26 237.211 194.334 233.611 193.553 229.692C192.772 225.774 193.173 221.712 194.704 218.02C196.235 214.329 198.828 211.174 202.154 208.954C205.481 206.734 209.392 205.55 213.393 205.55C218.758 205.55 223.903 207.678 227.697 211.467C231.49 215.255 233.621 220.393 233.621 225.751V225.751Z" fill="url(#paint28_linear_2_717)"/>
<path d="M338.736 236.286H242.433C241.542 236.286 240.819 237.007 240.819 237.897V246.077C240.819 246.967 241.542 247.688 242.433 247.688H338.736C339.627 247.688 340.349 246.967 340.349 246.077V237.897C340.349 237.007 339.627 236.286 338.736 236.286Z" fill="white"/>
<path d="M337.743 254.133H200.486C199.013 254.133 197.818 255.326 197.818 256.798V270.431C197.818 271.902 199.013 273.095 200.486 273.095H337.743C339.216 273.095 340.411 271.902 340.411 270.431V256.798C340.411 255.326 339.216 254.133 337.743 254.133Z" fill="white"/>
<path style="mix-blend-mode:overlay" opacity="0.5" d="M356.11 220.422V276.194C356.118 277.289 355.909 278.376 355.495 279.39C355.081 280.405 354.469 281.328 353.697 282.105C352.924 282.883 352.004 283.5 350.991 283.922C349.978 284.343 348.892 284.559 347.795 284.559H192.668C191.565 284.568 190.472 284.357 189.452 283.939C188.432 283.522 187.506 282.906 186.726 282.128C185.947 281.349 185.33 280.424 184.912 279.405C184.494 278.386 184.283 277.295 184.291 276.194V235.48H186.153C194.436 236.404 202.593 238.233 210.476 240.934C220.402 243.458 230.702 244.172 240.881 243.041C249.323 242.124 257.559 239.843 265.267 236.286C269.108 234.556 272.784 232.482 276.25 230.089V230.089C283.101 224.077 290.52 218.744 298.403 214.163L299.954 213.544C309.274 210.404 319.285 209.91 328.869 212.118C338.343 213.38 347.546 216.185 356.11 220.422V220.422Z" fill="url(#paint29_linear_2_717)"/>
<path opacity="0.1" d="M149.48 607.911C149.48 609.77 159.471 611.32 171.757 611.32C184.043 611.32 194.095 609.77 194.095 607.911C194.095 606.052 184.105 604.441 171.757 604.441C159.409 604.441 149.48 605.99 149.48 607.911Z" fill="black"/>
<path d="M233.994 590.25C233.515 592.318 233.689 594.482 234.49 596.447C235.793 599.979 217.178 601.095 217.178 601.095C216.596 597.845 217.284 594.496 219.102 591.738C220.769 589.514 221.798 586.879 222.08 584.115L233.994 590.25Z" fill="#FBD783"/>
<path d="M205.699 410.294C208.739 456.274 224.314 473.378 224.314 491.163C224.314 508.948 218.109 586.532 218.109 586.532C223.821 589.98 230.646 591.09 237.158 589.631C246.156 546.253 254.657 495.996 254.284 481.124C253.289 455.81 248.671 430.769 240.571 406.761L205.699 410.294Z" fill="url(#paint30_linear_2_717)"/>
<path d="M215.875 597.749C214.641 599.544 213.885 601.625 213.679 603.793C213.473 605.961 213.823 608.146 214.696 610.142C229.154 610.142 243.239 610.886 256.704 610.142C256.704 604.937 242.929 598.058 235.297 595.951C232.403 597.69 229.154 598.754 225.791 599.065C222.429 599.376 219.039 598.926 215.875 597.749V597.749Z" fill="white"/>
<path d="M175.914 583.186C175.033 585.126 174.773 587.29 175.169 589.383C175.666 593.163 157.237 590.56 157.237 590.56C157.415 587.209 158.882 584.057 161.332 581.761C163.443 579.924 165.009 577.545 165.862 574.882L175.914 583.186Z" fill="#FBD783"/>
<path d="M185.098 401.246C178.893 446.917 190.62 466.871 186.959 484.284C183.298 501.697 161.332 576.307 161.332 576.307C166.222 580.866 172.702 583.334 179.389 583.186C197.136 542.473 215.689 495.191 218.357 480.566C222.585 455.624 223.191 430.203 220.156 405.088L185.098 401.246Z" fill="url(#paint31_linear_2_717)"/>
<path d="M156.678 586.904C155.093 588.377 153.92 590.239 153.278 592.304C152.636 594.37 152.546 596.567 153.017 598.678C167.103 601.776 180.816 604.875 194.095 607.292C195.15 602.21 183.112 592.667 176.038 589.073C172.852 590.168 169.462 590.542 166.114 590.167C162.765 589.792 159.542 588.677 156.678 586.904V586.904Z" fill="white"/>
<path d="M246.032 424.113C239.621 426.882 232.725 428.356 225.741 428.451C207.87 429.566 185.594 426.591 179.637 420.581C183.174 373.98 172.377 325.955 186.215 315.234C197.694 309.037 227.292 310.215 244.418 317.837C244.981 317.999 245.523 318.228 246.032 318.518C246.404 324.715 246.838 330.478 247.148 336.303C247.148 339.216 247.459 342.004 247.583 344.855C249.32 376.335 249.755 405.026 246.032 424.113Z" fill="#F0EFF4"/>
<path d="M205.636 311.888C207.894 307.529 208.984 302.662 208.801 297.759H220.094C219.788 303.054 220.311 308.365 221.646 313.499C220.467 316.039 206.753 314.862 205.636 311.888Z" fill="#FBD783"/>
<path d="M206.753 302.221C213.517 305.319 220.343 308.417 224.5 305.629C229.216 300.3 233.559 283.568 233.87 274.211L206.753 272.29V302.221Z" fill="#FBD783"/>
<path d="M202.472 298.564C205.574 301.291 201.541 304.761 211.593 306.001C212.957 306.041 214.313 305.784 215.567 305.246C216.821 304.709 217.942 303.904 218.852 302.889C219.762 301.874 220.439 300.673 220.836 299.369C221.233 298.066 221.34 296.691 221.149 295.342C218.233 293.173 214.944 291.066 214.944 288.711C214.944 286.357 215.937 285.427 217.861 284.684C219.329 285.893 220.532 287.39 221.397 289.083L223.693 286.419L221.646 278.858C227.851 279.664 234.056 279.912 235.359 276.256C236.84 274.237 237.778 271.872 238.082 269.387C238.386 266.902 238.047 264.381 237.096 262.065C234.106 263.427 230.858 264.131 227.571 264.131C224.285 264.131 221.037 263.427 218.047 262.065C211.842 260.268 204.892 267.456 200.672 270.431C193.661 276.318 192.358 289.021 202.472 298.564Z" fill="#1084FF"/>
<path opacity="0.1" d="M255.029 606.796C244.793 608.197 234.394 605.864 225.741 600.227V600.227C225.431 599.937 225.197 599.575 225.058 599.174C224.437 595.968 224.673 592.655 225.741 589.569C225.741 588.577 226.175 587.586 226.486 586.47C232.747 566.269 237.925 545.749 241.998 524.998C249.01 484.222 240.509 446.917 225.679 428.451H226.424C230.014 428.346 233.586 427.91 237.096 427.149C240.149 426.437 243.121 425.42 245.97 424.113C250.845 442.755 253.674 461.871 254.408 481.124C254.843 495.996 246.342 546.129 237.282 589.631C236.186 590.013 235.031 590.202 233.87 590.188C233.403 592.252 233.554 594.407 234.304 596.385L235.111 595.952C242.543 597.873 249.385 601.598 255.029 606.796Z" fill="black"/>
<path opacity="0.1" d="M219.412 473.873C219.04 476.29 218.729 478.521 218.357 480.566C215.689 495.129 197.136 542.535 179.451 583.248C178.255 583.373 177.049 583.373 175.852 583.248C175.053 585.21 174.796 587.35 175.108 589.445H175.976C182.693 592.839 188.533 597.738 193.04 603.759C183.298 601.962 169.647 596.943 166.855 591.366C166.638 591.019 166.471 590.643 166.358 590.25C166.117 589.526 166.117 588.744 166.358 588.019C166.793 587.09 167.786 584.735 169.213 581.451L170.268 578.91C179.885 556.415 203.279 501.263 207.498 485.957C212.4 468.854 212.834 460.24 207.498 447.413C212.736 455.608 216.749 464.522 219.412 473.873V473.873Z" fill="black"/>
<path d="M284.937 353.221C279.105 357.372 240.385 344.669 230.457 340.517L234.8 333.267L244.294 317.093L276.747 334.63L307.772 287.534L316.459 291.872C311.342 308.052 304.715 323.716 296.665 338.658V338.658C293.584 344.123 289.621 349.043 284.937 353.221Z" fill="#F0EFF4"/>
<path d="M316.459 291.872C316.459 291.872 322.168 289.269 320.244 284.807C320.244 284.807 312.364 284.498 310.689 284.807C309.013 285.117 308.889 279.602 307.338 280.222C305.787 280.841 307.958 287.72 307.958 287.72L316.459 291.872Z" fill="#FBD783"/>
<path d="M554.673 231.576L514.526 263.986C513.46 264.828 512.111 265.227 510.759 265.1C509.406 264.973 508.155 264.33 507.266 263.304V263.304L474.813 223.087C473.973 222.024 473.586 220.673 473.737 219.327C473.888 217.981 474.565 216.749 475.62 215.898L487.596 206.355C491.008 207.471 499.199 210.941 499.199 216.828C499.019 218.309 499.134 219.811 499.539 221.247C499.944 222.683 500.629 224.024 501.557 225.194C502.163 226.051 502.946 226.769 503.853 227.301C506.058 229.347 508.987 230.434 511.995 230.324C515.003 230.213 517.844 228.914 519.893 226.712C521.942 224.51 523.031 221.585 522.92 218.58C522.81 215.576 521.509 212.739 519.304 210.693C517.554 208.49 515.019 207.047 512.23 206.665H511.609C510.513 206.464 509.499 205.947 508.693 205.178C508.249 204.841 507.834 204.468 507.452 204.062C505.309 200.776 504.028 197.004 503.729 193.094L505.466 191.731L515.767 183.427C516.411 182.856 517.21 182.49 518.063 182.373C518.951 182.194 519.872 182.26 520.725 182.566C521.578 182.872 522.331 183.405 522.902 184.108L531.962 195.325L533.885 197.68C535.137 197.544 536.38 197.337 537.609 197.06C539.858 196.532 541.971 195.54 543.814 194.147C545.181 193.151 546.148 191.701 546.544 190.057C546.567 189.042 546.756 188.038 547.102 187.083C547.819 185.214 549.018 183.568 550.577 182.311C551.758 181.299 553.153 180.566 554.657 180.169C556.162 179.772 557.737 179.721 559.264 180.019C562.126 180.383 564.732 181.851 566.524 184.108C568.171 186.042 569.054 188.511 569.006 191.049C569.038 192.736 568.679 194.408 567.958 195.934C567.237 197.461 566.173 198.8 564.849 199.848C563.693 200.827 562.345 201.553 560.892 201.979C559.439 202.406 557.912 202.525 556.41 202.327C550.825 202.327 547.599 209.268 546.234 213.234L555.169 224.326C555.628 224.827 555.981 225.416 556.206 226.058C556.43 226.699 556.522 227.379 556.476 228.057C556.429 228.735 556.246 229.397 555.936 230.002C555.626 230.606 555.196 231.142 554.673 231.576V231.576Z" fill="#1084FF"/>
<path d="M549.77 229.655L509.748 262.065C509.023 262.71 508.109 263.101 507.142 263.18C506.277 263.299 505.396 263.197 504.582 262.882C503.768 262.568 503.047 262.052 502.488 261.383L469.973 221.29C469.549 220.767 469.234 220.165 469.045 219.519C468.855 218.873 468.797 218.196 468.872 217.527C468.947 216.858 469.154 216.211 469.482 215.623C469.809 215.035 470.25 214.518 470.78 214.101L482.818 204.496C484.457 205.063 486.054 205.747 487.596 206.541C490.946 208.4 494.483 211.189 494.359 215.031C494.191 216.53 494.324 218.047 494.75 219.495C495.176 220.942 495.887 222.289 496.841 223.459C498.623 225.634 501.182 227.034 503.977 227.363C505.495 227.633 507.054 227.568 508.544 227.172C510.034 226.776 511.42 226.058 512.602 225.07C513.778 224.157 514.76 223.019 515.489 221.722C516.219 220.424 516.681 218.995 516.848 217.516C517.016 216.038 516.886 214.541 516.466 213.114C516.046 211.687 515.344 210.358 514.402 209.206C513.757 208.427 513.028 207.72 512.23 207.099C511.173 206.327 509.969 205.779 508.693 205.488C508.07 205.203 507.393 205.055 506.707 205.054C505.055 204.71 503.58 203.786 502.55 202.451C500.369 199.211 499.104 195.443 498.889 191.545L501.557 189.376L510.865 181.754C511.919 180.918 513.262 180.534 514.599 180.685C515.937 180.836 517.16 181.51 518 182.559V182.559L528.983 196.069C529.967 195.95 530.942 195.764 531.9 195.511C534.523 195.075 537.009 194.036 539.16 192.474C540.462 191.44 541.379 190 541.766 188.384C541.89 186.855 542.335 185.37 543.073 184.024C543.81 182.679 544.824 181.504 546.047 180.576C547.939 179.026 550.291 178.143 552.737 178.064C555.183 177.986 557.587 178.716 559.575 180.143C560.472 180.709 561.269 181.421 561.932 182.25C563.354 184.015 564.18 186.184 564.29 188.446C564.522 190.305 564.273 192.193 563.567 193.928C562.861 195.664 561.721 197.19 560.257 198.361C559.085 199.309 557.734 200.012 556.284 200.427C554.834 200.843 553.315 200.962 551.818 200.778C546.296 200.778 543.007 207.781 541.642 211.685L550.639 222.777C551.393 223.82 551.723 225.111 551.562 226.387C551.401 227.664 550.76 228.832 549.77 229.655V229.655Z" fill="url(#paint32_linear_2_717)"/>
<path style="mix-blend-mode:overlay" opacity="0.5" d="M554.673 231.576L514.526 263.986C513.46 264.828 512.111 265.227 510.759 265.1C509.406 264.973 508.155 264.33 507.266 263.304V263.304C506.401 263.423 505.52 263.32 504.706 263.006C503.892 262.692 503.172 262.176 502.612 261.507L470.097 221.413C469.673 220.89 469.358 220.288 469.169 219.643C468.98 218.997 468.921 218.32 468.996 217.651C469.071 216.982 469.278 216.335 469.606 215.747C469.933 215.159 470.375 214.642 470.904 214.225L482.818 204.496C484.457 205.063 486.054 205.746 487.596 206.541V206.541C491.008 207.656 499.199 211.127 499.199 217.014C499.018 218.495 499.134 219.997 499.539 221.433C499.943 222.869 500.629 224.21 501.557 225.379C502.163 226.237 502.946 226.955 503.853 227.486C505.371 227.757 506.93 227.692 508.42 227.296C509.91 226.9 511.295 226.182 512.478 225.194C513.654 224.281 514.636 223.143 515.365 221.845C516.095 220.548 516.557 219.118 516.724 217.64C516.892 216.162 516.762 214.665 516.342 213.238C515.921 211.811 515.22 210.482 514.277 209.33C513.632 208.55 512.904 207.844 512.106 207.223H511.485C510.388 207.022 509.375 206.505 508.569 205.735C507.946 205.45 507.268 205.302 506.583 205.302C504.931 204.957 503.456 204.034 502.426 202.699C500.245 199.459 498.98 195.691 498.765 191.793L501.433 189.624L505.342 192.288C509.191 195.2 513.354 197.674 517.752 199.663C520.884 201.103 524.347 201.673 527.775 201.313C531.204 200.953 534.473 199.676 537.236 197.618C537.236 197.618 537.236 197.618 537.236 197.618C539.904 195.015 541.332 191.421 544.372 189.19C545.084 188.619 545.879 188.159 546.73 187.827C548.465 187.203 550.286 186.848 552.128 186.773C556.066 186.479 560.015 187.182 563.608 188.818C565.411 189.576 567.102 190.577 568.634 191.793C568.666 193.48 568.307 195.152 567.586 196.678C566.865 198.204 565.801 199.544 564.477 200.592C563.321 201.57 561.973 202.296 560.52 202.723C559.066 203.15 557.54 203.268 556.038 203.071C550.453 203.071 547.226 210.011 545.861 213.977L554.797 225.07C555.553 225.992 555.956 227.154 555.933 228.346C555.911 229.538 555.464 230.683 554.673 231.576V231.576Z" fill="url(#paint33_linear_2_717)"/>
<path d="M439.382 180.886L411.521 165.146C411.152 164.946 410.826 164.674 410.563 164.346C410.3 164.018 410.105 163.641 409.989 163.237C409.874 162.833 409.84 162.411 409.89 161.994C409.94 161.577 410.073 161.174 410.28 160.808V160.808L426.103 133.046C426.308 132.681 426.585 132.362 426.918 132.106C427.25 131.851 427.63 131.666 428.036 131.562C428.442 131.457 428.865 131.436 429.279 131.5C429.694 131.563 430.091 131.71 430.447 131.931L438.699 136.331C438.699 138.562 438.699 144.077 435.349 145.378C433.526 145.862 431.966 147.042 431.005 148.663C430.67 149.215 430.439 149.824 430.323 150.46C430.059 151.493 430.035 152.574 430.253 153.618C430.471 154.662 430.925 155.643 431.581 156.486C432.236 157.328 433.076 158.01 434.035 158.479C434.995 158.948 436.049 159.191 437.117 159.191C438.185 159.191 439.24 158.948 440.199 158.479C441.159 158.01 441.998 157.328 442.654 156.486C443.309 155.643 443.763 154.662 443.981 153.618C444.199 152.574 444.176 151.493 443.912 150.46C443.912 150.46 443.912 150.15 443.912 150.088C443.694 149.423 443.694 148.707 443.912 148.043C444.009 147.723 444.133 147.412 444.284 147.113C445.696 145.125 447.57 143.509 449.745 142.404L450.986 143.085L458.121 147.175C458.628 147.568 458.997 148.11 459.176 148.724C459.466 149.212 459.618 149.769 459.618 150.336C459.618 150.903 459.466 151.459 459.176 151.947L454.771 159.693L453.84 161.366C454.214 162.051 454.628 162.713 455.081 163.349C455.874 164.618 456.959 165.68 458.245 166.447C459.133 167.001 460.189 167.22 461.224 167.067C461.802 166.855 462.408 166.729 463.023 166.695C464.282 166.702 465.519 167.021 466.622 167.625C467.463 168.084 468.193 168.722 468.761 169.493C469.329 170.263 469.721 171.149 469.911 172.087C470.339 173.833 470.072 175.677 469.166 177.23C468.43 178.627 467.187 179.691 465.692 180.204C464.704 180.648 463.624 180.845 462.543 180.781C461.463 180.716 460.414 180.391 459.487 179.833C458.669 179.381 457.951 178.77 457.375 178.036C456.799 177.301 456.378 176.458 456.136 175.557C454.895 172.273 449.931 172.087 447.511 172.149L443.664 179.709C443.464 180.071 443.193 180.389 442.868 180.644C442.543 180.9 442.17 181.089 441.771 181.198C441.372 181.308 440.955 181.337 440.545 181.283C440.135 181.23 439.739 181.095 439.382 180.886V180.886Z" fill="#1084FF"/>
<path d="M439.382 177.602L411.521 161.924C410.992 161.645 410.56 161.213 410.28 160.684C410.019 160.21 409.883 159.677 409.883 159.135C409.883 158.594 410.019 158.061 410.28 157.586L426.041 129.7C426.252 129.341 426.532 129.028 426.865 128.778C427.198 128.527 427.577 128.345 427.981 128.241C428.384 128.138 428.805 128.115 429.217 128.174C429.63 128.233 430.026 128.372 430.385 128.585L438.761 133.232C438.851 134.325 438.851 135.424 438.761 136.517C438.761 138.872 437.645 141.536 435.411 142.342C434.496 142.573 433.638 142.989 432.891 143.564C432.144 144.14 431.523 144.863 431.067 145.688C430.221 147.197 429.998 148.975 430.447 150.646C430.628 151.595 431.017 152.492 431.585 153.274C432.154 154.056 432.888 154.703 433.735 155.169C434.537 155.634 435.423 155.935 436.341 156.055C437.26 156.176 438.193 156.113 439.088 155.871C439.982 155.629 440.82 155.212 441.552 154.645C442.284 154.078 442.896 153.372 443.353 152.567C443.618 152.004 443.846 151.424 444.036 150.831C444.221 150.037 444.221 149.21 444.036 148.415C444.101 148.004 444.101 147.586 444.036 147.175C443.841 146.149 444.04 145.087 444.594 144.201C445.974 142.199 447.857 140.596 450.055 139.553L451.916 140.669L458.121 144.263C458.507 144.465 458.844 144.747 459.111 145.091C459.377 145.434 459.567 145.831 459.667 146.254C459.767 146.677 459.775 147.116 459.69 147.542C459.606 147.969 459.43 148.372 459.176 148.725V148.725L453.84 158.144C454.118 158.692 454.451 159.211 454.833 159.693C455.687 161.114 456.854 162.322 458.245 163.225C459.143 163.752 460.196 163.949 461.224 163.783C462.117 163.504 463.059 163.415 463.989 163.522C464.919 163.629 465.816 163.929 466.622 164.403C467.95 165.136 468.999 166.287 469.605 167.676C470.211 169.066 470.34 170.616 469.973 172.087C469.856 172.751 469.602 173.384 469.228 173.946C468.6 175.141 467.598 176.098 466.374 176.672C465.348 177.237 464.195 177.532 463.023 177.532C461.852 177.532 460.699 177.237 459.673 176.672C458.869 176.204 458.169 175.579 457.615 174.833C457.06 174.088 456.663 173.238 456.446 172.335C455.143 169.112 450.241 168.864 447.759 168.988L443.415 176.672C442.985 177.307 442.33 177.756 441.582 177.928C440.833 178.101 440.048 177.984 439.382 177.602V177.602Z" fill="url(#paint34_linear_2_717)"/>
<path style="mix-blend-mode:overlay" opacity="0.5" d="M439.382 180.886L411.521 165.146C411.152 164.946 410.826 164.673 410.563 164.346C410.3 164.018 410.105 163.641 409.989 163.237C409.874 162.833 409.84 162.411 409.89 161.993C409.94 161.576 410.073 161.174 410.28 160.808V160.808C410.02 160.333 409.883 159.801 409.883 159.259C409.883 158.717 410.02 158.185 410.28 157.71L426.041 129.824C426.252 129.465 426.532 129.152 426.865 128.901C427.198 128.651 427.577 128.469 427.981 128.365C428.384 128.262 428.805 128.239 429.217 128.297C429.63 128.356 430.026 128.496 430.385 128.709L438.762 133.356C438.851 134.449 438.851 135.548 438.762 136.641V136.641C438.762 138.871 438.762 144.387 435.411 145.688C433.588 146.172 432.028 147.351 431.067 148.972C430.733 149.525 430.501 150.134 430.385 150.769C430.566 151.719 430.955 152.616 431.523 153.398C432.092 154.18 432.826 154.827 433.673 155.293C434.475 155.757 435.361 156.059 436.279 156.179C437.198 156.299 438.131 156.237 439.026 155.995C439.92 155.753 440.758 155.336 441.49 154.769C442.222 154.202 442.834 153.495 443.291 152.69C443.556 152.127 443.784 151.548 443.974 150.955C443.974 150.955 443.974 150.645 443.974 150.583C443.756 149.919 443.756 149.203 443.974 148.538C444.039 148.128 444.039 147.71 443.974 147.299C443.779 146.273 443.978 145.211 444.532 144.325C445.912 142.323 447.795 140.72 449.993 139.677L451.854 140.792L451.234 143.581C450.426 146.514 449.948 149.528 449.807 152.566C449.675 154.707 450.132 156.842 451.127 158.743C452.122 160.643 453.618 162.236 455.453 163.349V163.349C457.572 163.918 459.646 164.643 461.658 165.518C462.131 165.819 462.568 166.172 462.961 166.571C463.715 167.451 464.342 168.431 464.823 169.484C465.871 171.686 466.361 174.112 466.25 176.548C466.205 177.748 465.996 178.937 465.63 180.08C464.642 180.524 463.562 180.721 462.481 180.657C461.401 180.592 460.352 180.267 459.424 179.709C458.607 179.257 457.889 178.646 457.313 177.912C456.737 177.177 456.316 176.334 456.074 175.433C454.833 172.148 449.869 171.963 447.449 172.025L443.664 179.709C443.464 180.07 443.193 180.389 442.868 180.644C442.543 180.9 442.17 181.089 441.771 181.198C441.372 181.308 440.955 181.337 440.545 181.283C440.135 181.23 439.739 181.095 439.382 180.886V180.886Z" fill="url(#paint35_linear_2_717)"/>
<path d="M541.704 132.675L569.503 130.196C570.234 130.126 570.963 130.348 571.533 130.812C572.102 131.276 572.465 131.945 572.543 132.675V132.675L574.963 160.436C574.999 161.163 574.756 161.875 574.283 162.428C573.81 162.981 573.143 163.333 572.419 163.411L564.166 164.093C562.987 162.605 560.319 158.577 562.119 155.913C563.183 154.679 563.718 153.076 563.608 151.451C563.557 150.88 563.432 150.317 563.235 149.778C562.751 148.553 561.888 147.514 560.772 146.812C559.657 146.11 558.346 145.782 557.03 145.874C555.428 146.031 553.95 146.805 552.908 148.03C551.866 149.256 551.342 150.838 551.446 152.443C551.595 153.964 552.302 155.376 553.432 156.409V156.409C553.872 156.825 554.175 157.365 554.3 157.958C554.329 158.246 554.329 158.537 554.3 158.825C554.315 160.996 553.759 163.133 552.687 165.022H551.508L544.31 165.642C543.884 165.764 543.433 165.764 543.007 165.642C542.551 165.439 542.157 165.121 541.863 164.718C541.569 164.316 541.386 163.844 541.332 163.349L540.649 155.603V153.992L538.788 153.186C537.598 152.662 536.3 152.428 535.002 152.505C534.072 152.534 533.187 152.909 532.52 153.558C532.197 153.976 531.822 154.351 531.403 154.673C530.507 155.308 529.457 155.692 528.363 155.789C527.531 155.883 526.688 155.793 525.894 155.525C525.101 155.257 524.376 154.818 523.771 154.24C522.606 153.202 521.874 151.764 521.724 150.212C521.591 148.826 521.966 147.439 522.778 146.308C523.279 145.555 523.938 144.922 524.71 144.451C525.482 143.98 526.347 143.683 527.246 143.581C528.058 143.51 528.876 143.599 529.653 143.844C530.43 144.088 531.151 144.483 531.776 145.006C534.32 146.741 537.981 144.573 539.656 143.209L539.036 135.525C539.01 135.16 539.06 134.793 539.183 134.448C539.305 134.103 539.498 133.787 539.748 133.52C539.999 133.252 540.301 133.039 540.638 132.894C540.974 132.748 541.337 132.674 541.704 132.675Z" fill="#1084FF"/>
<path d="M543.317 135.029L571.116 132.551C571.595 132.364 572.126 132.364 572.605 132.551C573.04 132.749 573.414 133.061 573.687 133.454C573.96 133.846 574.122 134.305 574.156 134.782L576.638 162.605C576.672 162.969 576.633 163.335 576.523 163.683C576.412 164.03 576.233 164.352 575.996 164.63C575.759 164.907 575.468 165.134 575.142 165.297C574.815 165.46 574.459 165.557 574.094 165.58L565.717 166.323C565.175 165.568 564.678 164.782 564.228 163.969C563.614 163.139 563.242 162.155 563.155 161.126C563.067 160.098 563.267 159.065 563.732 158.144C564.256 157.52 564.651 156.8 564.896 156.024C565.141 155.247 565.23 154.431 565.159 153.62C564.928 152.053 564.104 150.634 562.858 149.654C561.612 148.675 560.037 148.209 558.458 148.353C556.866 148.525 555.404 149.305 554.374 150.529C553.345 151.753 552.83 153.326 552.935 154.921C552.993 155.471 553.118 156.012 553.307 156.532C553.544 157.206 553.925 157.819 554.424 158.33C554.623 158.64 554.875 158.913 555.169 159.135C555.814 159.778 556.191 160.642 556.224 161.552C556.286 163.729 555.727 165.878 554.61 167.749H552.749L546.544 168.43C546.18 168.464 545.813 168.425 545.465 168.315C545.117 168.205 544.795 168.026 544.517 167.789C544.239 167.552 544.012 167.262 543.848 166.936C543.685 166.609 543.589 166.254 543.565 165.89L542.697 156.532L541.207 155.851C539.899 155.275 538.479 155 537.05 155.045C536.152 155.133 535.306 155.502 534.63 156.099C534.109 156.73 533.468 157.253 532.744 157.636C532.02 158.018 531.227 158.254 530.411 158.33C529.102 158.426 527.797 158.107 526.682 157.416C525.568 156.726 524.7 155.701 524.206 154.487C523.965 153.962 523.838 153.392 523.833 152.814C523.704 151.635 523.942 150.445 524.516 149.406C524.949 148.639 525.541 147.972 526.252 147.451C526.964 146.93 527.778 146.566 528.641 146.385C529.505 146.203 530.397 146.207 531.258 146.397C532.12 146.586 532.931 146.958 533.637 147.485C536.119 149.22 539.842 146.989 541.456 145.688L540.773 137.942C540.748 137.584 540.794 137.224 540.908 136.883C541.022 136.543 541.203 136.228 541.439 135.958C541.676 135.687 541.963 135.466 542.285 135.306C542.608 135.147 542.958 135.053 543.317 135.029V135.029Z" fill="url(#paint36_linear_2_717)"/>
<path style="mix-blend-mode:overlay" opacity="0.5" d="M541.704 132.675L569.503 130.196C570.234 130.126 570.963 130.348 571.533 130.812C572.102 131.276 572.465 131.945 572.543 132.675V132.675C572.982 132.868 573.36 133.178 573.633 133.572C573.907 133.966 574.067 134.427 574.094 134.905L576.576 162.667C576.619 163.035 576.587 163.408 576.48 163.763C576.374 164.118 576.196 164.448 575.958 164.732C575.72 165.016 575.427 165.249 575.096 165.416C574.764 165.583 574.403 165.681 574.032 165.704L565.656 166.447C565.113 165.692 564.616 164.906 564.166 164.093V164.093C562.987 162.605 560.319 158.577 562.119 155.913C563.183 154.679 563.718 153.076 563.608 151.451C563.557 150.88 563.432 150.317 563.236 149.778C562.626 149.206 561.901 148.772 561.108 148.504C560.316 148.237 559.476 148.143 558.644 148.229C557.828 148.291 557.033 148.514 556.303 148.885C555.574 149.256 554.926 149.767 554.395 150.389C553.865 151.011 553.462 151.732 553.212 152.509C552.961 153.287 552.867 154.107 552.935 154.921C552.993 155.471 553.118 156.013 553.307 156.532V156.532C553.748 156.949 554.051 157.489 554.176 158.082C554.374 158.392 554.627 158.665 554.921 158.887C555.566 159.53 555.943 160.394 555.976 161.304C556.038 163.481 555.478 165.63 554.362 167.501H552.501L551.57 165.146C550.703 162.64 549.536 160.247 548.095 158.02C547.12 156.432 545.737 155.134 544.089 154.262C542.441 153.39 540.588 152.976 538.725 153.062V153.062C536.838 153.722 534.911 154.26 532.955 154.673C532.483 154.765 531.999 154.765 531.528 154.673C530.538 154.437 529.595 154.039 528.735 153.496C526.886 152.451 525.329 150.959 524.206 149.158C523.658 148.264 523.221 147.307 522.902 146.308C523.403 145.555 524.063 144.922 524.834 144.451C525.606 143.98 526.471 143.683 527.37 143.581C528.182 143.51 529 143.599 529.777 143.844C530.554 144.088 531.276 144.483 531.9 145.006C534.444 146.741 538.105 144.573 539.78 143.147L539.16 135.525C539.135 135.17 539.181 134.814 539.296 134.477C539.411 134.14 539.592 133.829 539.829 133.564C540.067 133.298 540.355 133.082 540.677 132.93C540.999 132.777 541.348 132.69 541.704 132.675Z" fill="url(#paint37_linear_2_717)"/>
<path d="M355.427 119.29V128.833C355.419 131.168 354.95 133.479 354.048 135.634C353.146 137.789 351.827 139.745 350.167 141.39C348.508 143.036 346.54 144.339 344.376 145.226C342.213 146.112 339.895 146.564 337.557 146.556H73.5924C68.8907 146.539 64.3863 144.667 61.0617 141.347C57.7371 138.027 55.8622 133.528 55.8458 128.833V119.29C55.8622 114.594 57.7371 110.096 61.0617 106.776C64.3863 103.455 68.8907 101.583 73.5924 101.567H337.557C339.895 101.558 342.213 102.01 344.376 102.897C346.54 103.783 348.508 105.086 350.167 106.732C351.827 108.378 353.146 110.334 354.048 112.488C354.95 114.643 355.419 116.954 355.427 119.29V119.29Z" fill="url(#paint38_linear_2_717)"/>
<path d="M332.53 127.779L329.986 123.937C331.527 122.403 332.45 120.357 332.579 118.187C332.708 116.018 332.035 113.877 330.687 112.172C329.339 110.466 327.41 109.314 325.268 108.936C323.125 108.557 320.918 108.978 319.065 110.118C317.241 111.342 315.937 113.199 315.406 115.329C314.874 117.459 315.153 119.71 316.188 121.646C317.223 123.582 318.941 125.066 321.008 125.81C323.076 126.553 325.347 126.504 327.38 125.672L329.862 129.514L332.655 133.79L335.075 131.993L332.53 127.779ZM327.194 122.512C325.847 123.333 324.237 123.61 322.693 123.288C321.148 122.965 319.784 122.067 318.879 120.777C318.166 119.759 317.775 118.551 317.757 117.309C317.74 116.067 318.097 114.848 318.782 113.811C319.466 112.774 320.447 111.966 321.597 111.493C322.748 111.019 324.014 110.902 325.231 111.156C326.449 111.41 327.562 112.024 328.426 112.918C329.29 113.811 329.865 114.944 330.077 116.168C330.288 117.392 330.127 118.651 329.613 119.783C329.099 120.914 328.256 121.865 327.194 122.512Z" fill="white"/>
<path d="M332.468 127.221L329.428 129.204C329.376 129.245 329.335 129.297 329.306 129.356C329.277 129.415 329.262 129.48 329.262 129.545C329.262 129.611 329.277 129.676 329.306 129.735C329.335 129.794 329.376 129.845 329.428 129.886L336.005 139.925C336.046 139.976 336.098 140.018 336.157 140.047C336.216 140.075 336.281 140.09 336.347 140.09C336.412 140.09 336.477 140.075 336.536 140.047C336.595 140.018 336.647 139.976 336.688 139.925L339.728 137.942C339.78 137.901 339.822 137.85 339.85 137.791C339.879 137.731 339.894 137.667 339.894 137.601C339.894 137.535 339.879 137.471 339.85 137.412C339.822 137.353 339.78 137.301 339.728 137.26L333.151 127.221C333.11 127.17 333.059 127.128 332.999 127.099C332.94 127.071 332.875 127.056 332.81 127.056C332.744 127.056 332.679 127.071 332.62 127.099C332.561 127.128 332.509 127.17 332.468 127.221V127.221Z" fill="white"/>
<path style="mix-blend-mode:overlay" opacity="0.5" d="M355.427 119.289V128.833C355.419 131.168 354.95 133.479 354.048 135.634C353.145 137.789 351.827 139.745 350.167 141.39C348.508 143.036 346.54 144.339 344.376 145.226C342.213 146.112 339.895 146.564 337.557 146.556H73.5924C68.8907 146.539 64.3863 144.667 61.0617 141.347C57.7371 138.026 55.8622 133.528 55.8458 128.833V119.289C55.8622 114.594 57.7371 110.096 61.0617 106.775C64.3863 103.455 68.8907 101.583 73.5924 101.566H126.274C136.264 105.718 146.13 110.49 156.306 113.96C191.551 126.664 230.023 125.982 267.315 124.247C277.058 124.278 286.727 122.557 295.858 119.166C299.805 117.623 303.356 115.22 306.255 112.133C309.153 109.045 311.325 105.351 312.612 101.319H337.433C339.803 101.294 342.154 101.742 344.348 102.636C346.543 103.53 348.536 104.853 350.212 106.527C351.888 108.2 353.213 110.191 354.108 112.383C355.004 114.575 355.452 116.923 355.427 119.289V119.289Z" fill="url(#paint39_linear_2_717)"/>
<path style="mix-blend-mode:overlay" opacity="0.5" d="M555.852 569.119V591.8C555.852 603.636 508.134 613.303 449.248 613.303C390.362 613.303 342.645 603.636 342.645 591.8V570.111C342.645 566.516 347.112 563.046 355.055 560.072C364.859 561.745 374.539 564.409 384.281 566.268C394.998 568.403 405.873 569.647 416.796 569.987C421.511 569.987 426.351 569.987 431.005 569.987C448.874 569.312 466.571 566.249 483.624 560.877C491.683 557.873 499.988 555.571 508.445 553.999C511.259 553.579 514.1 553.372 516.946 553.379V553.379C539.532 557.097 554.176 562.674 555.976 568.871L555.852 569.119Z" fill="url(#paint40_linear_2_717)"/>
</g>
<defs>
<linearGradient id="paint0_linear_2_717" x1="70.1175" y1="434.151" x2="184.167" y2="434.151" gradientUnits="userSpaceOnUse">
<stop stop-color="#01B9FF"/>
<stop offset="0.41" stop-color="#08A1FF"/>
<stop offset="1" stop-color="#1084FF"/>
</linearGradient>
<linearGradient id="paint1_linear_2_717" x1="28.4813" y1="500.768" x2="124.474" y2="500.768" gradientUnits="userSpaceOnUse">
<stop stop-color="#01B9FF"/>
<stop offset="0.41" stop-color="#08A1FF"/>
<stop offset="1" stop-color="#1084FF"/>
</linearGradient>
<linearGradient id="paint2_linear_2_717" x1="27.1782" y1="537.515" x2="127.887" y2="537.515" gradientUnits="userSpaceOnUse">
<stop stop-color="#01B9FF"/>
<stop offset="0.41" stop-color="#08A1FF"/>
<stop offset="1" stop-color="#1084FF"/>
</linearGradient>
<linearGradient id="paint3_linear_2_717" x1="307.958" y1="31.666" x2="538.743" y2="664.5" gradientUnits="userSpaceOnUse">
<stop stop-color="#01B9FF"/>
<stop offset="0.41" stop-color="#08A1FF"/>
<stop offset="1" stop-color="#1084FF"/>
</linearGradient>
<linearGradient id="paint4_linear_2_717" x1="448.317" y1="162.172" x2="389.523" y2="649.883" gradientUnits="userSpaceOnUse">
<stop stop-color="white"/>
<stop offset="0.09" stop-color="#F5F5F5"/>
<stop offset="0.23" stop-color="#DBDBDB"/>
<stop offset="0.41" stop-color="#B0B0B0"/>
<stop offset="0.63" stop-color="#747474"/>
<stop offset="0.88" stop-color="#292929"/>
<stop offset="1"/>
</linearGradient>
<linearGradient id="paint5_linear_2_717" x1="457.315" y1="153" x2="374.382" y2="682.927" gradientUnits="userSpaceOnUse">
<stop stop-color="white"/>
<stop offset="0.09" stop-color="#F5F5F5"/>
<stop offset="0.23" stop-color="#DBDBDB"/>
<stop offset="0.41" stop-color="#B0B0B0"/>
<stop offset="0.63" stop-color="#747474"/>
<stop offset="0.88" stop-color="#292929"/>
<stop offset="1"/>
</linearGradient>
<linearGradient id="paint6_linear_2_717" x1="436.714" y1="445.678" x2="399.704" y2="698.647" gradientUnits="userSpaceOnUse">
<stop stop-color="white"/>
<stop offset="0.09" stop-color="#F5F5F5"/>
<stop offset="0.23" stop-color="#DBDBDB"/>
<stop offset="0.41" stop-color="#B0B0B0"/>
<stop offset="0.63" stop-color="#747474"/>
<stop offset="0.88" stop-color="#292929"/>
<stop offset="1"/>
</linearGradient>
<linearGradient id="paint7_linear_2_717" x1="719.852" y1="565.525" x2="803" y2="565.525" gradientUnits="userSpaceOnUse">
<stop stop-color="#01B9FF"/>
<stop offset="0.41" stop-color="#08A1FF"/>
<stop offset="1" stop-color="#1084FF"/>
</linearGradient>
<linearGradient id="paint8_linear_2_717" x1="459.487" y1="84.587" x2="556.968" y2="84.587" gradientUnits="userSpaceOnUse">
<stop stop-color="#01B9FF"/>
<stop offset="0.41" stop-color="#08A1FF"/>
<stop offset="1" stop-color="#1084FF"/>
</linearGradient>
<linearGradient id="paint9_linear_2_717" x1="459.487" y1="87.1898" x2="556.968" y2="87.1898" gradientUnits="userSpaceOnUse">
<stop stop-color="white"/>
<stop offset="0.12" stop-color="#E8E8E8"/>
<stop offset="0.37" stop-color="#ABABAB"/>
<stop offset="0.73" stop-color="#4B4B4B"/>
<stop offset="1"/>
</linearGradient>
<linearGradient id="paint10_linear_2_717" x1="650.975" y1="370.882" x2="722.582" y2="370.882" gradientUnits="userSpaceOnUse">
<stop stop-color="#01B9FF"/>
<stop offset="0.41" stop-color="#08A1FF"/>
<stop offset="1" stop-color="#1084FF"/>
</linearGradient>
<linearGradient id="paint11_linear_2_717" x1="597.426" y1="306.62" x2="674.865" y2="306.62" gradientUnits="userSpaceOnUse">
<stop stop-color="#01B9FF"/>
<stop offset="0.41" stop-color="#08A1FF"/>
<stop offset="1" stop-color="#1084FF"/>
</linearGradient>
<linearGradient id="paint12_linear_2_717" x1="584.829" y1="232.816" x2="706.077" y2="232.816" gradientUnits="userSpaceOnUse">
<stop stop-color="#01B9FF"/>
<stop offset="0.41" stop-color="#08A1FF"/>
<stop offset="1" stop-color="#1084FF"/>
</linearGradient>
<linearGradient id="paint13_linear_2_717" x1="584.829" y1="238.951" x2="706.077" y2="238.951" gradientUnits="userSpaceOnUse">
<stop stop-color="white"/>
<stop offset="0.09" stop-color="#E0E0E0"/>
<stop offset="0.35" stop-color="#919191"/>
<stop offset="0.58" stop-color="#535353"/>
<stop offset="0.77" stop-color="#262626"/>
<stop offset="0.91" stop-color="#0A0A0A"/>
<stop offset="1"/>
</linearGradient>
<linearGradient id="paint14_linear_2_717" x1="664.316" y1="295.466" x2="718.735" y2="295.466" gradientUnits="userSpaceOnUse">
<stop stop-color="#01B9FF"/>
<stop offset="0.41" stop-color="#08A1FF"/>
<stop offset="1" stop-color="#1084FF"/>
</linearGradient>
<linearGradient id="paint15_linear_2_717" x1="407.612" y1="319.882" x2="451.606" y2="319.882" gradientUnits="userSpaceOnUse">
<stop stop-color="white"/>
<stop offset="0.09" stop-color="#E0E0E0"/>
<stop offset="0.35" stop-color="#919191"/>
<stop offset="0.58" stop-color="#535353"/>
<stop offset="0.77" stop-color="#262626"/>
<stop offset="0.91" stop-color="#0A0A0A"/>
<stop offset="1"/>
</linearGradient>
<linearGradient id="paint16_linear_2_717" x1="468.918" y1="302.902" x2="508.258" y2="302.902" gradientUnits="userSpaceOnUse">
<stop stop-color="#01B9FF"/>
<stop offset="0.41" stop-color="#08A1FF"/>
<stop offset="1" stop-color="#1084FF"/>
</linearGradient>
<linearGradient id="paint17_linear_2_717" x1="468.918" y1="302.902" x2="508.258" y2="302.902" gradientUnits="userSpaceOnUse">
<stop stop-color="white"/>
<stop offset="0.09" stop-color="#E0E0E0"/>
<stop offset="0.35" stop-color="#919191"/>
<stop offset="0.58" stop-color="#535353"/>
<stop offset="0.77" stop-color="#262626"/>
<stop offset="0.91" stop-color="#0A0A0A"/>
<stop offset="1"/>
</linearGradient>
<linearGradient id="paint18_linear_2_717" x1="468.918" y1="314.304" x2="508.259" y2="314.304" gradientUnits="userSpaceOnUse">
<stop stop-color="#01B9FF"/>
<stop offset="0.41" stop-color="#08A1FF"/>
<stop offset="1" stop-color="#1084FF"/>
</linearGradient>
<linearGradient id="paint19_linear_2_717" x1="468.918" y1="314.304" x2="508.258" y2="314.304" gradientUnits="userSpaceOnUse">
<stop stop-color="white"/>
<stop offset="0.09" stop-color="#E0E0E0"/>
<stop offset="0.35" stop-color="#919191"/>
<stop offset="0.58" stop-color="#535353"/>
<stop offset="0.77" stop-color="#262626"/>
<stop offset="0.91" stop-color="#0A0A0A"/>
<stop offset="1"/>
</linearGradient>
<linearGradient id="paint20_linear_2_717" x1="468.918" y1="325.769" x2="508.258" y2="325.769" gradientUnits="userSpaceOnUse">
<stop stop-color="#01B9FF"/>
<stop offset="0.41" stop-color="#08A1FF"/>
<stop offset="1" stop-color="#1084FF"/>
</linearGradient>
<linearGradient id="paint21_linear_2_717" x1="468.918" y1="325.769" x2="508.258" y2="325.769" gradientUnits="userSpaceOnUse">
<stop stop-color="white"/>
<stop offset="0.09" stop-color="#E0E0E0"/>
<stop offset="0.35" stop-color="#919191"/>
<stop offset="0.58" stop-color="#535353"/>
<stop offset="0.77" stop-color="#262626"/>
<stop offset="0.91" stop-color="#0A0A0A"/>
<stop offset="1"/>
</linearGradient>
<linearGradient id="paint22_linear_2_717" x1="342.645" y1="570.235" x2="555.852" y2="570.235" gradientUnits="userSpaceOnUse">
<stop stop-color="#01B9FF"/>
<stop offset="0.41" stop-color="#08A1FF"/>
<stop offset="1" stop-color="#1084FF"/>
</linearGradient>
<linearGradient id="paint23_linear_2_717" x1="453.343" y1="444.191" x2="543.503" y2="444.191" gradientUnits="userSpaceOnUse">
<stop stop-color="#01B9FF"/>
<stop offset="0.41" stop-color="#08A1FF"/>
<stop offset="1" stop-color="#1084FF"/>
</linearGradient>
<linearGradient id="paint24_linear_2_717" x1="354.993" y1="444.191" x2="445.153" y2="444.191" gradientUnits="userSpaceOnUse">
<stop stop-color="#01B9FF"/>
<stop offset="0.41" stop-color="#08A1FF"/>
<stop offset="1" stop-color="#1084FF"/>
</linearGradient>
<linearGradient id="paint25_linear_2_717" x1="354.931" y1="378.07" x2="543.503" y2="378.07" gradientUnits="userSpaceOnUse">
<stop stop-color="#01B9FF"/>
<stop offset="0.41" stop-color="#08A1FF"/>
<stop offset="1" stop-color="#1084FF"/>
</linearGradient>
<linearGradient id="paint26_linear_2_717" x1="366.41" y1="444.252" x2="543.317" y2="444.252" gradientUnits="userSpaceOnUse">
<stop stop-color="white"/>
<stop offset="0.09" stop-color="#F5F5F5"/>
<stop offset="0.23" stop-color="#DBDBDB"/>
<stop offset="0.41" stop-color="#B0B0B0"/>
<stop offset="0.63" stop-color="#747474"/>
<stop offset="0.88" stop-color="#292929"/>
<stop offset="1"/>
</linearGradient>
<linearGradient id="paint27_linear_2_717" x1="184.477" y1="241.243" x2="356.11" y2="241.243" gradientUnits="userSpaceOnUse">
<stop stop-color="#01B9FF"/>
<stop offset="0.41" stop-color="#08A1FF"/>
<stop offset="1" stop-color="#1084FF"/>
</linearGradient>
<linearGradient id="paint28_linear_2_717" x1="193.164" y1="225.751" x2="233.621" y2="225.751" gradientUnits="userSpaceOnUse">
<stop stop-color="#01B9FF"/>
<stop offset="0.41" stop-color="#08A1FF"/>
<stop offset="1" stop-color="#1084FF"/>
</linearGradient>
<linearGradient id="paint29_linear_2_717" x1="184.477" y1="247.626" x2="356.11" y2="247.626" gradientUnits="userSpaceOnUse">
<stop stop-color="white"/>
<stop offset="0.12" stop-color="#E8E8E8"/>
<stop offset="0.37" stop-color="#ABABAB"/>
<stop offset="0.73" stop-color="#4B4B4B"/>
<stop offset="1"/>
</linearGradient>
<linearGradient id="paint30_linear_2_717" x1="205.699" y1="498.599" x2="254.595" y2="498.599" gradientUnits="userSpaceOnUse">
<stop stop-color="#01B9FF"/>
<stop offset="0.41" stop-color="#08A1FF"/>
<stop offset="1" stop-color="#1084FF"/>
</linearGradient>
<linearGradient id="paint31_linear_2_717" x1="161.332" y1="492.34" x2="222.08" y2="492.34" gradientUnits="userSpaceOnUse">
<stop stop-color="#01B9FF"/>
<stop offset="0.41" stop-color="#08A1FF"/>
<stop offset="1" stop-color="#1084FF"/>
</linearGradient>
<linearGradient id="paint32_linear_2_717" x1="468.856" y1="220.608" x2="564.29" y2="220.608" gradientUnits="userSpaceOnUse">
<stop stop-color="#01B9FF"/>
<stop offset="0.41" stop-color="#08A1FF"/>
<stop offset="1" stop-color="#1084FF"/>
</linearGradient>
<linearGradient id="paint33_linear_2_717" x1="472.752" y1="207.357" x2="556.496" y2="234.72" gradientUnits="userSpaceOnUse">
<stop stop-color="white"/>
<stop offset="0.12" stop-color="#E8E8E8"/>
<stop offset="0.37" stop-color="#ABABAB"/>
<stop offset="0.73" stop-color="#4B4B4B"/>
<stop offset="1"/>
</linearGradient>
<linearGradient id="paint34_linear_2_717" x1="409.908" y1="153.124" x2="470.407" y2="153.124" gradientUnits="userSpaceOnUse">
<stop stop-color="#01B9FF"/>
<stop offset="0.41" stop-color="#08A1FF"/>
<stop offset="1" stop-color="#1084FF"/>
</linearGradient>
<linearGradient id="paint35_linear_2_717" x1="435.595" y1="127.693" x2="439.123" y2="182.174" gradientUnits="userSpaceOnUse">
<stop stop-color="white"/>
<stop offset="0.12" stop-color="#E8E8E8"/>
<stop offset="0.37" stop-color="#ABABAB"/>
<stop offset="0.73" stop-color="#4B4B4B"/>
<stop offset="1"/>
</linearGradient>
<linearGradient id="paint36_linear_2_717" x1="523.523" y1="150.398" x2="576.638" y2="150.398" gradientUnits="userSpaceOnUse">
<stop stop-color="#01B9FF"/>
<stop offset="0.41" stop-color="#08A1FF"/>
<stop offset="1" stop-color="#1084FF"/>
</linearGradient>
<linearGradient id="paint37_linear_2_717" x1="559.169" y1="153.648" x2="529.594" y2="116.392" gradientUnits="userSpaceOnUse">
<stop stop-color="white"/>
<stop offset="0.12" stop-color="#E8E8E8"/>
<stop offset="0.37" stop-color="#ABABAB"/>
<stop offset="0.73" stop-color="#4B4B4B"/>
<stop offset="1"/>
</linearGradient>
<linearGradient id="paint38_linear_2_717" x1="55.8458" y1="124.061" x2="355.427" y2="124.061" gradientUnits="userSpaceOnUse">
<stop stop-color="#01B9FF"/>
<stop offset="0.41" stop-color="#08A1FF"/>
<stop offset="1" stop-color="#1084FF"/>
</linearGradient>
<linearGradient id="paint39_linear_2_717" x1="55.8458" y1="124.061" x2="355.427" y2="124.061" gradientUnits="userSpaceOnUse">
<stop stop-color="white"/>
<stop offset="0.26" stop-color="#C2C2C2"/>
<stop offset="0.85" stop-color="#292929"/>
<stop offset="1"/>
</linearGradient>
<linearGradient id="paint40_linear_2_717" x1="342.645" y1="583.434" x2="555.851" y2="583.434" gradientUnits="userSpaceOnUse">
<stop stop-color="white"/>
<stop offset="0.09" stop-color="#F5F5F5"/>
<stop offset="0.23" stop-color="#DBDBDB"/>
<stop offset="0.41" stop-color="#B0B0B0"/>
<stop offset="0.63" stop-color="#747474"/>
<stop offset="0.88" stop-color="#292929"/>
<stop offset="1"/>
</linearGradient>
<clipPath id="clip0_2_717">
<rect width="803" height="634" fill="white"/>
</clipPath>
</defs>
</svg>
