<svg width="1084" height="1080" viewBox="0 0 1084 1080" fill="none" xmlns="http://www.w3.org/2000/svg">
<g opacity="0.25">
<path opacity="0.25" d="M1084 1049.57H1082.55C1082.55 956.455 1056.62 818.345 1016.46 697.733C967.631 551.162 903.713 445.212 836.431 399.4C769.981 354.164 700.565 365.413 630.244 432.761C597.688 464.008 555.366 487.419 504.724 502.417C460.436 514.956 415.26 521.113 369.979 520.781C364.155 520.781 358.295 520.781 352.435 520.492C301.743 518.957 251.311 510.402 201.955 494.966C154.315 479.968 112.788 458.576 81.7512 433.627C35.5943 396.515 13.8181 352.578 18.7377 306.525C21.2698 282.874 30.8557 258.838 47.2421 234.802C64.6775 209.276 90.0711 183.605 122.699 158.464C194.865 102.893 302.914 49.2927 443.808 -0.75L444.17 1.1248C303.384 51.1195 195.335 104.623 123.423 160.098C90.8669 185.144 65.5457 210.718 48.2911 236.1C32.1217 259.799 22.6444 283.595 20.1484 306.909C15.3374 352.097 36.8966 395.41 82.5109 431.896C144.765 481.939 248.184 515.156 352.362 518.425C466.452 522.127 567.412 490.255 629.304 431.079C666.056 395.89 703.061 375.748 739.198 371.181C773.06 367.22 807.06 376.387 837.082 397.573C873.255 422.041 907.692 462.806 940.067 518.666C971.189 573.747 997.272 633.552 1017.77 696.82C1058.03 817.768 1084 956.215 1084 1049.57Z" fill="#011ACC"/>
<path opacity="0.25" d="M1084 1032.26H1082.59C1082.59 942.226 1057.27 808.971 1018.02 692.782C970.163 551.066 907.222 448.721 840.772 404.687C772.043 359.115 699.697 373.345 626.193 447.039C594.831 478.382 554.86 501.985 507.328 517.127C460.428 531.495 412.336 537.812 364.227 535.923C316.15 534.538 268.322 526.319 221.56 511.407C176.308 496.745 135.649 476.074 104.034 451.606C78.2786 431.656 58.7813 409.591 46.1569 385.988C32.5558 360.798 26.8766 334.358 29.5173 307.39C31.9047 283.354 40.948 258.453 56.4662 234.033C72.9974 208.074 97.0525 182.115 127.981 156.877C196.275 101.066 298.501 48.0429 431.799 -0.75L432.196 1.07673C299.007 49.8215 196.89 102.749 128.704 158.464C68.7289 207.497 35.8114 257.684 30.928 307.631C25.8276 359.452 51.3658 408.677 104.902 449.971C169.29 499.822 266.307 531.26 364.408 534.049C369.255 534.049 374.102 534.049 378.877 534.049C480.885 534.049 568.027 502.802 625.433 445.356C663.921 406.899 702.518 384.257 740.174 378.056C775.022 372.708 810.279 381.259 841.459 402.62C877.017 426.176 911.201 465.546 943.069 519.531C973.614 572.612 999.228 630.395 1019.36 691.628C1039.43 751.272 1055.49 813.157 1067.36 876.56C1078.21 935.785 1084 989.529 1084 1032.26Z" fill="#011ACC"/>
<path opacity="0.25" d="M1083.96 1015.01H1082.59C1082.59 928.045 1057.88 799.549 1019.58 687.638C972.551 550.633 910.803 452.086 845.221 409.495C774.105 363.586 699.118 380.988 622.178 461.316C592.154 492.611 554.462 516.262 510.041 531.597C469.394 545.145 427.619 551.8 385.714 551.403H376.164C330.812 550.394 285.683 542.72 241.6 528.52C201.762 516.124 163.345 496.725 127.366 470.834C97.8121 448.817 75.2401 424.06 60.2282 397.332C44.1673 368.489 37.403 338.637 40.116 308.015C42.3225 283.114 50.9679 257.924 65.4371 233.167C81.0278 206.824 103.744 180.577 132.936 155.243C197.578 99.2393 294.015 46.793 419.825 -0.75L420.187 1.02866C294.558 48.4755 198.193 100.874 133.841 156.781C77.1934 205.959 46.1207 256.963 41.5991 308.255C36.4263 366.615 67.1734 423.628 128.161 469.248C192.984 517.32 285.768 547.509 376.309 549.432C379.456 549.432 382.639 549.432 385.786 549.432C482.405 549.432 565.784 517.752 621.346 459.73C661.606 417.715 701.867 392.429 741.043 385.074C776.925 378.226 813.526 386.109 845.945 407.668C881.069 430.406 914.674 468.335 946.108 520.492C976.037 571.619 1001.14 627.43 1020.84 686.677C1040.52 744.177 1056.26 803.915 1067.87 865.167C1078.36 922.228 1083.96 973.809 1083.96 1015.01Z" fill="#011ACC"/>
<path opacity="0.25" d="M1083.96 997.701H1082.63C1082.63 913.768 1058.5 789.983 1021.13 682.254C975.227 549.864 914.384 454.49 849.779 413.821C776.384 367.576 698.503 388.391 618.271 475.593C589.658 506.696 554.245 530.299 513.007 545.778C472.394 560.426 430.431 567.401 388.355 566.497C345.818 565.929 303.467 558.962 262.11 545.73C223.804 533.786 186.785 515.47 151.927 491.217C118.395 467.181 92.4947 439.636 75.023 409.495C56.2854 377.142 48.1464 343.156 50.8956 308.544C53.6052 280.755 61.8052 254.416 74.6613 232.206C89.3114 205.478 110.834 179.038 138.145 153.609C198.952 97.4126 289.385 45.5431 407.816 -0.75L408.177 0.980584C290 47.3218 199.422 98.999 138.905 155.003C85.5494 204.42 56.3577 255.953 52.0893 308.832C47.0251 375.171 82.6194 439.443 152.578 489.582C218.015 536.548 303.963 563.949 388.355 564.766H391.972C483.49 564.766 563.36 532.655 617.222 474.151C659.255 428.483 701.216 400.697 741.911 391.564C778.719 383.214 816.57 390.409 850.141 412.139C884.831 433.963 918.001 470.594 948.821 520.973C978.185 570.23 1002.83 624.148 1022.18 681.485C1041.35 736.916 1056.68 794.552 1067.98 853.678C1078.5 908.287 1083.96 958.09 1083.96 997.701Z" fill="#011ACC"/>
<path opacity="0.25" d="M1083.93 980.395H1082.63C1082.63 899.539 1059.11 780.32 1022.69 676.678C977.759 548.759 917.784 456.797 854.337 417.667C778.699 371.133 697.924 395.458 614.292 489.775C585.357 521.697 551.829 545.448 515.756 559.575C478.275 574.402 439.362 581.852 400.256 581.688H397.904C321.217 581.688 240.841 556.546 177.031 512.464C140.026 486.986 109.93 455.932 90.0349 422.282C80.0938 405.969 72.3029 387.538 66.9927 367.768C62.027 348.85 60.1526 328.741 61.4943 308.784C63.8217 280.829 71.424 254.108 83.5961 231.1C97.3057 204.036 117.309 177.356 143.065 151.83C199.82 95.6339 284.863 44.2933 395.806 -0.75L396.204 0.932513C285.406 45.9277 200.508 97.1242 143.824 153.08C93.7608 202.834 66.4862 255.184 62.7966 308.928C57.66 383.392 99.5123 457.038 177.682 510.83C240.045 554.095 319.59 579.525 397.506 579.525C478.028 579.525 556.885 552.172 613.424 488.188C657.302 438.674 700.963 408.101 743.249 397.284C780.987 387.417 820.112 393.887 854.879 415.744C889.063 436.751 921.727 472.084 951.968 520.733C980.749 568.116 1004.91 620.141 1023.88 675.572C1042.61 729.075 1057.57 784.773 1068.55 841.948C1078.61 894.491 1083.93 942.322 1083.93 980.395Z" fill="#011ACC"/>
<path opacity="0.25" d="M1083.93 963.089H1082.66C1082.66 885.213 1059.73 770.514 1024.21 670.813C980.292 547.268 921.583 458.672 858.967 421.08C781.05 374.21 697.382 402.236 610.313 504.004C554.389 569.381 479.366 596.782 403.222 596.782C333.628 596.41 265.007 575.042 202.533 534.289C161.585 507.417 127.944 473.238 105.264 435.742C94.0109 417.515 85.112 396.933 78.9297 374.835C73.1097 353.774 70.7537 331.301 72.0206 308.928C73.9686 280.826 80.9653 253.756 92.4223 229.995C107.343 199.37 126.084 172.351 147.839 150.099C200.761 93.8072 280.161 43.0915 383.797 -0.75L384.195 0.884441C280.703 44.6298 201.448 95.3936 148.635 151.397C101.863 201.152 76.5061 254.03 73.2867 309.073C68.4033 392.093 116.948 475.834 203.112 533.087C265.419 573.714 333.856 595.001 403.258 595.34C479.222 595.34 553.811 568.083 609.445 502.946C655.168 449.442 700.565 415.936 744.407 403.39C783.066 391.914 823.492 397.622 859.473 419.638C893.114 439.828 925.236 473.863 954.934 520.589C983.091 566.186 1006.75 616.379 1025.33 669.948C1043.59 721.351 1058.2 774.912 1068.95 829.931C1078.61 879.877 1083.93 927.036 1083.93 963.089Z" fill="#011ACC"/>
<path opacity="0.25" d="M1083.89 945.784H1082.66C1082.66 870.936 1060.31 760.611 1025.73 664.756C982.715 545.634 925.164 460.114 863.633 424.012C783.474 376.95 696.911 408.726 606.334 518.425C559.309 575.535 495.716 607.743 422.791 611.685C417.8 611.685 412.772 612.069 407.743 612.069C345.464 611.526 284.045 592.68 227.891 556.883C183.362 528.424 146.284 491.361 120.746 449.635C108.136 429.5 98.081 406.768 90.9754 382.334C84.282 358.951 81.3851 333.952 82.4747 308.977C84.0856 280.683 90.5179 253.247 101.285 228.745C114.723 198.209 132.026 170.985 152.434 148.273C201.593 91.8843 275.422 41.7935 371.787 -0.75L372.185 0.788297C275.929 43.2357 202.172 93.2303 153.266 149.474C109.858 199.277 86.3814 252.973 83.7046 308.928C79.2553 401.178 134.673 495.639 228.397 555.393C284.678 591.222 346.208 610.129 408.612 610.771C479.728 610.771 550.483 583.803 605.574 517.031C653.178 459.345 700.348 422.859 745.781 408.437C785.308 395.344 826.997 400.252 864.176 422.378C897.31 441.607 928.853 474.584 958.009 519.867C985.56 563.792 1008.72 612.265 1026.92 664.083C1044.71 713.55 1058.95 765.135 1069.46 818.153C1078.75 865.936 1083.89 911.316 1083.89 945.784Z" fill="#011ACC"/>
<path opacity="0.25" d="M1083.89 928.526H1082.7C1082.7 856.418 1060.99 750.66 1027.21 658.458C997.474 577.217 945.746 470.978 868.263 426.512C785.897 379.017 696.441 414.927 602.355 532.847C579.243 561.722 552.245 584.553 522.774 600.147C494.041 615.219 463.686 624.112 432.848 626.491C401.765 628.957 370.573 626.016 340.064 617.742C309.745 609.655 280.244 596.877 252.163 579.669C229.195 565.731 207.375 548.671 187.051 528.761C168.024 510.16 150.774 488.544 135.685 464.393C105.589 415.359 90.686 361.711 92.6032 309.169C93.7524 280.65 99.475 252.787 109.387 227.447C121.588 197.066 137.657 169.726 156.883 146.638C202.208 90.2499 270.503 40.6879 359.814 -0.75L360.212 0.788297C271.045 42.13 202.931 91.5478 157.715 147.792C117.563 197.786 96.1481 252.011 94.0501 309.073C90.4328 411.081 152.651 516.647 252.814 578.275C349.288 637.403 498.538 660.67 601.559 531.741C651.116 469.536 700.022 429.829 747.047 413.533C787.418 398.774 830.374 402.828 868.77 425.022C901.326 443.722 932.326 475.353 960.867 519.002C987.804 561.171 1010.47 607.845 1028.29 657.833C1045.65 705.374 1059.53 755.02 1069.75 806.087C1078.86 851.995 1083.89 895.452 1083.89 928.526Z" fill="#011ACC"/>
<path opacity="0.25" d="M1083.89 911.22H1082.7C1082.7 787.387 1008.65 504.773 872.894 428.531C788.357 381.036 695.971 420.888 598.376 546.98C576.984 574.698 552.012 597.072 524.655 613.031C498.472 628.072 470.635 637.405 442.216 640.672C413.823 643.953 385.226 642.093 357.21 635.144C302.668 621.809 251.109 592.226 206.404 548.614C185.864 528.516 167.296 505.084 151.131 478.862C118.358 425.358 101.755 366.615 103.166 309.025C103.933 280.444 108.974 252.353 117.997 226.389C128.738 196.139 143.339 168.588 161.151 144.956C202.569 88.5193 265.475 39.5822 347.805 -0.75L348.202 0.692154C266.053 40.736 203.51 89.5769 161.983 145.869C125.123 196.344 105.734 251.002 104.323 309.073C101.61 421.32 170.629 538.327 276.109 600.147C320.158 626.225 367.771 639.986 415.991 640.576C479.222 640.576 544.261 614.665 597.544 545.826C648.982 479.391 699.733 436.415 748.386 418.099C789.572 401.639 833.791 404.819 873.4 427.089C1009.59 503.571 1083.89 787.002 1083.89 911.22Z" fill="#011ACC"/>
<path opacity="0.25" d="M1083.86 893.914H1082.73C1082.73 774.792 1010.39 503.139 877.596 430.166C790.781 382.478 695.609 426.56 594.433 561.257C574.581 587.873 551.445 609.774 526.03 626.01C502.211 641.011 476.713 650.753 450.536 654.853C439.951 656.574 429.296 657.425 418.632 657.401C376.927 656.944 335.713 645.405 297.415 623.462C246.352 595.015 201.271 550.466 166.071 493.668C149.732 467.091 136.557 437.342 127.004 405.457C117.837 374.877 113.206 342.23 113.367 309.313C113.69 280.456 118.044 251.931 126.208 225.188C135.603 195.19 148.791 167.55 165.203 143.465C202.931 86.885 260.446 38.4767 335.795 -0.509521L336.193 0.88456C194.611 74.0498 115.754 183.605 114.524 309.313C113.186 432.137 188.57 560.729 297.849 622.02C335.826 643.931 376.726 655.488 418.125 656.007C450.715 656.425 483.038 648.158 513.184 631.695C543.329 615.231 570.686 590.904 593.637 560.152C647.029 489.102 699.588 442.712 749.796 422.282C794.362 404.207 837.48 406.37 878.03 428.675C909.428 445.933 939.235 475.209 966.654 515.781C992.359 554.669 1014.04 597.949 1031.11 644.47C1047.58 688.333 1060.78 734.237 1070.51 781.522C1079.12 823.874 1083.86 863.725 1083.86 893.914Z" fill="#011ACC"/>
<path opacity="0.25" d="M1083.86 876.608H1082.73C1082.73 762.149 1011.98 501.216 882.226 431.319C793.385 383.488 695.211 431.992 590.454 575.535C572.003 601.087 550.55 622.486 526.934 638.893C505.249 653.759 481.89 663.841 457.771 668.746C412.844 677.976 364.263 669.563 317.383 644.71C263.874 615.686 216.868 568.893 180.866 508.811C163.533 480.045 149.513 448.016 139.267 413.773C129.33 380.742 124.069 345.556 123.748 309.986C123.53 280.989 127.067 252.159 134.202 224.755C142.23 194.81 153.994 166.874 169.001 142.119C202.931 85.4428 255.021 37.4191 323.786 -0.509521L324.22 0.836489C194.973 72.175 124.11 181.923 124.653 309.986C125.231 443.578 206.44 583.659 317.781 643.172C350.656 661.253 385.839 670.768 421.417 671.198C484.611 671.198 543.031 638.365 589.658 574.477C645.039 498.62 699.407 448.769 751.243 426.272C797.039 406.418 841.242 407.86 882.624 429.973C913.408 446.558 942.635 474.776 969.44 513.811C994.519 551.128 1015.7 592.764 1032.42 637.595C1048.42 679.686 1061.25 723.774 1070.72 769.216C1079.23 809.692 1083.86 847.861 1083.86 876.608Z" fill="#011ACC"/>
<path opacity="0.25" d="M1083.82 859.302H1082.77C1082.77 809.788 1067.32 719.894 1032.89 631.105C1005.61 561.161 958.588 469.873 886.856 431.896C795.881 383.824 694.813 436.703 586.619 589.619C551.17 639.566 509.969 670.765 464.137 682.302C442.671 687.63 420.728 688.699 399.026 685.475C377.252 682.185 355.883 675.223 335.433 664.756C279.876 635.606 231.334 586.917 195.009 523.905C176.882 493.069 162.168 458.945 151.312 422.57C140.721 387.234 134.81 349.73 133.841 311.717C133.203 282.477 135.997 253.283 142.124 225.187C148.793 195.32 159.106 167.111 172.654 141.687C202.569 84.1927 249.595 36.5055 311.776 -0.46167L312.21 0.836268C195.009 70.4442 131.996 180.769 134.781 311.717C137.82 455.932 224.273 607.118 335.831 663.602C427.856 710.184 518.903 682.831 585.715 588.802C643.05 507.994 699.263 454.49 752.726 429.829C799.751 408.149 844.968 408.437 887.254 430.742C917.459 446.702 946.072 474.007 972.297 511.407C996.768 547.186 1017.46 587.23 1033.79 630.432C1049.4 670.774 1061.92 713.097 1071.16 756.765C1079.33 795.511 1083.82 831.949 1083.82 859.302Z" fill="#011ACC"/>
<path opacity="0.25" d="M1083.82 842.045H1082.77C1082.77 794.742 1067.76 708.934 1034.23 623.702C1007.75 556.402 961.518 468.671 891.45 432.425C798.377 384.353 694.452 442.039 582.496 604.089C549.072 652.449 510.982 683.408 469.274 696.099C449.826 701.937 429.823 703.817 409.95 701.675C390.058 699.434 370.476 693.712 351.711 684.657C298.32 659.228 247.714 607.743 209.189 539.865C170.195 471.075 147.008 390.843 144.078 314.505C142.77 284.732 144.683 254.864 149.757 225.812C155.048 195.895 163.863 167.276 175.874 141.014C202.244 83.3275 243.988 35.7364 299.948 -0.46167L300.237 0.788197C194.611 69.0982 139.447 180.481 144.91 314.457C151.348 471.555 240.37 630.192 352.037 683.36C375.741 694.896 400.768 700.897 426.011 701.098C483.345 701.098 536.99 667.832 581.736 603.032C641.096 517.127 699.118 459.922 754.21 432.954C802.428 409.398 848.694 408.918 891.667 431.031C921.257 446.366 949.255 472.421 974.866 508.571C998.722 542.881 1018.93 581.377 1034.91 622.981C1068.77 708.501 1083.82 794.598 1083.82 842.045Z" fill="#011ACC"/>
<path opacity="0.25" d="M1083.78 824.739H1082.77C1082.77 779.695 1068.3 697.733 1035.53 616.107C1009.7 551.499 964.52 467.085 896.008 432.377C875.578 421.929 853.872 416.583 831.982 416.609C753.739 416.609 668.732 483.91 578.372 618.511C546.829 665.381 511.56 696.051 473.47 709.847C458.54 715.213 443.141 717.929 427.675 717.923C406.676 717.776 385.835 713.101 365.963 704.078C313.368 680.764 262.653 628.462 223.188 556.931C183.723 485.4 159.451 401.178 154.278 320.081C152.217 289.607 153.129 258.907 156.991 228.745C160.92 198.526 168.236 169.262 178.695 141.927C201.05 83.0871 237.802 35.2076 287.757 -0.413574L288.227 0.740149C193.599 68.0407 146.393 181.586 155.255 319.985C165.926 486.65 258.746 654.661 366.506 702.492C386.101 711.362 406.648 715.957 427.349 716.096C482.079 716.096 534.024 682.446 577.793 617.453C639.288 526.117 699.009 465.21 755.729 435.934C805.105 410.456 852.456 408.822 896.37 431.127C925.308 445.837 952.691 470.882 977.796 505.638C1001.04 538.501 1020.77 575.463 1036.43 615.482C1069.13 697.3 1083.78 779.551 1083.78 824.739Z" fill="#011ACC"/>
<path opacity="0.25" d="M1083.78 807.433H1082.81C1082.81 764.601 1068.59 686.436 1036.83 608.271C1011.51 546.259 967.486 465.258 900.53 431.944C856.037 409.783 807.963 412.379 757.61 439.732C699.444 471.267 637.841 536.212 574.574 632.644C544.767 678.024 512.067 708.357 477.377 722.827C445.369 736.102 411.057 735.917 379.13 722.298C328.018 701.435 277.846 649.181 238.055 575.15C198.995 502.753 173.961 418.681 165.166 330.368C162.168 298.77 161.889 266.821 164.334 235.138C166.684 204.207 172.247 173.857 180.866 144.956C199.495 83.8752 232.871 32.7554 275.748 -0.365479L276.254 0.740173C162.381 91.7401 158.402 246.243 166.143 330.176C182.493 507.273 276.146 678.985 379.565 721.048C395.834 727.779 412.769 731.247 429.809 731.335C472.638 731.335 523.606 708.501 573.959 631.779C637.37 535.202 699.082 470.161 757.393 438.53C808.035 411.081 856.29 408.437 901 430.742C931.174 446.491 958.35 470.918 980.581 502.273C1003.24 533.706 1022.49 569.189 1037.77 607.695C1069.53 686.004 1083.78 764.457 1083.78 807.433Z" fill="#011ACC"/>
<path opacity="0.25" d="M1083.75 790.127H1082.81C1082.81 749.506 1068.99 675.043 1038.1 600.243C1013.46 540.731 970.416 463.047 905.015 431.079C859.763 408.966 810.676 412.619 759.165 441.895C699.371 475.93 635.924 544.913 570.595 646.921C542.452 690.811 512.139 720.759 480.451 735.95C451.626 749.917 420.217 751.431 390.706 740.277C363.765 729.774 338.726 712.057 317.13 688.215C292.964 661.924 271.692 631.26 253.935 597.119C215.109 522.928 189.005 438.319 177.465 349.261C168.35 278.018 170.231 209.853 183.108 151.734C189.602 121.576 199.69 92.9957 212.987 67.0793C226.636 40.7263 243.8 17.9168 263.63 -0.221191L264.172 0.788316C190.126 68.7137 158.8 195.671 178.37 349.02C202.172 535.779 293.581 703.454 390.959 739.075C403.912 743.897 417.298 746.355 430.75 746.382C479.981 746.382 527.477 712.395 569.908 646.104C635.345 543.951 698.901 474.872 758.84 440.789C810.604 411.321 859.871 407.668 905.377 429.925C934.786 444.947 961.341 468.402 983.149 498.62C1005.19 528.655 1023.96 562.634 1038.93 599.57C1052.89 633.329 1064.15 668.936 1072.53 705.809C1079.16 733.1 1082.93 761.471 1083.75 790.127V790.127Z" fill="#011ACC"/>
<path opacity="0.25" d="M1083.75 772.821H1082.84C1082.84 734.364 1069.39 663.506 1039.43 592.071C1015.42 534.962 973.419 460.499 909.573 429.877C863.452 407.86 813.425 412.667 760.757 443.77C699.263 480.304 633.97 553.47 566.616 661.198C540.101 703.598 511.994 733.306 483.056 748.93C457.185 763.44 428.497 766.557 401.196 757.823C376.009 749.15 352.553 733.269 332.467 711.289C309.559 686.559 289.392 657.655 272.564 625.433C236.536 558.421 208.357 472.901 193.056 384.642C179.527 306.429 176.814 230.812 185.279 165.723C189.272 133.212 196.969 101.7 208.104 72.271C218.758 44.3789 233.606 19.6894 251.729 -0.269287L252.271 0.644077C186.509 72.223 164.696 215.573 193.924 384.353C209.189 472.469 237.332 557.892 273.179 624.712C311.74 696.82 356.088 742.296 401.377 756.621C411.27 759.78 421.407 761.393 431.581 761.428C478.317 761.428 524.221 727.105 565.928 660.477C633.391 552.604 698.792 479.343 760.359 442.76C813.28 411.273 863.525 406.61 909.754 428.771C938.375 443.151 964.297 465.641 985.717 494.678C1007.09 523.451 1025.36 556.035 1039.98 591.494C1053.47 623.713 1064.38 657.726 1072.53 692.974C1079.84 723.596 1083.75 752.006 1083.75 772.821Z" fill="#011ACC"/>
<path opacity="0.25" d="M432.775 777.725C425.406 777.726 418.054 776.792 410.818 774.936C388.745 768.745 368.008 756.01 350.156 737.681C329.669 716.89 311.51 692.336 296.222 664.756C278.824 633.784 263.695 600.672 251.041 565.872C237.409 528.624 225.921 490.056 216.677 450.5C196.094 363.009 186.219 271.865 188.86 193.797C191.717 108.036 209.334 40.9283 239.683 -0.221191L240.298 0.547957C210.093 41.5532 192.622 108.373 189.656 193.893C187.015 271.817 196.89 362.865 217.437 450.211C236.97 533.231 264.462 607.214 296.837 664.083C332.033 725.807 371.462 763.736 410.927 773.831C418.211 775.685 425.611 776.618 433.028 776.619C477.232 776.619 520.495 742.488 561.877 674.755C593.817 621.511 629.289 572.184 667.864 527.367C696.29 494.233 727.92 466.296 761.914 444.299C815.957 410.648 867.142 405.024 914.131 427.185C941.995 440.891 967.293 462.458 988.286 490.399C1009.12 517.844 1026.95 549.043 1041.24 583.082C1054.4 613.764 1065.08 646.219 1073.08 679.898C1079.28 704.329 1082.85 729.803 1083.67 755.563H1082.81C1082.81 720.327 1069.57 651.488 1040.48 583.611C1017.08 528.953 976.095 457.663 913.878 428.291C867.142 406.226 816.21 411.946 762.312 445.356C699.226 484.439 632.089 561.882 562.637 675.476C537.713 716.241 511.705 745.228 485.335 761.572C468.927 772.046 450.977 777.562 432.775 777.725V777.725Z" fill="#011ACC"/>
<path opacity="0.25" d="M433.499 792.819C408.395 792.819 383.507 780.513 359.235 756.044C341.163 737.22 325.132 715.171 311.595 690.522C295.967 662.399 282.24 632.494 270.575 601.157C244.878 531.385 225.556 457.776 213.023 381.901C199.784 303.448 193.779 226.966 195.66 160.771C197.686 90.2499 208.755 34.6309 227.674 -0.173096L228.325 0.499909C209.515 35.0635 198.518 90.5864 196.492 160.771C194.611 226.918 200.616 303.304 213.855 381.661C242.324 549.912 298.211 693.214 359.742 755.179C390.344 785.993 421.923 797.386 453.792 788.829C488.952 779.599 524.076 745.949 558.187 688.888C629.738 569.141 698.901 487.227 763.759 445.404C818.887 409.831 871.013 403.005 918.689 425.118C945.791 438.165 970.464 458.806 991.035 485.64C1011.28 511.817 1028.65 541.659 1042.62 574.285C1055.37 603.486 1065.73 634.411 1073.55 666.535C1079.57 689.592 1083.05 713.684 1083.89 738.065H1083.06C1083.06 704.848 1070.18 639.566 1041.89 574.621C1019.07 522.319 979.098 454.057 918.436 425.935C870.94 403.966 819.032 410.745 764.121 446.173C699.371 487.948 630.28 569.766 558.839 689.369C524.619 746.67 489.314 780.417 453.936 789.743C447.216 791.658 440.371 792.688 433.499 792.819Z" fill="#011ACC"/>
<path opacity="0.25" d="M434.077 807.817C415.551 807.519 397.448 800.415 381.771 787.291C362.945 771.366 346.367 751.174 332.793 727.634C316.402 699.818 302.162 669.878 290.289 638.268C265.438 574.237 243.879 494.389 227.891 407.86C213.247 329.973 204.236 250.406 200.978 170.241C198.482 94.8167 203.582 35.9768 215.7 0.115234L216.424 0.54788C204.342 36.2652 199.278 94.9609 201.774 170.193C205.032 250.275 214.031 329.761 228.65 407.572C244.711 494.101 266.234 573.948 290.904 637.932C318.866 710.472 349.577 760.467 382.205 786.522C397.756 799.522 415.707 806.559 434.077 806.856C443.907 806.785 453.668 804.693 463.016 800.655C493.076 787.916 523.678 755.227 553.919 703.502C627.531 577.602 698.611 491.169 765.025 446.654C821.275 409.014 874.304 401.082 922.704 423.147C949.041 435.586 973.076 455.351 993.205 481.122C1012.87 506.042 1029.77 534.544 1043.41 565.776C1070.98 627.644 1083.53 689.657 1083.53 721.048H1082.73C1082.73 689.801 1070.22 628.029 1042.73 566.305C1020.48 516.31 981.521 450.932 922.451 424.156C874.268 402.188 821.419 410.071 765.387 447.616C699.009 492.034 627.929 578.371 554.534 704.127C524.185 756.044 493.474 788.829 463.233 801.664C453.813 805.709 443.977 807.785 434.077 807.817V807.817Z" fill="#011ACC"/>
<path opacity="0.25" d="M434.331 822.912C423.004 822.841 411.805 819.718 401.413 813.73C368.387 795.03 336.989 747.872 308.159 673.649C283.742 610.771 261.134 527.511 242.722 432.857C226.607 349.437 214.728 264.672 207.163 179.135C200.544 102.22 199.278 37.1786 203.546 0.0671387H204.306C199.965 37.0824 201.231 102.22 207.923 178.798C215.483 264.364 227.35 349.161 243.445 432.617C261.821 527.222 284.429 610.483 308.846 672.976C337.568 746.959 368.821 793.925 401.739 812.384C412.006 818.359 423.086 821.467 434.294 821.518C471.625 821.518 510.258 786.666 550.048 717.346C625.795 585.726 698.684 494.389 766.87 447.231C824.204 407.476 878.139 398.438 927.189 420.455C952.782 432.288 976.204 451.176 995.918 475.882C1014.96 499.697 1031.38 526.967 1044.68 556.883C1071.48 615.819 1083.67 674.37 1083.67 703.838H1082.91C1082.91 640.335 1029.81 467.71 926.864 421.609C878.03 399.688 824.277 408.677 767.159 448.337C699.154 495.495 626.338 586.399 550.7 718.5C510.873 787.916 471.878 822.912 434.331 822.912Z" fill="#011ACC"/>
<path opacity="0.25" d="M434.439 837.959C428.672 837.947 422.927 837.011 417.329 835.17C359.706 815.942 308.123 699.704 264.028 489.294C228.216 318.447 206.874 132.649 195.335 32.9003C193.888 20.3055 192.658 9.44128 191.718 0.355713H192.441C193.526 9.48935 194.756 20.3536 196.058 32.9484C207.525 132.745 228.867 318.543 264.787 489.342C308.81 699.368 360.212 815.509 417.546 834.497C436.79 840.891 456.975 836.228 477.558 820.653C499.623 803.972 522.702 774.215 546.287 732.345C624.059 593.61 698.865 497.899 768.607 447.856C826.99 405.985 881.792 395.89 931.386 417.763C956.212 428.949 979.024 446.857 998.378 470.354C1016.88 492.876 1032.88 518.773 1045.91 547.268C1057.56 572.285 1067.09 598.934 1074.34 626.731C1079.78 645.838 1082.96 665.944 1083.78 686.34H1083.06C1082.23 666.058 1079.06 646.066 1073.65 627.068C1066.4 599.427 1056.89 572.926 1045.29 548.038C1024.17 502.514 987.201 443.049 931.277 418.244C881.756 396.419 827.135 406.562 768.968 448.289C699.299 498.283 624.565 593.898 546.865 732.489C523.317 774.504 500.13 804.308 478.136 821.085C464.938 831.712 449.867 837.531 434.439 837.959Z" fill="#011ACC"/>
<path opacity="0.25" d="M434.439 853.005C430.222 853.024 426.016 852.46 421.887 851.323C380.107 839.737 342.849 770.706 307.978 640.336C277.882 527.751 254.442 388.151 233.751 264.991C214.109 148.273 197.18 47.3219 179.708 0.355766L180.323 -0.0288086C197.831 47.0335 214.796 147.936 234.583 264.799C255.237 387.911 278.678 527.463 308.774 639.759C343.536 769.841 380.65 838.68 422.176 850.169C439.72 854.976 458.35 849.4 477.557 833.44C498.068 816.422 519.844 787.003 542.343 746.093C622.178 600.821 698.865 500.302 770.234 447.375C829.63 403.39 885.301 392.141 935.69 413.725C959.786 424.48 981.953 441.729 1000.8 464.393C1018.73 485.813 1034.3 510.493 1047.03 537.702C1071.19 588.562 1083.82 642.018 1083.82 668.602H1083.13C1083.13 642.162 1070.51 588.899 1046.45 538.183C1025.83 494.918 989.877 438.194 935.545 414.638C885.192 393.439 829.703 404.543 770.487 448.433C699.19 501.312 622.575 601.686 542.597 746.911C520.061 787.916 498.212 817.384 477.485 834.497C464.722 845.897 449.808 852.309 434.439 853.005V853.005Z" fill="#011ACC"/>
<path opacity="0.25" d="M434.295 868.1C430.847 868.103 427.407 867.669 424.021 866.802C413.989 863.939 404.614 857.941 396.675 849.304C387.266 839.132 379.007 827.217 372.149 813.923C357.68 786.666 343.862 749.555 330.08 700.377C304.759 609.377 283.67 492.467 263.377 379.45C233.859 214.996 206.187 59.6763 167.771 0.451861L168.241 -0.125C206.621 59.2917 234.51 214.708 264.064 379.017C284.321 492.034 305.301 608.897 330.731 699.848C344.441 749.17 358.114 786.233 372.583 813.394C388.933 843.968 405.754 861.177 424.021 865.936C440.263 870.167 457.699 864.11 475.894 847.909C495.282 830.652 516.227 801.328 538.111 760.659C620.043 608.608 698.648 503.187 771.717 447.375C832.126 401.226 888.629 388.872 939.669 410.648C962.991 420.778 984.509 437.137 1002.9 458.72C1020.26 479.027 1035.37 502.494 1047.79 528.424C1071.23 576.496 1083.49 626.827 1083.49 651.536H1082.84C1082.84 626.971 1070.62 576.977 1047.25 528.905C1027.21 487.659 992.193 433.723 939.452 411.225C888.629 389.545 832.307 401.611 772.043 447.904C699.046 503.619 620.55 608.945 538.654 760.948C516.733 801.664 495.716 831.084 476.255 848.39C461.822 861.61 447.715 868.1 434.295 868.1Z" fill="#011ACC"/>
<path opacity="0.25" d="M434.077 883.194C431.14 883.19 428.209 882.82 425.324 882.089C409.661 878.099 395.336 863.677 381.554 838.055C369.255 815.221 357.644 783.83 346.032 741.911C324.328 664.275 306.676 564.719 287.866 459.297C253.212 266.145 217.69 66.2621 155.798 0.499909L156.196 -0.173096C218.232 65.7814 253.863 265.808 288.481 459.249C307.291 564.622 325.052 664.179 346.611 741.767C358.222 783.445 369.798 814.788 382.06 837.574C395.734 863.052 409.914 877.329 425.468 881.271C441.023 885.213 456.866 878.772 474.193 862.379C492.642 844.977 512.863 815.605 534.313 774.985C618.343 615.963 698.829 505.542 773.562 446.847C835.056 398.775 892.318 385.026 943.974 406.707C995.629 428.387 1029.41 479.631 1048.88 518.954C1071.63 564.574 1083.53 611.637 1083.53 634.327H1082.91C1082.91 611.589 1071.05 564.767 1048.37 519.291C1028.84 480.064 994.833 428.868 943.648 407.38C892.463 385.891 835.129 399.207 773.634 447.375C698.973 506.071 618.56 616.396 534.566 775.321C513.08 815.99 492.823 845.458 474.302 862.908C460.375 876.464 446.774 883.194 434.077 883.194Z" fill="#011ACC"/>
<path opacity="0.25" d="M433.824 898.193C431.239 898.187 428.66 897.865 426.119 897.231C412.627 893.77 400.4 881.367 388.716 859.302C378.262 839.449 368.423 812.096 358.62 775.658C340.534 707.54 325.015 617.646 308.738 522.463C290.289 414.35 271.298 302.487 245.471 207.353C216.207 99.1913 182.964 31.5543 143.86 0.499909L144.15 -0.173096C164.913 16.3155 184.483 43.5722 201.918 80.9721C217.654 114.238 232.087 155.531 245.977 207.112C271.696 302.247 290.832 414.158 309.28 522.415C325.558 617.549 340.895 707.444 359.163 775.513C368.93 811.904 378.733 839.16 389.187 858.918C400.762 880.839 412.844 893.145 426.192 896.558C455.13 903.913 489.061 868.869 530.298 789.31C616.426 623.222 698.829 507.705 775.226 445.981C837.625 395.506 895.791 380.892 948.025 402.476C997.763 423.051 1030.9 471.796 1049.96 509.051C1071.66 551.739 1083.53 596.638 1083.53 617.165H1082.95C1082.95 596.734 1071.23 552.076 1049.45 509.532C1030.5 472.373 997.438 423.724 947.736 403.053C895.647 381.517 837.697 396.131 775.407 446.318C699.082 507.994 616.752 623.414 530.66 789.406C493.04 862.619 461.171 898.193 433.824 898.193Z" fill="#011ACC"/>
<path opacity="0.25" d="M433.282 913.383C431.035 913.386 428.794 913.096 426.59 912.518C404.452 906.749 386.148 872.618 369.002 805.029C353.628 744.363 340.642 662.641 326.897 575.823C308.81 462.999 288.734 335.128 258.891 228.937C224.707 107.075 183.145 32.3715 131.887 0.499909L132.14 -0.173096C183.506 31.7946 225.178 106.642 259.434 228.649C289.385 334.935 309.533 462.854 327.439 575.679C341.185 662.208 354.135 744.171 369.545 804.789C386.618 872.09 404.777 906.076 426.698 911.797C453.213 918.719 485.805 883.338 526.355 803.635C614.618 630.288 698.937 509.58 776.999 444.779C810.459 417.042 843.051 399.4 873.907 392.285C899.959 385.947 926.77 387.891 952.149 397.957C1000.3 417.571 1032.49 463.72 1051.01 498.908C1072.17 539.144 1083.57 580.919 1083.57 599.859H1083.02C1083.02 581.159 1071.63 539.577 1050.47 499.437C1032.02 464.248 999.825 418.196 951.932 398.486C899.264 377.046 840.483 392.766 777.216 445.212C699.226 509.965 614.943 630.625 526.753 803.828C489.459 877.474 458.748 913.383 433.282 913.383Z" fill="#011ACC"/>
<path opacity="0.25" d="M432.811 928.526C430.794 928.518 428.783 928.245 426.807 927.709C407.563 922.565 391.972 891.991 377.756 831.565C364.915 776.956 354.171 702.06 342.813 622.693C325.558 501.648 305.808 364.596 272.42 248.166C233.823 113.709 183.94 32.9003 119.914 0.499909L120.095 -0.173096C184.266 32.1311 234.221 113.276 272.89 247.877C306.314 364.259 325.956 501.504 343.319 622.597C354.678 701.867 365.421 776.811 378.262 831.373C392.406 891.511 407.852 921.94 426.915 927.036C438.889 930.257 452.236 923.526 467.502 906.461C483.707 888.434 501.649 859.447 522.412 817.961C612.845 637.211 699.046 511.167 778.807 443.337C812.81 414.494 845.945 395.842 877.271 388.247C903.502 381.416 930.585 383.064 956.237 393.054C1002.79 411.706 1034.01 455.547 1052.02 488.669C1061.44 505.968 1069.37 524.607 1075.68 544.24C1079.97 556.349 1082.63 569.366 1083.53 582.697H1083.02C1082.1 569.516 1079.46 556.648 1075.21 544.673C1068.91 525.104 1060.99 506.53 1051.59 489.294C1033.5 456.028 1002.5 412.379 956.092 393.919C902.845 372.528 843.268 389.401 779.097 444.01C699.516 511.791 613.171 637.788 522.846 818.442C502.047 860.024 484.069 889.011 467.827 907.086C454.877 921.411 443.338 928.526 432.811 928.526Z" fill="#011ACC"/>
<path opacity="0.25" d="M432.088 943.62C430.326 943.621 428.568 943.379 426.843 942.899C390.453 932.804 375.622 814.692 356.812 665.237C340.715 536.933 322.447 391.564 285.948 265.808C243.481 119.43 185.243 32.9003 107.941 0.451861V-0.125C129.262 8.73451 149.421 21.9349 167.699 39.0054C185.809 56.182 202.164 76.4134 216.351 99.1913C231.203 123.102 244.286 148.859 255.418 176.106C267.243 204.974 277.599 234.861 286.419 265.568C304.637 330.664 319.076 397.519 329.609 465.546C340.823 534.001 349.577 603.705 357.318 665.189C376.056 814.451 390.887 932.323 426.951 942.37C437.803 945.447 450.392 938.525 465.078 921.315C480.488 903.192 497.959 874.06 518.469 832.382C610.964 643.989 699.154 512.513 780.616 441.511C815.197 411.418 848.838 392.045 880.635 383.824C907.024 376.656 934.327 378.074 960.216 387.959C1005.14 405.745 1035.42 446.895 1052.93 478.334C1073.94 516.118 1083.42 551.883 1083.42 565.247H1082.95C1082.95 551.98 1073.51 516.358 1052.53 478.718C1035.06 447.375 1004.85 406.322 960.071 388.583C906.245 367.288 845.908 385.267 780.797 442.039C699.371 512.945 611.217 644.325 518.759 832.575C498.249 874.349 480.741 903.48 465.295 921.652C452.887 936.65 441.927 943.62 432.088 943.62Z" fill="#011ACC"/>
<path opacity="0.25" d="M431.292 958.763C429.747 958.757 428.207 958.531 426.698 958.09C412.229 953.86 401.051 929.006 391.646 879.781C383.073 834.882 376.635 774.504 369.219 704.607C355.618 576.544 338.653 417.138 299.513 282.441C253.646 124.525 187.051 32.3235 95.9312 0.451861V-0.125C120.658 8.45084 144.234 22.0729 165.818 40.2553C186.667 57.9946 205.582 79.4594 222.031 104.047C238.858 129.34 253.627 156.926 266.09 186.345C279.16 217.146 290.477 249.203 299.948 282.249C339.087 416.85 356.052 576.448 369.653 704.511C377.105 774.408 383.507 834.786 392.08 879.637C401.413 928.574 412.482 953.331 426.807 957.513C436.827 960.397 448.511 953.379 462.546 936.025C477.268 917.758 494.27 888.53 514.527 846.563C609.155 650.575 699.299 513.57 782.497 439.443C817.513 408.149 851.769 387.862 884.035 379.017C910.632 371.379 938.235 372.551 964.412 382.43C1007.82 399.303 1037.05 438.049 1054.01 467.613C1074.12 502.61 1083.53 536.164 1083.53 547.797H1083.06C1083.06 536.212 1073.73 502.85 1053.65 467.95C1036.72 438.482 1007.46 399.832 964.267 383.007C877.668 349.357 729.431 402.236 514.888 846.708C494.631 888.866 477.485 918.19 463.016 936.65C450.789 951.408 440.408 958.763 431.292 958.763Z" fill="#011ACC"/>
<path opacity="0.25" d="M430.46 973.858C429.134 973.864 427.811 973.67 426.517 973.281C413.965 969.483 404.813 946.937 397.253 902.327C390.453 861.514 385.714 806.183 380.216 741.719C368.785 608.079 354.569 441.751 313.187 298.353C264.317 129.044 189.366 31.7466 83.9578 0.451861V-0.125C112.256 8.14037 139.436 22.1149 164.552 41.3129C188.049 59.593 209.452 82.2572 228.108 108.613C246.865 135.206 263.273 164.56 277.014 196.104C291.275 228.728 303.483 262.863 313.512 298.16C354.931 441.607 369.147 607.983 380.577 741.671C386.04 805.943 390.814 861.418 397.579 902.231C404.813 946.553 414.146 968.954 426.517 972.752C445.002 978.328 471.698 942.803 510.547 860.889C729.503 399.4 880.418 343.108 968.463 376.902C1010.13 392.91 1038.53 429.3 1055.03 457.038C1074.45 489.727 1083.49 520.3 1083.49 530.684H1083.06C1083.06 519.964 1073.22 488.525 1054.7 457.374C1038.17 429.733 1009.92 393.439 968.355 377.431C880.418 343.781 729.612 400.169 510.909 861.177C474.591 937.708 448.8 973.858 430.46 973.858Z" fill="#011ACC"/>
<path opacity="0.25" d="M429.447 989C428.302 988.996 427.162 988.819 426.047 988.471C402.679 981.02 397.109 895.501 389.874 776.956C381.554 645.527 370.123 465.546 326.897 313.688C275.458 133.515 192.115 30.9775 71.9845 0.403814V-0.0769043C103.876 7.80625 134.684 22.0694 163.358 42.2263C189.601 60.9467 213.604 84.7458 234.583 112.844C255.222 140.702 273.236 171.792 288.227 205.43C303.574 239.916 316.587 276.144 327.114 313.688C346.285 380.988 360.863 459.009 371.643 551.883C380.903 631.923 385.823 709.03 390.127 777.1C397.651 895.26 403.041 980.636 426.3 987.991C442.831 993.279 468.406 957.417 506.785 875.214C605.755 663.218 699.878 514.676 786.548 434.3C822.722 400.65 857.954 378.633 891.125 368.97C918.024 360.563 946.08 361.24 972.732 370.941C1012.78 386.084 1040.19 420.167 1056.18 446.125C1074.27 475.209 1083.67 503.812 1083.67 513.426H1083.28C1083.28 505.59 1075.25 477.901 1055.89 446.51C1039.94 420.599 1012.49 386.613 972.695 371.47C917.17 350.463 854.626 371.758 786.838 434.781C700.203 515.301 605.972 663.554 507.183 875.551C487.397 917.95 471.263 947.658 457.916 965.974C446.449 981.405 437.188 989 429.447 989Z" fill="#011ACC"/>
<path opacity="0.25" d="M428.434 1003.95C427.446 1003.96 426.461 1003.8 425.504 1003.47C416.316 1000.39 410.131 981.982 406.007 945.495C402.39 911.845 400.292 865.119 398.121 810.894C392.623 675.043 385.063 488.813 340.244 328.734C287.793 140.293 193.418 29.6795 59.9751 0.403814V-0.0769043C95.6681 7.41089 130.319 21.9448 162.779 43.0435C191.659 62.2531 218.175 87.1824 241.419 116.978C263.928 146.069 283.515 178.901 299.694 214.66C316.096 250.927 329.833 289.209 340.715 328.974C385.425 489.294 392.949 675.38 398.592 811.231C402.932 918.863 406.08 996.644 425.722 1003.23C432.956 1005.68 442.578 998.422 454.66 980.395C466.742 962.368 483.02 932.324 502.626 889.54C603.91 669.227 699.878 515.06 788.393 431.223C825.145 396.419 860.739 373.537 894.489 363.394C923.897 353.418 954.841 354.864 983.649 367.56C1012.46 380.256 1037.92 403.669 1057.01 435.021C1075.46 463.864 1083.46 489.438 1083.46 496.12H1083.1C1083.1 489.102 1074.31 462.758 1056.73 435.309C1035.84 401.921 1007.99 377.499 976.674 365.124C920.606 344.213 857.303 366.567 788.574 431.608C700.167 515.397 604.091 669.563 502.806 889.78C466.85 968.377 443.627 1003.95 428.434 1003.95Z" fill="#011ACC"/>
<path opacity="0.25" d="M427.277 1019.29C426.472 1019.28 425.671 1019.15 424.889 1018.9C420.766 1017.46 417.655 1012.27 414.942 1003.04C412.05 991.249 410.205 979.052 409.444 966.695C406.875 936.314 406.152 893.77 405.32 844.448C403.005 704.559 399.785 512.993 354.062 344.502C299.839 144.379 196.89 28.67 48.0017 0.355766V-0.0288086C87.4714 7.04306 125.94 21.816 162.164 43.8127C193.846 63.4181 223.028 89.4831 248.654 121.064C272.988 151.379 294.102 185.955 311.414 223.842C328.841 261.897 343.278 302.233 354.497 344.213C374.753 418.869 388.463 504.581 396.457 606.301C403.258 693.166 404.669 777.052 405.79 844.448C406.622 893.722 407.309 936.314 409.914 966.647C412.663 999.336 417.51 1015.78 425.106 1018.47C438.201 1023.28 460.954 987.75 498.863 903.865C602.21 675.091 700.348 514.964 790.636 427.954C827.93 391.949 864.103 368.297 898.215 357.625C925.36 348.51 953.805 348.725 980.87 358.25C1010.84 369.799 1037.66 392.581 1058.14 423.868C1074.85 448.914 1083.46 472.998 1083.46 478.91H1083.13C1083.13 473.094 1074.41 449.154 1057.81 424.157C1037.37 392.913 1010.58 370.165 980.653 358.635C924.079 337.82 860.161 361.231 790.708 428.291C700.492 515.349 602.355 675.476 499.008 904.202C463.197 983.28 440.842 1019.29 427.277 1019.29Z" fill="#011ACC"/>
<path opacity="0.25" d="M426.155 1034.48C425.482 1034.47 424.812 1034.34 424.166 1034.09C410.239 1028.95 410.71 968.474 411.433 876.993C412.518 741.527 414.146 536.789 367.736 359.692C312.391 148.273 200.797 27.5163 36.1731 0.355766V-0.0288086C79.5145 6.63544 121.895 21.647 161.983 44.5337C196.455 64.5428 228.292 91.7596 256.287 125.15C282.415 156.696 305.022 193.036 323.424 233.071C341.704 273.036 356.66 315.525 368.025 359.789C414.435 536.981 412.808 741.719 411.722 877.233C411.361 921.844 411.071 960.446 412.554 987.798C414.182 1017.03 417.908 1031.74 424.238 1034.09C429.954 1036.21 438.129 1028.42 449.27 1010.06C460.411 991.692 475.532 961.503 494.74 918.287C600.329 680.908 700.565 514.484 792.662 424.253C830.462 387.093 867.178 362.625 901.723 351.472C929.001 342.025 957.645 342.025 984.922 351.472C1013.43 362.234 1039.11 383.362 1059.08 412.475C1075.17 435.646 1083.49 457.422 1083.49 461.653H1083.2C1083.2 457.47 1074.92 435.79 1058.86 412.716C1038.92 383.685 1013.29 362.611 984.849 351.857C927.732 331.09 863.127 355.558 792.879 424.541C700.818 514.916 600.618 681.148 495.065 918.479C459.073 999.143 438.165 1034.48 426.155 1034.48Z" fill="#011ACC"/>
<path opacity="0.25" d="M424.926 1049.62C424.376 1049.62 423.829 1049.52 423.298 1049.33C411.903 1044.86 413.712 990.827 416.461 909.008C421.091 770.418 428.109 561.017 381.446 375.412C325.558 152.455 205.174 26.2662 23.9828 0.307474V0.019043C71.4249 6.18868 117.951 21.4074 162.128 45.2065C199.399 65.6762 233.913 94.0736 264.317 129.284C292.222 162.092 316.289 200.249 335.723 242.493C354.824 284.248 370.251 328.782 381.699 375.219C393.182 421.774 401.807 469.49 407.49 517.896C413.053 565.239 416.676 612.949 418.342 660.814C421.96 754.073 418.957 839.977 416.642 909.057C413.893 990.779 412.12 1044.62 423.298 1048.99C433.101 1052.84 453.285 1017.99 490.725 932.468C583.545 720.519 672.241 563.276 755.042 463.816C680.308 553.71 592.48 700.761 490.978 932.66C471.915 976.165 457.445 1006.31 446.666 1024.86C436.971 1041.64 429.954 1049.62 424.926 1049.62ZM1083.28 444.202H1083.02C1083.02 441.895 1075.79 423.003 1059.69 400.938C1040.29 374.042 1015.8 354.567 988.792 344.55C959.42 334.022 923.681 333.878 880.779 354.981C888.809 350.992 896.996 347.59 905.305 344.79C932.661 335.085 961.434 334.886 988.865 344.213C1015.91 354.276 1040.43 373.799 1059.87 400.745C1075.35 421.753 1083.42 441.51 1083.42 444.202H1083.28Z" fill="#011ACC"/>
<path opacity="0.25" d="M423.406 1064.62C422.978 1064.61 422.552 1064.53 422.14 1064.38C417.8 1062.6 415.919 1051.4 416.027 1028.08C416.027 1006.64 417.908 977.222 420.151 940.015C428.073 807.288 441.384 585.197 394.83 390.987C338.87 156.348 210.021 24.9202 12.0095 0.307474V0.019043C63.6515 5.69874 114.42 21.1412 162.779 45.8795C202.779 66.77 239.9 96.317 272.637 133.322C302.272 167.399 327.74 207.392 348.13 251.867C367.958 295.525 383.747 342.204 395.155 390.891C406.535 439.548 414.788 489.401 419.825 539.913C424.735 589.063 427.525 638.545 428.181 688.119C429.664 784.262 424.275 874.397 420.368 940.159C416.027 1012.65 413.133 1060.34 422.177 1064.23C430.533 1067.69 449.27 1033.71 486.854 946.937C596.567 691.435 700.746 512.608 796.496 415.455C835.346 376.037 873.038 349.934 908.633 337.868C936.115 327.89 965.068 327.493 992.699 336.714C1018.38 346.01 1041.84 363.883 1060.85 388.631C1075.82 407.86 1083.39 425.262 1083.39 426.752H1083.17C1083.17 425.358 1075.35 407.86 1060.7 388.824C1041.72 363.984 1018.25 346.041 992.554 336.714C934.243 316.524 868.155 342.771 796.605 415.552C700.89 512.705 596.857 691.484 487.035 946.937C473.747 978.719 459.26 1009.59 443.627 1039.43C434.331 1056.49 427.783 1064.62 423.406 1064.62Z" fill="#011ACC"/>
<path opacity="0.25" d="M422.249 1080C421.949 1080.05 421.645 1080.05 421.344 1080C417.98 1078.56 416.823 1068.99 417.727 1048.99C418.451 1030.53 420.657 1004.96 423.479 972.607C438.78 796.953 470.504 431.319 329.031 202.113C255.925 83.8083 145.271 15.9309 0 0.259521C36.9696 4.1274 73.6246 12.1684 109.568 24.2954C140.638 34.8138 170.846 49.403 199.748 67.8485C225.487 84.2675 249.816 104.334 272.311 127.698C293.204 149.618 312.268 174.453 329.175 201.776C346.573 230.175 361.725 260.879 374.392 293.401C386.965 325.619 397.456 359.198 405.754 393.775C414.014 428.302 420.539 463.52 425.287 499.197C429.97 534.537 433.29 570.173 435.235 605.964C443.085 747.583 431.328 882.906 423.515 972.463C418.053 1034.96 414.435 1076.59 421.381 1079.57C424.998 1081.11 431.111 1072.98 440.914 1054.09C450.717 1035.2 463.776 1006.02 482.911 961.118C534.675 839.208 585.787 733.018 634.838 645.479C679.042 566.497 722.522 500.975 764.012 450.788C832.741 367.576 897.202 324.552 955.513 322.869C974.716 322.206 993.836 326.449 1011.83 335.368C1026.15 342.618 1039.57 352.698 1051.62 365.269C1063.87 377.716 1074.55 392.659 1083.28 409.543C1074.55 392.669 1063.87 377.741 1051.62 365.317C1024.28 336.754 990.284 321.775 955.513 322.965C897.238 324.648 832.85 367.672 764.121 450.836C676.401 556.979 581.881 728.643 483.128 961.07C464.029 1006.07 450.572 1035.63 441.131 1054.04C431.979 1071.68 425.975 1080 422.249 1080Z" fill="#011ACC"/>
</g>
</svg>
