<svg width="100%" height="1080" viewBox="0 0 1437 1078" fill="none" xmlns="http://www.w3.org/2000/svg">
                <g clip-path="url(#clip0_2_628)">
                <path d="M1437 1047.65H1435.08C1435.08 954.77 1400.7 817.011 1347.47 696.706C1282.74 550.508 1198 444.827 1108.81 399.131C1020.72 354.011 928.701 365.231 835.481 432.408C792.323 463.527 736.218 486.927 669.085 501.887C610.375 514.394 550.487 520.535 490.461 520.204C482.74 520.204 474.972 520.204 467.204 519.916C400.005 518.385 333.149 509.851 267.72 494.455C204.566 479.495 149.517 458.157 108.373 433.271C47.1855 396.254 18.318 352.429 24.8396 306.493C28.1963 282.902 40.9037 258.927 62.6263 234.952C85.7395 209.491 119.402 183.886 162.656 158.809C258.321 103.379 401.556 49.9154 588.332 0L588.812 1.87003C402.18 51.7375 258.945 105.105 163.615 160.439C120.457 185.421 86.8904 210.93 64.017 236.247C42.5821 259.886 30.0185 283.621 26.7097 306.877C20.332 351.949 48.9118 395.152 109.38 431.545C191.907 481.461 329.004 514.594 467.108 517.854C618.351 521.546 752.187 489.756 834.234 430.73C882.954 395.631 932.01 375.54 979.914 370.985C1024.8 367.034 1069.88 376.177 1109.67 397.309C1157.63 421.716 1203.28 462.377 1246.2 518.094C1287.45 573.035 1322.03 632.688 1349.2 695.795C1402.57 816.436 1437 954.53 1437 1047.65Z" fill="#01B9FF" fill-opacity="0.3"/>
                <path d="M1437 1030.39H1435.13C1435.13 940.577 1401.56 807.661 1349.53 691.767C1286.09 550.412 1202.65 448.327 1114.57 404.406C1023.46 358.95 927.55 373.143 830.11 446.649C788.535 477.912 735.547 501.456 672.537 516.56C610.365 530.89 546.611 537.191 482.836 535.308C419.102 533.926 355.7 525.728 293.711 510.854C233.722 496.229 179.823 475.611 137.912 451.204C103.77 431.305 77.9232 409.297 61.1877 385.753C43.1575 360.628 35.6289 334.256 39.1295 307.356C42.2944 283.381 54.2825 258.544 74.8543 234.185C96.7687 208.292 128.657 182.4 169.657 157.226C260.192 101.557 395.706 48.6687 572.412 0L572.939 1.82208C396.377 50.4428 261.007 103.235 170.616 158.809C91.1103 207.717 47.4732 257.776 40.9996 307.596C34.2383 359.285 68.0929 408.386 139.063 449.574C224.419 499.298 353.028 530.657 483.076 533.438C489.502 533.438 495.927 533.438 502.257 533.438C637.484 533.438 753.002 502.271 829.103 444.971C880.125 406.611 931.29 384.027 981.209 377.842C1027.4 372.507 1074.14 381.037 1115.48 402.344C1162.61 425.839 1207.93 465.11 1250.18 518.957C1290.66 571.91 1324.61 629.544 1351.31 690.616C1377.91 750.108 1399.21 811.835 1414.94 875.078C1429.33 934.152 1437 987.759 1437 1030.39Z" fill="#01B9FF" fill-opacity="0.3"/>
                <path d="M1436.95 1013.17H1435.13C1435.13 926.432 1402.38 798.263 1351.6 686.636C1289.26 549.98 1207.4 451.684 1120.46 409.201C1026.19 363.409 926.783 380.767 824.787 460.89C784.986 492.105 735.02 515.697 676.134 530.992C622.25 544.506 566.872 551.144 511.32 550.748H498.661C438.539 549.741 378.714 542.087 320.276 527.924C267.465 515.559 216.538 496.209 168.842 470.384C129.664 448.423 99.7417 423.729 79.8413 397.07C58.5503 368.3 49.5831 338.523 53.1796 307.979C56.1047 283.142 67.5654 258.016 86.7465 233.322C107.414 207.046 137.528 180.865 176.226 155.596C261.918 99.7349 389.76 47.422 556.54 0L557.019 1.77413C390.479 49.1003 262.733 101.365 177.425 157.13C102.331 206.183 61.1397 257.057 55.1456 308.219C48.2884 366.43 89.0482 423.298 169.897 468.802C255.828 516.751 378.827 546.864 498.852 548.782C503.024 548.782 507.244 548.782 511.416 548.782C639.498 548.782 750.029 517.183 823.684 459.308C877.056 417.4 930.427 392.179 982.36 384.842C1029.93 378.011 1078.45 385.874 1121.42 407.379C1167.99 430.059 1212.53 467.891 1254.2 519.916C1293.88 570.913 1327.15 626.582 1353.27 685.677C1379.36 743.031 1400.22 802.618 1415.61 863.714C1429.52 920.63 1436.95 972.08 1436.95 1013.17Z" fill="#01B9FF" fill-opacity="0.3"/>
                <path d="M1436.95 995.91H1435.18C1435.18 912.191 1403.19 788.721 1353.66 681.266C1292.81 549.213 1212.15 454.081 1126.51 413.516C1029.21 367.389 925.968 388.151 819.608 475.131C781.678 506.155 734.732 529.698 680.066 545.137C626.227 559.748 570.599 566.705 514.821 565.804C458.433 565.237 402.29 558.288 347.466 545.09C296.685 533.176 247.61 514.907 201.401 490.715C156.949 466.74 122.615 439.265 99.454 409.201C74.6144 376.931 63.8251 343.03 67.4695 308.507C71.0615 280.789 81.9317 254.517 98.9744 232.363C118.395 205.703 146.927 179.331 183.131 153.966C263.74 97.9128 383.622 46.1753 540.619 0L541.099 1.72618C384.437 47.9495 264.363 99.4952 184.139 155.356C113.408 204.648 74.7103 256.05 69.0519 308.795C62.3385 374.965 109.524 439.073 202.265 489.085C289.011 535.931 402.947 563.262 514.821 564.078H519.616C640.936 564.078 746.816 532.047 818.218 473.693C873.939 428.141 929.564 400.426 983.511 391.316C1032.31 382.987 1082.48 390.164 1126.99 411.838C1172.97 433.607 1216.94 470.145 1257.8 520.396C1296.73 569.528 1329.39 623.308 1355.05 680.499C1380.46 735.789 1400.78 793.278 1415.76 852.254C1429.71 906.724 1436.95 956.4 1436.95 995.91Z" fill="#01B9FF" fill-opacity="0.3"/>
                <path d="M1436.9 978.649H1435.18C1435.18 897.998 1404.01 779.083 1355.72 675.704C1296.16 548.11 1216.66 456.383 1132.55 417.352C1032.28 370.937 925.2 395.2 814.334 489.276C775.976 521.118 731.53 544.808 683.71 558.899C634.024 573.688 582.438 581.12 530.597 580.956H527.48C425.82 580.956 319.269 555.878 234.681 511.909C185.625 486.495 145.728 455.52 119.354 421.955C106.176 405.684 95.848 387.3 88.8084 367.581C82.2257 348.71 79.7409 328.653 81.5196 308.747C84.6048 280.863 94.6828 254.21 110.819 231.26C128.993 204.265 155.511 177.653 189.653 152.192C264.891 96.1387 377.628 44.9286 524.699 0L525.226 1.67823C378.347 46.5589 265.802 97.6251 190.66 153.438C124.293 203.066 88.1371 255.283 83.2459 308.89C76.4366 383.164 131.918 456.623 235.544 510.278C318.214 553.433 423.662 578.798 526.953 578.798C633.695 578.798 738.232 551.515 813.183 487.694C871.349 438.306 929.228 407.81 985.285 397.022C1035.31 387.179 1087.18 393.633 1133.27 415.434C1178.58 436.388 1221.88 471.631 1261.97 520.156C1300.13 567.418 1332.16 619.311 1357.3 674.601C1382.13 727.968 1401.96 783.524 1416.52 840.554C1429.85 892.963 1436.9 940.673 1436.9 978.649Z" fill="#01B9FF" fill-opacity="0.3"/>
                <path d="M1436.9 961.387H1435.23C1435.23 883.709 1404.82 769.301 1357.73 669.854C1299.52 546.624 1221.69 458.253 1138.69 420.757C1035.4 374.006 924.481 401.96 809.059 503.469C734.924 568.681 635.47 596.012 534.529 596.012C442.273 595.641 351.305 574.327 268.487 533.678C214.205 506.874 169.609 472.782 139.543 435.381C124.625 417.201 112.829 396.671 104.633 374.629C96.9176 353.622 93.7945 331.206 95.474 308.89C98.0563 280.86 107.331 253.859 122.519 230.157C142.299 199.611 167.143 172.661 195.983 150.465C266.138 94.3166 371.394 43.7299 508.779 0L509.306 1.63028C372.113 45.2643 267.049 95.8989 197.038 151.76C135.035 201.388 101.42 254.132 97.1523 309.034C90.6787 391.843 155.031 475.371 269.255 532.479C351.851 573.002 442.575 594.235 534.577 594.573C635.278 594.573 734.157 567.386 807.908 502.415C868.52 449.047 928.701 415.626 986.82 403.111C1038.07 391.665 1091.66 397.359 1139.36 419.318C1183.95 439.457 1226.54 473.405 1265.9 520.012C1303.23 565.493 1334.59 615.559 1359.22 668.991C1383.43 720.263 1402.79 773.688 1417.05 828.567C1429.86 878.386 1436.9 925.425 1436.9 961.387Z" fill="#01B9FF" fill-opacity="0.3"/>
                <path d="M1436.86 944.125H1435.23C1435.23 869.468 1405.59 759.424 1359.75 663.812C1302.73 544.994 1226.44 459.692 1144.87 423.681C1038.61 376.739 923.858 408.434 803.784 517.854C741.445 574.818 657.144 606.944 560.472 610.876C553.854 610.876 547.189 611.26 540.523 611.26C457.962 610.718 376.544 591.92 302.102 556.214C243.072 527.828 193.921 490.859 160.066 449.239C143.334 429.167 130.002 406.49 120.601 382.109C111.728 358.786 107.888 333.85 109.332 308.938C111.468 280.717 119.995 253.351 134.268 228.911C152.082 198.453 175.02 171.298 202.073 148.643C267.241 92.3986 365.112 42.4353 492.858 0L493.386 1.53438C365.784 43.8738 268.008 93.7412 203.176 149.842C145.633 199.518 114.511 253.077 110.963 308.89C105.064 400.905 178.528 495.126 302.774 554.727C377.382 590.465 458.95 609.325 541.674 609.965C635.949 609.965 729.745 583.066 802.777 516.464C865.883 458.924 928.413 422.531 988.642 408.146C1041.04 395.086 1096.31 399.982 1145.59 422.051C1189.52 441.231 1231.33 474.172 1269.98 519.293C1306.5 563.105 1337.21 611.455 1361.33 663.141C1384.91 712.483 1403.79 763.936 1417.72 816.819C1430.05 864.481 1436.86 909.745 1436.86 944.125Z" fill="#01B9FF" fill-opacity="0.3"/>
                <path d="M1436.86 926.911H1435.27C1435.27 854.987 1406.5 749.498 1361.71 657.531C1322.3 576.496 1253.72 470.528 1151.01 426.175C1041.82 378.801 923.234 414.619 798.509 532.239C767.871 561.041 732.082 583.814 693.013 599.368C654.924 614.402 614.683 623.272 573.803 625.645C532.598 628.105 491.248 625.171 450.804 616.918C410.613 608.852 371.504 596.106 334.279 578.942C303.831 565.04 274.906 548.023 247.964 528.163C222.74 509.61 199.874 488.049 179.871 463.959C139.974 415.051 120.218 361.539 122.759 309.13C124.283 280.684 131.869 252.892 145.009 227.616C161.182 197.313 182.485 170.042 207.971 147.013C268.056 90.7683 358.591 41.3324 476.986 0L477.513 1.53438C359.31 42.7709 269.015 92.063 209.074 148.164C155.846 198.031 127.458 252.118 124.677 309.034C119.882 410.783 202.361 516.08 335.142 577.551C463.032 636.529 660.885 659.737 797.454 531.136C863.149 469.09 927.982 429.483 990.32 413.229C1043.84 398.507 1100.78 402.551 1151.68 424.688C1194.84 443.341 1235.93 474.892 1273.77 518.43C1309.48 560.492 1339.53 607.046 1363.15 656.908C1386.16 704.327 1404.56 753.847 1418.11 804.784C1430.19 850.576 1436.86 893.922 1436.86 926.911Z" fill="#01B9FF" fill-opacity="0.3"/>
                <path d="M1436.86 909.649H1435.27C1435.27 786.132 1337.11 504.237 1157.15 428.189C1045.08 380.815 922.611 420.565 793.234 546.336C764.877 573.984 731.773 596.301 695.507 612.219C660.797 627.222 623.895 636.532 586.222 639.79C548.583 643.062 510.673 641.208 473.533 634.276C401.231 620.975 332.881 591.467 273.618 547.967C246.39 527.92 221.775 504.547 200.347 478.392C156.901 425.024 134.891 366.43 136.761 308.986C137.778 280.479 144.461 252.459 156.422 226.561C170.661 196.388 190.016 168.907 213.629 145.335C268.535 89.0422 351.925 40.2296 461.066 0L461.593 1.43848C352.692 41.3804 269.782 90.0971 214.732 146.246C165.869 196.593 140.166 251.111 138.296 309.034C134.699 420.996 226.193 537.705 366.023 599.368C424.416 625.379 487.534 639.105 551.457 639.694C635.278 639.694 721.497 613.849 792.131 545.185C860.32 478.919 927.598 436.052 992.094 417.784C1046.69 401.365 1105.31 404.537 1157.82 426.75C1338.36 503.038 1436.86 785.748 1436.86 909.649Z" fill="#01B9FF" fill-opacity="0.3"/>
                <path d="M1436.81 892.388H1435.32C1435.32 773.569 1339.42 502.606 1163.38 429.819C1048.3 382.253 922.131 426.223 788.008 560.577C761.691 587.126 731.021 608.971 697.329 625.165C665.754 640.128 631.952 649.845 597.251 653.935C583.219 655.651 569.094 656.5 554.957 656.476C499.672 656.021 445.037 644.511 394.268 622.624C326.575 594.249 266.814 549.814 220.151 493.16C198.492 466.651 181.026 436.977 168.362 405.173C156.21 374.671 150.071 342.107 150.284 309.274C150.712 280.491 156.485 252.037 167.307 225.363C179.761 195.441 197.245 167.872 219 143.848C269.015 87.4119 345.26 39.1268 445.145 0.239746L445.673 1.63028C257.986 74.6094 153.449 183.886 151.818 309.274C150.044 431.785 249.978 560.05 394.843 621.185C445.186 643.04 499.405 654.568 554.286 655.086C597.489 655.503 640.338 647.257 680.3 630.835C720.262 614.413 756.528 590.148 786.953 559.474C857.731 488.605 927.406 442.334 993.965 421.955C1053.04 403.926 1110.2 406.084 1163.96 428.333C1205.58 445.546 1245.09 474.748 1281.44 515.217C1315.52 554.006 1344.26 597.175 1366.89 643.578C1388.73 687.33 1406.22 733.117 1419.11 780.282C1430.53 822.525 1436.81 862.275 1436.81 892.388Z" fill="#01B9FF" fill-opacity="0.3"/>
                <path d="M1436.81 875.126H1435.32C1435.32 760.958 1341.53 500.688 1169.52 430.97C1051.75 383.26 921.604 431.641 782.733 574.818C758.273 600.306 729.834 621.65 698.528 638.016C669.781 652.844 638.816 662.9 606.842 667.792C547.285 676.999 482.884 668.607 420.737 643.818C349.804 614.867 287.49 568.193 239.764 508.264C216.787 479.572 198.202 447.624 184.618 413.468C171.446 380.521 164.471 345.425 164.046 309.945C163.757 281.022 168.445 252.265 177.905 224.931C188.547 195.062 204.142 167.198 224.035 142.506C269.015 85.9734 338.067 38.0719 429.225 0.239746L429.8 1.58233C258.465 72.7393 164.526 182.208 165.245 309.945C166.012 443.197 273.666 582.922 421.265 642.283C464.845 660.319 511.486 669.809 558.649 670.238C642.423 670.238 719.867 637.488 781.678 573.763C855.093 498.099 927.166 448.375 995.883 425.935C1056.59 406.132 1115.19 407.57 1170.05 429.627C1210.85 446.17 1249.6 474.316 1285.13 513.251C1318.38 550.473 1346.46 592.003 1368.62 636.721C1389.83 678.705 1406.84 722.68 1419.4 768.007C1430.67 808.38 1436.81 846.452 1436.81 875.126Z" fill="#01B9FF" fill-opacity="0.3"/>
                <path d="M1436.76 857.864H1435.37C1435.37 808.476 1414.89 718.81 1369.24 630.248C1333.09 560.481 1270.75 469.425 1175.66 431.545C1055.06 383.596 921.076 436.34 777.65 588.867C730.656 638.687 676.038 669.806 615.282 681.314C586.824 686.628 557.737 687.695 528.967 684.479C500.103 681.197 471.774 674.253 444.666 663.812C371.017 634.737 306.668 586.172 258.513 523.32C234.483 492.562 214.977 458.525 200.586 422.243C186.547 386.997 178.711 349.588 177.425 311.671C176.579 282.506 180.284 253.387 188.406 225.362C197.246 195.571 210.919 167.434 228.878 142.074C268.535 84.7266 330.874 37.1607 413.305 0.287598L413.88 1.58223C258.513 71.0131 174.98 181.057 178.672 311.671C182.7 455.52 297.307 606.321 445.193 662.662C567.185 709.125 687.882 681.841 776.451 588.052C852.456 507.449 926.974 454.081 997.849 429.483C1060.19 407.858 1120.13 408.146 1176.18 430.394C1216.23 446.314 1254.16 473.549 1288.92 510.854C1321.36 546.542 1348.79 586.483 1370.44 629.576C1391.13 669.815 1407.73 712.031 1419.98 755.588C1430.81 794.235 1436.76 830.581 1436.76 857.864Z" fill="#01B9FF" fill-opacity="0.3"/>
                <path d="M1436.76 840.65H1435.37C1435.37 793.468 1415.47 707.878 1371.02 622.863C1335.92 555.734 1274.63 468.226 1181.75 432.073C1058.36 384.123 920.597 441.662 772.183 603.3C727.875 651.537 677.38 682.417 622.091 695.075C596.309 700.899 569.793 702.774 543.448 700.637C517.079 698.402 491.12 692.695 466.244 683.663C395.466 658.298 328.38 606.944 277.311 539.24C225.618 470.624 194.88 390.596 190.996 314.453C189.263 284.755 191.798 254.963 198.524 225.986C205.539 196.145 217.224 167.598 233.146 141.403C268.104 83.8635 323.441 36.3935 397.624 0.287598L398.008 1.53428C257.986 69.6705 184.858 180.769 192.099 314.405C200.634 471.103 318.646 629.337 466.676 682.369C498.099 693.876 531.276 699.862 564.739 700.062C640.744 700.062 711.858 666.881 771.176 602.245C849.866 516.56 926.783 459.5 999.815 432.6C1063.74 409.105 1125.07 408.625 1182.04 430.682C1221.26 445.978 1258.38 471.966 1292.33 508.024C1323.95 542.248 1350.73 580.645 1371.93 622.144C1416.81 707.446 1436.76 793.324 1436.76 840.65Z" fill="#01B9FF" fill-opacity="0.3"/>
                <path d="M1436.71 823.388H1435.37C1435.37 778.459 1416.19 696.706 1372.74 615.287C1338.5 550.843 1278.61 466.644 1187.79 432.025C1160.71 421.603 1131.93 416.271 1102.91 416.297C999.191 416.297 886.502 483.426 766.716 617.685C724.902 664.436 678.148 695.027 627.653 708.789C607.862 714.141 587.448 716.85 566.945 716.844C539.109 716.698 511.48 712.034 485.138 703.035C415.415 679.779 348.185 627.61 295.868 556.262C243.552 484.913 211.376 400.905 204.519 320.015C201.786 289.618 202.994 258.997 208.115 228.911C213.323 198.769 223.021 169.579 236.887 142.314C266.521 83.6237 315.241 35.866 381.464 0.335449L382.088 1.48624C256.643 68.6155 194.065 181.872 205.813 319.919C219.959 486.159 343.006 653.743 485.857 701.453C511.834 710.3 539.072 714.883 566.514 715.022C639.066 715.022 707.926 681.458 765.949 616.63C847.469 525.526 926.639 464.774 1001.83 435.573C1067.28 410.16 1130.01 408.529 1188.27 430.778C1226.63 445.45 1262.93 470.432 1296.21 505.1C1327.03 537.879 1353.19 574.747 1373.94 614.664C1417.29 696.274 1436.71 778.316 1436.71 823.388Z" fill="#01B9FF" fill-opacity="0.3"/>
                <path d="M1436.71 806.127H1435.42C1435.42 763.404 1416.57 685.438 1374.47 607.472C1340.9 545.617 1282.54 464.822 1193.78 431.593C1134.8 409.489 1071.07 412.078 1004.32 439.361C927.214 470.816 845.551 535.596 761.681 631.782C722.168 677.047 678.819 707.303 632.832 721.736C590.401 734.977 544.915 734.793 502.593 721.208C434.836 700.398 368.325 648.277 315.577 574.435C263.797 502.222 230.611 418.364 218.952 330.276C214.978 298.758 214.608 266.89 217.849 235.288C220.964 204.436 228.339 174.163 239.764 145.335C264.459 84.4101 308.705 33.4204 365.544 0.383789L366.215 1.48663C215.26 92.255 209.985 246.365 220.247 330.084C241.922 506.73 366.071 678.006 503.168 719.961C524.736 726.676 547.186 730.134 569.775 730.223C626.551 730.223 694.116 707.447 760.866 630.919C844.927 534.589 926.735 469.713 1004.03 438.162C1071.17 410.783 1135.14 408.146 1194.41 430.395C1234.41 446.103 1270.43 470.469 1299.9 501.743C1329.94 533.096 1355.46 568.489 1375.72 606.897C1417.82 685.006 1436.71 763.26 1436.71 806.127Z" fill="#01B9FF" fill-opacity="0.3"/>
                <path d="M1436.66 788.865H1435.42C1435.42 748.347 1417.1 674.073 1376.15 599.464C1343.49 540.103 1286.43 462.616 1199.73 430.73C1139.74 408.673 1074.67 412.317 1006.38 441.519C927.118 475.467 843.009 544.274 756.407 646.023C719.099 689.801 678.915 719.673 636.908 734.825C598.696 748.756 557.059 750.267 517.938 739.141C482.223 728.665 449.031 710.993 420.402 687.212C388.367 660.988 360.168 630.402 336.628 596.347C285.158 522.346 250.553 437.952 235.256 349.12C223.172 278.059 225.666 210.067 242.737 152.096C251.345 122.015 264.718 93.507 282.346 67.6566C300.439 41.3707 323.192 18.6192 349.48 0.527344L350.199 1.53428C252.04 69.2869 210.513 195.921 236.455 348.88C268.008 535.164 389.185 702.412 518.273 737.942C535.444 742.752 553.189 745.204 571.021 745.23C636.285 745.23 699.247 711.33 755.496 645.208C842.242 543.315 926.495 474.412 1005.95 440.416C1074.57 411.023 1139.88 407.379 1200.21 429.579C1239.19 444.563 1274.4 467.958 1303.31 498.099C1332.52 528.058 1357.41 561.95 1377.25 598.793C1395.75 632.466 1410.69 667.982 1421.8 704.761C1430.58 731.982 1435.59 760.281 1436.66 788.865V788.865Z" fill="#01B9FF" fill-opacity="0.3"/>
                <path d="M1436.66 771.603H1435.47C1435.47 733.243 1417.63 662.566 1377.92 591.313C1346.08 534.349 1290.41 460.075 1205.77 429.531C1144.63 407.571 1078.31 412.365 1008.49 443.389C926.974 479.83 840.42 552.809 751.132 660.264C715.982 702.556 678.723 732.188 640.361 747.772C606.065 762.246 568.035 765.355 531.844 756.643C498.455 747.992 467.36 732.151 440.734 710.228C410.365 685.561 383.632 656.73 361.324 624.59C313.563 557.748 276.208 472.446 255.924 384.411C237.989 306.397 234.393 230.973 245.614 166.049C250.908 133.622 261.111 102.19 275.872 72.8352C289.995 45.0141 309.678 20.3874 333.703 0.479492L334.422 1.39053C247.244 72.7873 218.329 215.773 257.075 384.123C277.311 472.015 314.618 557.221 362.139 623.871C413.257 695.795 472.047 741.155 532.084 755.444C545.198 758.595 558.636 760.204 572.124 760.239C634.079 760.239 694.931 726.003 750.221 659.545C839.652 551.946 926.351 478.871 1007.97 442.382C1078.12 410.975 1144.73 406.324 1206.01 428.429C1243.95 442.772 1278.32 465.204 1306.71 494.167C1335.05 522.867 1359.26 555.368 1378.64 590.737C1396.53 622.874 1411 656.8 1421.8 691.959C1431.49 722.503 1436.66 750.841 1436.66 771.603Z" fill="#01B9FF" fill-opacity="0.3"/>
                <path d="M573.707 776.494C563.938 776.495 554.191 775.564 544.599 773.712C515.338 767.537 487.848 754.834 464.183 736.552C437.025 715.814 412.951 691.323 392.685 663.812C369.622 632.919 349.567 599.891 332.792 565.18C314.72 528.027 299.491 489.557 287.237 450.102C259.952 362.834 246.861 271.921 250.361 194.051C254.149 108.51 277.502 41.5721 317.735 0.527344L318.55 1.29454C278.509 42.1954 255.348 108.845 251.416 194.147C247.916 271.873 261.007 362.69 288.244 449.814C314.138 532.623 350.582 606.417 393.5 663.141C440.158 724.708 492.427 762.54 544.743 772.61C554.4 774.459 564.21 775.39 574.042 775.391C632.641 775.391 689.992 741.347 744.85 673.786C787.192 620.678 834.214 571.476 885.352 526.773C923.034 493.723 964.964 465.858 1010.03 443.916C1081.67 410.351 1149.52 404.741 1211.81 426.846C1248.75 440.518 1282.29 462.029 1310.12 489.9C1337.73 517.274 1361.37 548.394 1380.32 582.346C1397.77 612.951 1411.91 645.322 1422.52 678.916C1430.74 703.285 1435.47 728.694 1436.57 754.389H1435.42C1435.42 719.242 1417.87 650.578 1379.31 582.874C1348.29 528.355 1293.96 457.246 1211.48 427.949C1149.52 405.94 1082.01 411.646 1010.56 444.971C926.927 483.954 837.926 561.2 745.857 674.505C712.818 715.166 678.34 744.08 643.382 760.383C621.631 770.829 597.836 776.331 573.707 776.494V776.494Z" fill="#01B9FF" fill-opacity="0.3"/>
                <path d="M574.666 791.55C541.386 791.55 508.395 779.275 476.219 754.868C452.252 736.102 430.999 714.108 413.065 689.513C392.347 661.461 374.15 631.632 358.687 600.375C324.621 530.781 299.008 457.359 282.394 381.678C264.843 303.424 256.883 227.136 259.376 161.11C262.062 90.7681 276.735 35.2906 301.815 0.575195L302.678 1.24649C277.742 35.7222 263.165 91.1038 260.479 161.11C257.986 227.088 265.946 303.28 283.497 381.438C321.235 549.261 395.322 692.198 476.89 754.005C517.458 784.741 559.321 796.105 601.567 787.57C648.177 778.364 694.739 744.799 739.959 687.883C834.809 568.441 926.495 486.735 1012.47 445.019C1085.55 409.536 1154.65 402.727 1217.86 424.784C1253.78 437.798 1286.49 458.387 1313.76 485.153C1340.6 511.262 1363.62 541.029 1382.14 573.571C1399.04 602.699 1412.78 633.545 1423.14 665.586C1431.12 688.585 1435.74 712.616 1436.86 736.935H1435.75C1435.75 703.802 1418.68 638.687 1381.18 573.907C1350.92 521.738 1297.94 453.65 1217.52 425.599C1154.56 403.686 1085.75 410.447 1012.95 445.786C927.118 487.454 835.529 569.064 740.822 688.362C695.459 745.518 648.657 779.179 601.759 788.481C592.851 790.391 583.776 791.419 574.666 791.55Z" fill="#01B9FF" fill-opacity="0.3"/>
                <path d="M575.433 806.51C550.873 806.213 526.875 799.126 506.093 786.036C481.136 770.151 459.16 750.011 441.165 726.531C419.437 698.786 400.56 668.922 384.821 637.392C351.877 573.524 323.297 493.88 302.102 407.571C282.691 329.882 270.744 250.517 266.425 170.556C263.117 95.3237 269.878 36.6336 285.942 0.863281L286.901 1.29483C270.885 36.9213 264.172 95.4676 267.48 170.508C271.799 250.387 283.73 329.671 303.109 407.283C324.4 493.592 352.932 573.236 385.636 637.057C422.703 709.413 463.415 759.28 506.669 785.269C527.283 798.236 551.08 805.255 575.433 805.551C588.463 805.48 601.403 803.394 613.795 799.366C653.644 786.659 694.212 754.054 734.3 702.46C831.884 576.88 926.111 490.667 1014.15 446.266C1088.72 408.721 1159.02 400.81 1223.18 422.819C1258.09 435.226 1289.95 454.94 1316.64 480.646C1342.71 505.502 1365.12 533.932 1383.2 565.085C1419.74 626.796 1436.38 688.65 1436.38 719.961H1435.32C1435.32 688.794 1418.73 627.179 1382.29 565.612C1352.8 515.745 1301.15 450.533 1222.84 423.826C1158.97 401.913 1088.91 409.776 1014.63 447.225C926.639 491.53 832.412 577.647 735.116 703.083C694.883 754.869 654.171 787.57 614.083 800.373C601.595 804.407 588.556 806.478 575.433 806.51V806.51Z" fill="#01B9FF" fill-opacity="0.3"/>
                <path d="M575.769 821.566C560.753 821.496 545.908 818.38 532.132 812.408C488.351 793.755 446.728 746.717 408.509 672.683C376.141 609.965 346.171 526.917 321.763 432.504C300.401 349.296 284.653 264.746 274.625 179.427C265.85 102.708 264.172 37.8319 269.83 0.814941H270.837C265.083 37.736 266.761 102.708 275.632 179.091C285.654 264.439 301.386 349.02 322.722 432.264C347.082 526.629 377.052 609.677 409.421 672.012C447.495 745.806 488.926 792.652 532.563 811.065C546.174 817.024 560.863 820.125 575.721 820.176C625.208 820.176 676.421 785.412 729.169 716.269C829.582 584.983 926.207 493.879 1016.6 446.841C1092.6 407.187 1164.1 398.172 1229.12 420.133C1263.05 431.936 1294.1 450.776 1320.23 475.419C1345.46 499.187 1367.22 526.385 1384.88 556.214C1420.41 615 1436.57 673.402 1436.57 702.795H1435.56C1435.56 639.454 1365.17 467.267 1228.69 421.284C1163.96 399.419 1092.7 408.385 1016.98 447.944C926.831 494.982 830.302 585.655 730.033 717.42C677.237 786.659 625.544 821.566 575.769 821.566Z" fill="#01B9FF" fill-opacity="0.3"/>
                <path d="M575.912 836.575C568.268 836.563 560.652 835.629 553.231 833.793C476.842 814.614 408.461 698.672 350.007 488.797C302.534 318.385 274.242 133.06 258.945 33.5648C257.027 21.0021 255.396 10.1655 254.15 1.10303H255.109C256.547 10.2134 258.178 21.05 259.904 33.6128C275.105 133.156 303.397 318.481 351.014 488.845C409.373 698.336 477.513 814.182 553.519 833.122C579.029 839.499 605.787 834.848 633.072 819.313C662.323 802.674 692.917 772.994 724.182 731.23C827.281 592.847 926.447 497.38 1018.9 447.465C1096.3 405.701 1168.94 395.631 1234.69 417.448C1267.6 428.606 1297.84 446.468 1323.5 469.905C1348.02 492.37 1369.24 518.201 1386.51 546.624C1401.95 571.577 1414.59 598.158 1424.2 625.885C1431.41 644.941 1435.63 664.997 1436.71 685.342H1435.75C1434.66 665.111 1430.45 645.17 1423.29 626.22C1413.67 598.65 1401.06 572.216 1385.69 547.391C1357.69 501.983 1308.68 442.67 1234.54 417.928C1168.9 396.159 1096.49 406.276 1019.38 447.896C927.022 497.764 827.952 593.135 724.95 731.373C693.732 773.281 662.995 803.01 633.839 819.744C616.343 830.343 596.364 836.148 575.912 836.575Z" fill="#01B9FF" fill-opacity="0.3"/>
                <path d="M575.912 851.583C570.323 851.602 564.746 851.039 559.273 849.904C503.887 838.349 454.496 769.493 408.27 639.454C368.373 527.157 337.3 387.911 309.871 265.065C283.832 148.643 261.39 47.9495 238.229 1.10283L239.044 0.719238C262.254 47.6618 284.743 148.308 310.974 264.873C338.355 387.671 369.428 526.869 409.325 638.879C455.407 768.63 504.607 837.294 559.656 848.754C582.914 853.549 607.609 847.986 633.072 832.067C660.261 815.093 689.129 785.748 718.955 744.943C824.787 600.04 926.447 499.777 1021.06 446.985C1099.8 403.111 1173.6 391.891 1240.39 413.42C1272.34 424.148 1301.72 441.353 1326.71 463.959C1350.48 485.325 1371.11 509.942 1387.99 537.082C1420.02 587.813 1436.76 641.132 1436.76 667.648H1435.85C1435.85 641.276 1419.11 588.148 1387.22 537.562C1359.89 494.407 1312.23 437.827 1240.2 414.331C1173.45 393.186 1099.89 404.262 1021.39 448.04C926.879 500.784 825.315 600.903 719.291 745.758C689.417 786.659 660.453 816.052 632.976 833.122C616.057 844.493 596.286 850.889 575.912 851.583V851.583Z" fill="#01B9FF" fill-opacity="0.3"/>
                <path d="M575.721 866.639C571.15 866.643 566.59 866.209 562.102 865.344C548.803 862.489 536.375 856.506 525.85 847.891C513.378 837.745 502.429 825.86 493.338 812.6C474.157 785.413 455.839 748.396 437.569 699.343C404.002 608.575 376.045 491.962 349.144 379.233C310.014 215.197 273.331 60.2727 222.405 1.19893L223.028 0.623535C273.906 59.8891 310.878 214.91 350.055 378.801C376.909 491.53 404.721 608.095 438.432 698.816C456.606 748.012 474.732 784.981 493.913 812.072C515.588 842.568 537.886 859.734 562.102 864.481C583.633 868.701 606.746 862.659 630.866 846.5C656.569 829.286 684.334 800.037 713.345 759.472C821.958 607.808 926.159 502.655 1023.02 446.985C1103.1 400.954 1178.01 388.631 1245.67 410.352C1276.59 420.455 1305.11 436.773 1329.49 458.301C1352.5 478.557 1372.54 501.964 1389 527.828C1420.07 575.777 1436.33 625.981 1436.33 650.627H1435.47C1435.47 626.124 1419.26 576.257 1388.28 528.307C1361.71 487.167 1315.3 433.368 1245.38 410.927C1178.01 389.302 1103.34 401.337 1023.46 447.513C926.687 503.086 822.629 608.143 714.064 759.76C685.005 800.373 657.144 829.718 631.346 846.98C612.213 860.166 593.511 866.639 575.721 866.639Z" fill="#01B9FF" fill-opacity="0.3"/>
                <path d="M575.433 881.695C571.539 881.69 567.654 881.321 563.828 880.592C543.065 876.612 524.076 862.227 505.806 836.67C489.502 813.894 474.109 782.583 458.716 740.771C429.944 663.333 406.543 563.981 381.608 458.876C335.669 266.215 288.58 66.8414 206.532 1.24649L207.06 0.575195C289.299 66.3619 336.532 265.88 382.423 458.828C407.359 563.934 430.903 663.237 459.483 740.627C474.876 782.2 490.221 813.463 506.477 836.191C524.603 861.604 543.401 875.845 564.02 879.777C584.64 883.709 605.643 877.283 628.613 860.933C653.068 843.575 679.874 814.278 708.31 773.76C819.704 615.144 926.399 505.004 1025.47 446.457C1106.99 398.508 1182.9 384.794 1251.37 406.42C1319.85 428.045 1364.64 479.159 1390.44 518.382C1420.6 563.886 1436.38 610.828 1436.38 633.46H1435.56C1435.56 610.78 1419.83 564.077 1389.77 518.717C1363.87 479.59 1318.8 428.524 1250.94 407.091C1183.09 385.657 1107.09 398.939 1025.57 446.985C926.591 505.531 819.992 615.575 708.646 774.096C680.162 814.661 653.308 844.054 628.756 861.46C610.295 874.982 592.264 881.695 575.433 881.695Z" fill="#01B9FF" fill-opacity="0.3"/>
                <path d="M575.097 896.655C571.67 896.649 568.251 896.328 564.883 895.696C546.997 892.244 530.789 879.873 515.3 857.816C501.442 838.061 488.399 810.777 475.403 774.432C451.427 706.487 430.855 616.822 409.277 521.882C384.821 414.043 359.646 302.465 325.407 207.573C286.613 99.6868 242.545 32.2218 190.708 1.24649L191.092 0.575195C218.616 17.0219 244.559 44.2092 267.672 81.5139C288.532 114.695 307.665 155.884 326.079 207.333C360.173 302.225 385.54 413.852 409.996 521.834C431.575 616.726 451.907 706.391 476.123 774.288C489.07 810.586 502.065 837.773 515.923 857.48C531.268 879.345 547.285 891.62 564.979 895.025C603.341 902.361 648.321 867.406 702.987 788.049C817.163 622.384 926.399 507.161 1027.68 445.594C1110.39 395.247 1187.5 380.671 1256.75 402.2C1322.68 422.722 1366.61 471.343 1391.88 508.504C1420.65 551.083 1436.38 595.868 1436.38 616.342H1435.61C1435.61 595.964 1420.07 551.419 1391.2 508.983C1366.08 471.918 1322.25 423.394 1256.36 402.775C1187.31 381.294 1110.49 395.871 1027.91 445.93C926.735 507.449 817.594 622.576 703.467 788.145C653.596 861.172 611.349 896.655 575.097 896.655Z" fill="#01B9FF" fill-opacity="0.3"/>
                <path d="M574.378 911.807C571.4 911.81 568.429 911.52 565.507 910.944C536.16 905.19 511.896 871.146 489.166 803.729C468.786 743.217 451.571 661.702 433.349 575.106C409.373 462.568 382.759 335.023 343.198 229.102C297.882 107.55 242.785 33.037 174.836 1.24649L175.171 0.575195C243.264 32.4616 298.506 107.119 343.917 228.815C383.622 334.831 410.332 462.424 434.068 574.962C452.29 661.271 469.457 743.025 489.885 803.489C512.519 870.618 536.591 904.519 565.651 910.225C600.8 917.129 644.005 881.838 697.76 802.338C814.765 629.432 926.543 509.031 1030.02 444.395C1074.38 416.729 1117.59 399.131 1158.49 392.035C1193.03 385.713 1228.57 387.652 1262.21 397.693C1326.04 417.256 1368.72 463.288 1393.27 498.387C1421.32 538.52 1436.42 580.188 1436.42 599.08H1435.71C1435.71 580.428 1420.6 538.952 1392.55 498.914C1368.09 463.815 1325.41 417.879 1261.92 398.22C1192.11 376.835 1114.18 392.514 1030.31 444.827C926.927 509.415 815.197 629.768 698.288 802.578C648.849 875.989 608.137 911.807 574.378 911.807Z" fill="#01B9FF" fill-opacity="0.3"/>
                <path d="M573.755 926.911C571.081 926.904 568.414 926.631 565.794 926.096C540.284 920.965 519.616 890.469 500.771 830.197C483.747 775.726 469.505 701.021 454.448 621.857C431.575 501.12 405.393 364.416 361.132 248.282C309.967 114.167 243.84 33.5644 158.963 1.24649L159.203 0.575195C244.271 32.7972 310.494 113.736 361.756 247.994C406.064 364.08 432.102 500.976 455.12 621.761C470.177 700.829 484.419 775.583 501.442 830.005C520.191 889.99 540.667 920.342 565.938 925.425C581.811 928.637 599.505 921.924 619.741 904.902C641.224 886.921 665.009 858.008 692.534 816.627C812.415 636.337 926.687 510.614 1032.42 442.957C1077.5 414.187 1121.42 395.583 1162.95 388.007C1197.72 381.193 1233.63 382.837 1267.63 392.802C1329.35 411.406 1370.73 455.136 1394.61 488.173C1407.09 505.428 1417.61 524.02 1425.97 543.603C1431.66 555.681 1435.18 568.665 1436.38 581.963H1435.71C1434.48 568.814 1430.98 555.98 1425.35 544.034C1416.99 524.516 1406.49 505.989 1394.03 488.797C1370.06 455.616 1328.96 412.078 1267.44 393.665C1196.85 372.327 1117.87 389.158 1032.81 443.628C927.31 511.237 812.847 636.913 693.109 817.107C665.536 858.583 641.704 887.497 620.173 905.526C603.006 919.815 587.709 926.911 573.755 926.911Z" fill="#01B9FF" fill-opacity="0.3"/>
                <path d="M572.796 941.967C570.459 941.968 568.129 941.727 565.843 941.248C517.602 931.179 497.941 813.367 473.006 664.292C451.667 536.315 427.451 391.316 379.067 265.88C322.77 119.874 245.566 33.5648 143.091 1.19893V0.623535C171.356 9.46051 198.08 22.6273 222.309 39.6544C246.318 56.7873 267.998 76.9671 286.805 99.6871C306.493 123.537 323.837 149.229 338.594 176.406C354.269 205.2 367.999 235.012 379.69 265.64C403.841 330.571 422.982 397.256 436.946 465.11C451.811 533.39 463.415 602.917 473.677 664.244C498.517 813.127 518.177 930.699 565.986 940.721C580.372 943.79 597.06 936.885 616.529 919.719C636.956 901.642 660.118 872.585 687.307 831.012C809.922 643.098 926.831 511.957 1034.82 441.135C1080.66 411.119 1125.26 391.795 1167.41 383.596C1202.39 376.446 1238.59 377.86 1272.91 387.72C1332.46 405.461 1372.6 446.506 1395.81 477.865C1423.67 515.553 1436.23 551.227 1436.23 564.557H1435.61C1435.61 551.323 1423.09 515.793 1395.28 478.248C1372.12 446.985 1332.08 406.036 1272.71 388.343C1201.36 367.101 1121.38 385.034 1035.06 441.663C927.119 512.388 810.258 643.434 687.69 831.204C660.501 872.872 637.292 901.93 616.816 920.055C600.369 935.015 585.839 941.967 572.796 941.967Z" fill="#01B9FF" fill-opacity="0.3"/>
                <path d="M571.741 957.072C569.692 957.065 567.651 956.84 565.651 956.4C546.469 952.181 531.652 927.391 519.184 878.291C507.82 833.506 499.284 773.281 489.454 703.563C471.423 575.825 448.934 416.825 397.049 282.47C336.245 124.957 247.964 32.9894 127.171 1.19893V0.623535C159.95 9.17755 191.203 22.765 219.815 40.9011C247.454 58.5953 272.528 80.0054 294.334 104.53C316.641 129.759 336.219 157.275 352.74 186.62C370.067 217.342 385.07 249.318 397.624 282.279C449.509 416.537 471.999 575.729 490.029 703.467C499.907 773.185 508.395 833.41 519.76 878.147C532.132 926.959 546.805 951.653 565.794 955.825C579.077 958.702 594.566 951.701 613.172 934.391C632.688 916.171 655.226 887.017 682.08 845.157C807.524 649.667 927.022 513.012 1037.31 439.073C1083.73 407.858 1129.14 387.624 1171.92 378.801C1207.18 371.182 1243.77 372.351 1278.47 382.205C1336.01 399.036 1374.76 437.683 1397.25 467.172C1423.91 502.079 1436.38 535.548 1436.38 547.152H1435.75C1435.75 535.596 1423.38 502.319 1396.77 467.508C1374.33 438.114 1335.53 399.563 1278.28 382.781C1163.48 349.216 966.967 401.961 682.559 845.301C655.706 887.353 632.976 916.602 613.795 935.015C597.587 949.735 583.825 957.072 571.741 957.072Z" fill="#01B9FF" fill-opacity="0.3"/>
                <path d="M570.638 972.128C568.879 972.134 567.126 971.941 565.411 971.552C548.771 967.764 536.639 945.276 526.617 900.779C517.602 860.07 511.32 804.88 504.031 740.58C488.878 607.28 470.033 441.375 415.175 298.342C350.391 129.464 251.033 32.414 111.298 1.19893V0.623535C148.812 8.86788 184.843 22.8069 218.137 41.956C249.287 60.1895 277.66 82.7961 302.39 109.085C327.255 135.61 349.007 164.889 367.222 196.353C386.127 228.895 402.311 262.943 415.606 298.15C470.512 441.231 489.358 607.184 504.511 740.532C511.752 804.64 518.081 859.974 527.049 900.683C536.639 944.892 549.011 967.237 565.411 971.025C589.915 976.587 625.304 941.152 676.805 859.447C967.063 399.132 1167.12 342.983 1283.84 376.691C1339.08 392.658 1376.72 428.956 1398.59 456.623C1424.34 489.229 1436.33 519.725 1436.33 530.082H1435.75C1435.75 519.389 1422.71 488.03 1398.16 456.959C1376.24 429.388 1338.79 393.186 1283.7 377.219C1167.12 343.654 967.207 399.899 677.285 859.734C629.14 936.07 594.95 972.128 570.638 972.128Z" fill="#01B9FF" fill-opacity="0.3"/>
                <path d="M569.295 987.232C567.777 987.228 566.265 987.051 564.787 986.704C533.81 979.272 526.425 893.97 516.835 775.727C505.806 644.633 490.653 465.11 433.349 313.638C365.16 133.923 254.677 31.6467 95.426 1.15088V0.671387C137.703 8.53448 178.543 22.7613 216.555 42.8669C251.343 61.5397 283.164 85.2782 310.974 113.305C338.334 141.092 362.214 172.103 382.088 205.655C402.432 240.054 419.682 276.189 433.637 313.638C459.052 380.767 478.377 458.589 492.667 551.227C504.942 631.063 511.464 707.974 517.17 775.87C527.145 893.73 534.29 978.889 565.123 986.225C587.038 991.499 620.94 955.729 671.818 873.735C803.017 662.278 927.79 514.114 1042.68 433.943C1090.64 400.378 1137.34 378.417 1181.32 368.779C1216.97 360.393 1254.17 361.069 1289.5 370.745C1342.58 385.849 1378.93 419.846 1400.12 445.738C1424.1 474.748 1436.57 503.278 1436.57 512.868H1436.04C1436.04 505.052 1425.4 477.433 1399.74 446.122C1378.59 420.277 1342.2 386.377 1289.45 371.273C1215.84 350.319 1132.93 371.561 1043.07 434.422C928.221 514.738 803.304 662.614 672.345 874.071C646.115 916.362 624.728 945.995 607.034 964.264C591.833 979.656 579.557 987.232 569.295 987.232Z" fill="#01B9FF" fill-opacity="0.3"/>
                <path d="M567.952 1002.14C566.642 1002.16 565.336 1001.99 564.068 1001.66C551.888 998.596 543.688 980.231 538.222 943.837C533.426 910.273 530.645 863.666 527.768 809.579C520.479 674.074 510.457 488.318 451.043 328.646C381.512 140.684 256.403 30.3521 79.5056 1.15088V0.671387C126.822 8.14013 172.756 22.6371 215.787 43.6821C254.072 62.8428 289.223 87.7086 320.037 117.428C349.875 146.445 375.84 179.194 397.288 214.862C419.032 251.037 437.242 289.221 451.667 328.886C510.936 488.797 520.911 674.409 528.391 809.915C534.146 917.274 538.318 994.856 564.356 1001.42C573.946 1003.87 586.702 996.63 602.718 978.649C618.734 960.668 640.313 930.699 666.303 888.024C800.571 668.272 927.79 514.498 1045.13 430.874C1093.85 396.159 1141.04 373.335 1185.78 363.217C1224.76 353.267 1265.78 354.709 1303.97 367.373C1342.16 380.036 1375.91 403.39 1401.23 434.662C1425.68 463.432 1436.28 488.941 1436.28 495.606H1435.8C1435.8 488.605 1424.15 462.329 1400.84 434.95C1373.16 401.646 1336.24 377.286 1294.72 364.944C1220.4 344.086 1136.48 366.382 1045.37 431.258C928.173 514.834 800.811 668.608 666.543 888.264C618.878 966.661 588.092 1002.14 567.952 1002.14Z" fill="#01B9FF" fill-opacity="0.3"/>
                <path d="M566.418 1017.44C565.352 1017.44 564.289 1017.31 563.253 1017.06C557.786 1015.62 553.662 1010.44 550.066 1001.23C546.233 989.475 543.786 977.309 542.777 964.983C539.372 934.679 538.413 892.244 537.311 843.048C534.242 703.515 529.974 512.436 469.361 344.373C397.48 144.759 261.007 29.3451 63.6333 1.10283V0.719238C115.956 7.77311 166.952 22.5085 214.972 44.4492C256.972 64.0047 295.657 90.0033 329.627 121.504C361.885 151.741 389.875 186.23 412.825 224.02C435.927 261.979 455.065 302.212 469.937 344.085C496.79 418.551 514.965 504.045 525.562 605.506C534.577 692.151 536.447 775.822 537.934 843.048C539.037 892.196 539.948 934.679 543.401 964.935C547.045 997.541 553.471 1013.94 563.541 1016.62C580.9 1021.42 611.062 985.985 661.316 902.313C798.317 674.122 928.413 514.402 1048.1 427.613C1097.54 391.699 1145.5 368.108 1190.71 357.463C1226.7 348.371 1264.41 348.585 1300.29 358.087C1340.01 369.606 1375.57 392.33 1402.71 423.538C1424.87 448.519 1436.28 472.542 1436.28 478.44H1435.85C1435.85 472.638 1424.29 448.759 1402.28 423.825C1375.18 392.662 1339.67 369.971 1300 358.47C1225 337.708 1140.27 361.059 1048.2 427.949C928.605 514.785 798.509 674.505 661.508 902.649C614.035 981.526 584.4 1017.44 566.418 1017.44Z" fill="#01B9FF" fill-opacity="0.3"/>
                <path d="M564.931 1032.59C564.039 1032.59 563.151 1032.46 562.294 1032.21C543.832 1027.08 544.455 966.757 545.415 875.509C546.853 740.388 549.011 536.171 487.488 359.525C414.12 148.643 266.186 28.1943 47.9528 1.10283V0.719238C105.408 7.36653 161.59 22.3398 214.732 45.1684C260.429 65.1265 302.635 92.2741 339.745 125.58C374.383 157.045 404.352 193.293 428.746 233.226C452.979 273.089 472.804 315.47 487.871 359.621C549.395 536.363 547.237 740.58 545.798 875.749C545.319 920.246 544.935 958.75 546.901 986.033C549.059 1015.19 553.998 1029.86 562.39 1032.21C569.966 1034.32 580.804 1026.55 595.573 1008.23C610.343 989.917 630.387 959.805 655.85 916.698C795.824 679.923 928.701 513.922 1050.79 423.921C1100.9 386.856 1149.57 362.45 1195.37 351.326C1231.53 341.903 1269.5 341.903 1305.66 351.326C1343.45 362.061 1377.5 383.135 1403.96 412.174C1425.3 435.285 1436.33 457.006 1436.33 461.226H1435.95C1435.95 457.054 1424.96 435.429 1403.67 412.413C1377.24 383.457 1343.27 362.436 1305.56 351.709C1229.84 330.995 1144.2 355.401 1051.08 424.209C929.037 514.354 796.207 680.163 656.281 916.89C608.568 997.349 580.852 1032.59 564.931 1032.59Z" fill="#01B9FF" fill-opacity="0.3"/>
                <path d="M563.301 1047.7C562.572 1047.69 561.847 1047.6 561.143 1047.41C546.038 1042.95 548.436 989.054 552.08 907.444C558.218 769.205 567.521 560.337 505.662 375.205C431.575 152.815 271.988 26.9476 31.7927 1.05488V0.719238C94.6989 6.90701 156.389 22.1025 214.972 45.8397C264.363 66.2619 310.101 94.5868 350.391 129.703C387.383 162.428 419.287 200.487 445.05 242.624C470.371 284.273 490.821 328.694 505.997 375.013C521.22 421.449 532.654 469.043 540.188 517.327C547.562 564.549 552.364 612.137 554.574 659.881C559.369 752.903 555.389 838.588 552.32 907.492C548.675 989.006 546.326 1042.71 561.143 1047.07C574.138 1050.91 600.896 1016.15 650.527 930.843C773.574 719.434 891.154 562.591 1000.92 463.384C901.847 553.049 785.418 699.727 650.863 931.035C625.592 974.429 606.411 1004.49 592.121 1023C579.269 1039.74 569.966 1047.7 563.301 1047.7ZM1436.04 443.82H1435.71C1435.71 441.519 1426.11 422.675 1404.78 400.666C1379.05 373.838 1346.59 354.413 1310.79 344.421C1271.85 333.92 1224.47 333.776 1167.6 354.826C1178.25 350.848 1189.1 347.454 1200.11 344.661C1236.38 334.98 1274.52 334.782 1310.88 344.085C1346.74 354.123 1379.25 373.596 1405.02 400.474C1425.54 421.428 1436.23 441.135 1436.23 443.82H1436.04Z" fill="#01B9FF" fill-opacity="0.3"/>
                <path d="M561.287 1062.66C560.719 1062.65 560.154 1062.57 559.609 1062.42C553.854 1060.64 551.361 1049.47 551.505 1026.21C551.505 1004.83 553.998 975.484 556.971 938.371C567.473 805.982 585.119 584.456 523.404 390.74C449.221 156.699 278.414 25.6049 15.9203 1.05479V0.76709C84.3793 6.43233 151.68 21.8355 215.787 46.5109C268.813 67.3482 318.022 96.8201 361.42 133.731C400.705 167.721 434.468 207.612 461.497 251.974C487.782 295.521 508.713 342.081 523.836 390.644C538.922 439.178 549.862 488.904 556.54 539.287C563.048 588.312 566.746 637.669 567.617 687.116C569.583 783.015 562.438 872.92 557.259 938.515C551.505 1010.82 547.668 1058.39 559.656 1062.27C570.734 1065.72 595.573 1031.82 645.396 945.276C790.837 690.424 928.941 512.052 1055.87 415.146C1107.37 375.828 1157.34 349.791 1204.53 337.756C1240.96 327.804 1279.34 327.407 1315.97 336.605C1350.01 345.878 1381.11 363.705 1406.31 388.391C1426.16 407.57 1436.18 424.928 1436.18 426.414H1435.9C1435.9 425.024 1425.54 407.57 1406.12 388.582C1380.95 363.806 1349.84 345.909 1315.78 336.605C1238.48 316.466 1150.87 342.647 1056.02 415.242C929.132 512.148 791.22 690.472 645.636 945.276C628.021 976.977 608.815 1007.77 588.092 1037.53C575.769 1054.55 567.089 1062.66 561.287 1062.66Z" fill="#01B9FF" fill-opacity="0.3"/>
                <path d="M559.752 1078C559.354 1078.05 558.952 1078.05 558.554 1078C554.094 1076.56 552.56 1067.02 553.758 1047.07C554.717 1028.66 557.642 1003.15 561.383 970.881C581.667 795.673 623.721 430.97 436.178 202.347C339.266 84.343 192.578 16.6384 0 1.00684C49.0087 4.86487 97.6002 12.8854 145.249 24.9816C186.436 35.4732 226.481 50.0252 264.795 68.4238C298.916 84.801 331.167 104.816 360.988 128.121C388.685 149.985 413.957 174.757 436.37 202.011C459.434 230.337 479.52 260.963 496.311 293.403C512.978 325.539 526.886 359.032 537.886 393.521C548.836 427.96 557.486 463.089 563.78 498.674C569.987 533.925 574.389 569.47 576.967 605.17C587.373 746.429 571.789 881.407 561.431 970.737C554.19 1033.07 549.395 1074.6 558.602 1077.57C563.397 1079.1 571.501 1071 584.496 1052.15C597.491 1033.31 614.802 1004.21 640.169 959.421C708.79 837.821 776.547 731.9 841.571 644.584C900.169 565.803 957.808 500.448 1012.81 450.389C1103.92 367.389 1189.37 324.474 1266.67 322.796C1292.13 322.134 1317.47 326.366 1341.33 335.263C1360.32 342.494 1378.1 352.549 1394.08 365.087C1410.31 377.503 1424.47 392.408 1436.04 409.249C1424.48 392.418 1410.31 377.528 1394.08 365.135C1357.83 336.645 1312.77 321.705 1266.67 322.892C1189.42 324.57 1104.06 367.485 1012.95 450.437C896.668 556.31 771.368 727.537 640.457 959.373C615.138 1004.25 597.299 1033.74 584.784 1052.11C572.652 1069.7 564.692 1078 559.752 1078Z" fill="#01B9FF" fill-opacity="0.3"/>
                </g>
                <defs>
                <clipPath id="clip0_2_628">
                <rect width="1437" height="1078" fill="white"/>
                </clipPath>
                </defs>
           </svg>